<?xml version="1.0" encoding="utf-8"?>
<!-- Generator: Adobe Illustrator 13.0.2, SVG Export Plug-In  -->
<!DOCTYPE svg PUBLIC "-//W3C//DTD SVG 1.1//EN" "http://www.w3.org/Graphics/SVG/1.1/DTD/svg11.dtd" [
	<!ENTITY ns_flows "http://ns.adobe.com/Flows/1.0/">
]>
<svg version="1.1"
	 xmlns="http://www.w3.org/2000/svg" xmlns:xlink="http://www.w3.org/1999/xlink" xmlns:a="http://ns.adobe.com/AdobeSVGViewerExtensions/3.0/"
	 x="0px" y="0px" width="450px" height="134px" viewBox="-0.254 -0.147 450 134" enable-background="new -0.254 -0.147 450 134"
	 xml:space="preserve">
<defs>
</defs>
<path fill="#4A5D75" d="M122.797,63.977h15.017c7.435,0,10.933,1.165,13.922,3.134c4.007,2.697,6.708,7.291,6.708,12.975
	c0,5.687-2.7,10.276-6.708,12.976c-2.989,1.967-6.487,3.136-13.922,3.136h-9.62v21.719h-5.397V63.977z M128.194,91.312h7.797
	c5.762,0,7.727,0,10.791-1.385c4.225-1.97,6.269-5.763,6.269-9.843c0-4.079-2.043-7.87-6.269-9.841
	c-3.063-1.385-5.029-1.385-10.791-1.385h-7.797V91.312z"/>
<path fill="#4A5D75" d="M161.554,78.046h5.101v5.756h0.146c2.407-5.612,6.926-6.485,11.227-6.779v5.396
	c-3.574,0.29-6.634,1.606-8.605,3.937c-1.747,2.189-2.768,5.028-2.768,8.236v23.324h-5.101V78.046z"/>
<path fill="#4A5D75" d="M186.753,110.532c5.911,5.101,15.741,4.373,21.106-1.286c4.908-5.391,5.35-12.105,3.006-16.839l3.714-3.912
	c3.857,7.477,2.979,17.192-3.335,23.856c-7.675,8.094-20.855,8.857-29.424,0.735c-8.199-7.776-8.807-20.908-0.991-29.472
	c6.07-6.294,14.089-7.227,19.643-5.883c4.975,1.003,8.604,3.635,11.256,6.457L186.753,110.532z M204.837,84.782
	c-7.925-5.304-16.265-2.658-20.627,1.944c-4.312,4.548-6.61,13.12-0.789,20.646L204.837,84.782z"/>
<path fill="#4A5D75" d="M223.53,106.108c0.144,7.581,5.321,8.163,7.147,8.163c4.808,0,7.432-2.842,7.432-7.142
	c0-5.471-4.956-6.708-7.945-7.947c-4.085-1.385-10.569-3.57-10.569-11.081c0-5.611,4.01-11.079,11.37-11.079
	c5.977,0,10.933,4.593,10.858,10.862h-5.099c-0.365-4.884-3.717-6.27-5.979-6.27c-4.079,0-6.047,3.28-6.047,5.975
	c0,4.231,4.226,5.688,7.143,6.638c4.662,1.532,11.368,4.08,11.368,12.315c0.072,6.852-4.082,12.318-12.531,12.318
	c-5.546,0-12.468-3.787-12.251-12.753H223.53z"/>
<path fill="#4A5D75" d="M249.521,106.108c0.146,7.581,5.32,8.163,7.142,8.163c4.809,0,7.437-2.842,7.437-7.142
	c0-5.471-4.959-6.708-7.946-7.947c-4.084-1.385-10.568-3.57-10.568-11.081c0-5.611,4.01-11.079,11.367-11.079
	c5.979,0,10.938,4.593,10.862,10.862h-5.1c-0.369-4.884-3.72-6.27-5.978-6.27c-4.083,0-6.049,3.28-6.049,5.975
	c0,4.231,4.226,5.688,7.144,6.638c4.663,1.532,11.367,4.08,11.367,12.315c0.074,6.852-4.082,12.318-12.536,12.318
	c-5.54,0-12.466-3.787-12.247-12.753H249.521z"/>
<path fill="#231F20" d="M323.517,71.877c10.637,12.062,7.834,28.854-1.408,38.368c-11.224,11.557-29.521,11.664-40.188,1.301
	c-10.039-9.748-11.95-27.762,0.093-40.154c9.953-10.25,23.359-9.927,28.756-7.632l-4.369,4.494
	c-5.949-1.507-14.587,0.057-20.835,6.492c-9.498,9.771-8.457,24.605,0.167,32.982c8.629,8.381,23.378,8.891,33.028-1.043
	c7.972-8.208,7.8-20.163,3.733-26.753l-20.975,21.59l-3.5-3.403L323.517,71.877z"/>
<path fill="#231F20" d="M370.874,117.918h-5.105v-6.995h-0.142c-4.377,6.558-11.375,7.942-15.527,7.942
	c-12.535,0-21.431-9.546-21.431-20.99c0-10.646,8.383-20.848,21.431-20.848c4.298,0,11.297,1.386,15.527,8.021h0.142v-6.999h5.105
	V117.918z M350.1,114.275c8.597,0,15.964-6.925,15.964-16.255c0-8.747-6.778-16.401-15.964-16.401
	c-8.749,0-16.328,6.342-16.328,16.472C333.771,106.985,340.329,114.275,350.1,114.275z"/>
<path fill="#231F20" d="M373.25,78.049h5.107v5.104h0.144c1.528-2.407,5.466-6.125,12.246-6.125c4.884,0,8.965,1.239,12.609,4.883
	c2.988,2.917,4.957,7.511,4.957,14.07v21.938h-5.1V95.98c0-5.174-1.606-8.818-3.793-10.933c-2.77-2.699-6.415-3.429-8.674-3.429
	c-2.26,0-5.905,0.729-8.675,3.429c-2.186,2.114-3.791,5.759-3.715,10.933v21.938h-5.107V78.049z"/>
<path fill="#231F20" d="M444.353,78.206h5.133v31.767c0,5.593-0.453,9.688-1.358,12.277c-1.239,3.661-3.397,6.486-6.469,8.462
	c-3.072,1.981-6.766,2.969-11.084,2.969c-3.163,0-6.002-0.481-8.522-1.449c-2.518-0.971-4.566-2.268-6.149-3.896
	c-1.577-1.63-3.037-4.013-4.372-7.149h5.152c1.402,2.64,3.212,4.593,5.432,5.864c2.216,1.27,4.963,1.899,8.244,1.899
	c3.232,0,5.963-0.645,8.191-1.949s3.818-2.938,4.766-4.912c0.948-1.974,1.037-5.157,1.037-9.548v-2.056
	c-1.932,2.446-4.289,4.321-7.078,5.625c-2.786,1.312-5.746,1.96-8.877,1.96c-3.665,0-7.113-0.908-10.339-2.727
	c-3.231-1.82-5.723-4.271-7.485-7.348c-1.764-3.079-2.642-6.459-2.642-10.147c0-3.691,0.919-7.132,2.754-10.317
	c1.835-3.188,4.367-5.708,7.607-7.566c3.239-1.858,6.66-2.783,10.257-2.783c2.979,0,5.764,0.615,8.341,1.848
	c2.578,1.234,5.069,3.268,7.462,6.104V78.206z M429.223,82.124c-2.908,0-5.609,0.702-8.097,2.106
	c-2.495,1.408-4.446,3.347-5.863,5.827c-1.418,2.482-2.126,5.161-2.126,8.044c0,4.372,1.464,7.989,4.395,10.848
	c2.934,2.858,6.729,4.286,11.396,4.286c4.718,0,8.511-1.417,11.379-4.251c2.874-2.834,4.306-6.559,4.306-11.177
	c0-3.003-0.659-5.684-1.979-8.04c-1.318-2.358-3.189-4.222-5.607-5.591C434.608,82.811,432.008,82.124,429.223,82.124z"/>
<path fill="#B0C2CC" d="M99.391,19.633c-33.648-24.76-73.485-5.096-73.485-5.096l1.429,15.638l2.664,1.006
	c-0.305-3.232-0.369-5.505-0.369-5.505l0.374-2.992l-0.374,2.992c0,0,0.064,2.273,0.369,5.505l10.191,3.847L99.391,19.633z"/>
<path fill="#5A6D82" d="M104.043,60.82c-0.258-5.756-3.896-10.911-3.919-21.771c-0.022-9.382-6.055-13.742-6.055-13.742
	c-12.111-4.795-29.825-4.056-29.825-4.056l-0.684,0.012c0,0-17.729-0.083-29.654,5.158c0,0-2.229,1.756-3.854,5.31
	c0.591,5.925,1.983,14.654,5.188,18.875c5.11,6.73,7.289,13.355,7.289,13.355l-0.059,0.73l0.059-0.73c0,0-2.179-6.625-7.289-13.355
	c-3.205-4.221-4.596-12.95-5.188-18.875c-1.003,2.192-1.776,5.066-1.653,8.644c0.377,10.855-3.032,16.139-3.077,21.901
	c-0.046,5.762,0.833,12.165,3.624,14.911l72.028-1.332C103.66,73.006,104.302,66.576,104.043,60.82z"/>
<path fill="#4A5D75" d="M28.017,40.024c0.001,0.119,0.004,0.241,0.009,0.366c0.01,0.258,0.016,0.519,0.021,0.775
	c0.196,10.292-3.038,15.339-3.098,21.108c-0.004,0.461-0.003,0.928,0.006,1.397c0.113,5.411,1.018,11.081,3.729,13.782l0.522-0.531
	c-2.428-2.354-3.42-7.933-3.505-13.264c-0.009-0.46-0.009-0.922-0.005-1.379c0.024-5.479,3.286-10.674,3.098-21.126
	c-0.005-0.261-0.012-0.524-0.021-0.79c-0.005-0.118-0.007-0.234-0.01-0.351c-0.057-3.092,0.566-5.295,1.406-7.167
	c-0.071-0.639-0.133-1.252-0.187-1.833C28.869,33.236,27.949,36.225,28.017,40.024z"/>
<polygon fill="#4A5D75" points="101.244,76.111 101.246,76.109 101.245,76.108 "/>
<path fill="#4A5D75" d="M104.46,62.2c-0.01-0.469-0.026-0.936-0.044-1.396c-0.275-5.762-3.727-10.684-3.911-20.976
	c-0.006-0.26-0.009-0.52-0.009-0.777c0-0.125-0.002-0.245-0.004-0.364c-0.178-9.328-6.143-13.629-6.175-13.661l-0.049-0.042
	l-0.061-0.025c-10.511-4.155-25.071-4.179-28.981-4.11c-0.642,0.011-0.994,0.027-0.998,0.028l-0.674,0.012
	c0.007,0-0.348-0.003-0.989,0.009c-3.911,0.077-18.46,0.636-28.809,5.179l-0.06,0.027l-0.047,0.044
	c-0.018,0.019-2.047,1.626-3.666,4.861c0.054,0.581,0.116,1.194,0.187,1.833c0.383-0.852,0.811-1.634,1.241-2.4
	c1.234-2.199,2.475-3.469,2.712-3.711c10.138-4.438,24.597-5.019,28.455-5.087c0.634-0.012,0.979-0.009,0.979-0.009l0.695-0.012
	c0.009,0,0.352-0.016,0.987-0.028c3.857-0.074,18.331-0.027,28.63,4.034c0.109,0.103,0.416,0.394,0.842,0.878
	c1.629,1.847,4.91,5.447,5.034,12.193c0.002,0.116,0.004,0.233,0.006,0.351c-0.002,0.265,0.003,0.529,0.007,0.791
	c0.197,10.451,3.683,15.523,3.913,20.994c0.02,0.455,0.035,0.916,0.043,1.377c0.112,5.33-0.674,10.942-3.012,13.385l0.544,0.511
	C103.851,73.311,104.545,67.611,104.46,62.2z"/>
<path fill="#4A5D75" d="M98.151,63.151l-55.642,1.03l-0.041,0.511l0.041-0.511l-11.214,0.206c0,0-2.12,16.993-6.718,23.499
	l4.534,6.498c0,0,2.035,3.09,6.267,1.53c4.233-1.559,11.652-3.674,11.569,0.115c-0.033,1.515-2.484,4.106-5.031,7.129
	c-3.82,4.533-8.26,9.799-8.32,11.966c-0.099,3.613-0.429,3.799,0.125,6.678s16.757,7.996,31.442,7.724l1.583-0.03
	c14.685-0.27,30.688-5.982,31.135-8.879c0.448-2.897,0.112-3.073-0.121-6.679c-0.132-2.021-4.127-6.753-7.95-10.899
	c-3.004-3.257-6.029-6.024-6.127-7.688c-0.222-3.781,7.27-1.945,11.556-0.544c4.287,1.403,6.207-1.759,6.207-1.759l4.291-6.664
	C100.9,80.054,98.151,63.151,98.151,63.151z"/>
<path fill="#4A5D75" d="M106.03,86.157c-2.353-3.068-4.257-8.861-5.538-13.856c-1.287-5-1.97-9.201-1.972-9.209l-0.737,0.12
	c0.016,0.027,2.661,16.542,7.496,23.188l-4.149,6.446c-0.005,0.009-0.066,0.109-0.213,0.287c-0.447,0.538-1.57,1.623-3.481,1.658
	c-0.608,0.011-1.298-0.08-2.083-0.339c-2.474-0.806-5.983-1.762-8.581-1.718c-0.951,0.02-1.792,0.167-2.436,0.557
	c-0.65,0.385-1.061,1.08-1.034,1.952c0.001,0.042,0.004,0.091,0.01,0.148c0.167,2.138,4.986,6.032,7.992,9.734
	c3.014,3.63,6.002,7.348,6.044,8.84c0.143,2.202,0.322,3.143,0.341,4.132c0.01,0.642-0.042,1.329-0.215,2.457
	c-0.007,0.405-1.004,1.368-2.772,2.269c-5.288,2.804-17.029,6.068-27.964,6.266l-1.582,0.029
	c-7.293,0.135-14.987-1.073-20.907-2.668c-2.959-0.798-5.478-1.692-7.268-2.559c-1.804-0.837-2.834-1.761-2.858-2.168
	c-0.217-1.117-0.293-1.805-0.305-2.443c-0.021-0.991,0.125-1.936,0.188-4.143c-0.015-1.491,2.835-5.319,5.712-9.058
	c2.87-3.81,7.512-7.879,7.602-10.043c0-0.046,0.001-0.089,0-0.127c-0.005-0.876-0.44-1.554-1.104-1.914
	c-0.66-0.367-1.505-0.483-2.456-0.467c-2.599,0.052-6.07,1.138-8.51,2.035c-0.776,0.286-1.463,0.403-2.069,0.414
	c-1.278,0.024-2.21-0.43-2.84-0.89c-0.313-0.233-0.546-0.465-0.7-0.638c-0.153-0.174-0.217-0.273-0.217-0.271l-4.392-6.296
	c4.588-6.82,6.619-23.421,6.633-23.449l-0.739-0.092c-0.003,0.009-0.529,4.232-1.63,9.276c-1.095,5.038-2.786,10.896-5.023,14.051
	l-0.152,0.214l4.685,6.714c0.02,0.031,1.436,2.176,4.388,2.129c0.695-0.015,1.467-0.151,2.315-0.463
	c2.396-0.889,5.852-1.948,8.264-1.989c0.879-0.018,1.61,0.106,2.076,0.372c0.461,0.273,0.699,0.617,0.724,1.277
	c0,0.034,0.001,0.068,0,0.099c0.006,1.625-4.631,5.82-7.508,9.561c-2.867,3.813-5.766,7.408-5.88,9.529
	c-0.059,2.179-0.204,3.095-0.186,4.183c0.012,0.699,0.097,1.446,0.318,2.585c0.253,1.035,1.456,1.827,3.306,2.752
	c5.571,2.677,17.455,5.504,28.547,5.305l1.583-0.029c7.393-0.138,15.092-1.639,21.02-3.475c2.963-0.916,5.483-1.919,7.309-2.883
	c1.816-0.989,2.989-1.827,3.204-2.87c0.176-1.153,0.234-1.896,0.218-2.598c-0.019-1.088-0.2-1.998-0.338-4.171
	c-0.194-2.117-3.222-5.6-6.228-9.305c-3.013-3.634-7.831-7.654-7.883-9.277c-0.005-0.041-0.005-0.067-0.006-0.1
	c-0.002-0.658,0.225-1.012,0.676-1.302c0.455-0.281,1.179-0.434,2.059-0.446c2.415-0.051,5.905,0.882,8.337,1.679
	c0.855,0.282,1.633,0.391,2.327,0.377c2.951-0.062,4.29-2.257,4.314-2.297l4.427-6.874L106.03,86.157z"/>
<path fill="#8598A8" d="M60.202,63.936l-17.717-0.1c0.026,0.074,0.043,0.125,0.043,0.125l-0.059,0.73l0.059-0.73
	c0,0-0.017-0.051-0.043-0.125l-11.324-0.063c0,0-1.441,14.676-6.583,24.113l4.528,6.251c0,0,1.867-6.122,8.876-5.596
	c7.009,0.529,6.915,3.657,6.915,3.657s6.707,0.535,11.322-4.981c4.616-5.517,6.918-17.738,6.918-17.738S64.198,66.001,60.202,63.936
	z"/>
<path fill="#4A5D75" d="M60.374,63.604l-0.171,0.332l0.002-0.374v-0.001l-17.854-0.099c0.115,0.313,0.177,0.499,0.177,0.499
	l-0.02,0.249l17.602,0.098c2.352,1.261,2.748,2.946,2.781,4.04c0.013,0.626-0.119,1.018-0.111,1.021
	c-0.012,0.045-0.582,3.075-1.728,6.8c-1.143,3.723-2.874,8.129-5.12,10.809c-3.609,4.315-8.555,4.83-10.342,4.861
	c-0.142,0.003-0.262,0.003-0.359,0.001c-0.205-0.933-1.402-3.27-7.222-3.67c-0.371-0.028-0.728-0.039-1.072-0.033
	c-5.083,0.105-7.245,3.712-7.928,5.229l-3.992-5.508c4.646-8.698,6.227-21.479,6.478-23.709l11.013,0.062l0.02-0.249
	c0,0-0.062-0.186-0.177-0.499l-11.529-0.064l-0.031,0.338c-0.002,0.009-0.359,3.649-1.359,8.478
	c-0.998,4.829-2.64,10.832-5.181,15.492l-0.114,0.206l5.109,7.051l0.218-0.717c0-0.002,0.094-0.311,0.337-0.81
	c0.741-1.498,2.72-4.469,7.15-4.553c0.32-0.006,0.653,0.002,1.001,0.03c6.62,0.543,6.533,3.207,6.57,3.277
	c0,0.018,0.001,0.028,0.003,0.036l0.023,0.317l0.318,0.026c0.01,0,0.277,0.021,0.737,0.013c1.888-0.035,7.076-0.565,10.9-5.128
	c4.717-5.664,6.984-17.885,6.999-17.91c-0.001,0.013,0.146-0.478,0.135-1.212C63.627,67.046,63.045,64.974,60.374,63.604z"/>
<path fill="#8598A8" d="M69.249,63.768l28.92-1.234c0,0,3.079,16.815,7.566,23.849l-4.294,6.416c0,0-2.091-6.05-9.078-5.263
	c-6.984,0.787-6.773,3.91-6.773,3.91s-6.683,0.782-11.499-4.562c-4.816-5.341-7.57-17.47-7.57-17.47S65.333,65.98,69.249,63.768"/>
<path fill="#4A5D75" d="M101.086,92.921c-0.002,0.001-0.106-0.309-0.367-0.795l0,0c-0.26-0.486-0.672-1.137-1.267-1.783l0,0
	c-1.192-1.288-3.085-2.555-6.048-2.503l0,0c-0.323,0.007-0.656,0.026-1,0.066l0,0c-6.517,0.779-6.412,3.384-6.445,3.514l0,0
	l0.048,0.354l-0.379,0.044c-0.008,0.002-0.276,0.03-0.735,0.038l0,0c-1.887,0.035-7.094-0.302-11.08-4.718l0,0
	c-4.923-5.488-7.642-17.615-7.646-17.602l0,0c-0.011-0.025-0.175-0.511-0.19-1.246l0,0c-0.037-1.285,0.466-3.381,3.087-4.846l0,0
	l0.182,0.323l-0.017-0.371l29.246-1.25l0.058,0.32c0.003,0.009,0.767,4.191,2.094,9.261l0,0c1.325,5.065,3.222,11.015,5.42,14.455
	l0,0l0.131,0.207l-4.848,7.242L101.086,92.921L101.086,92.921z M101.507,92.023l3.781-5.647c-4.119-6.688-6.979-21.13-7.427-23.456
	l0,0l-28.509,1.218c-2.305,1.348-2.637,3.044-2.63,4.14l0,0c0.012,0.626,0.149,1.013,0.16,1.056l0,0
	c0.003,0.005,0.683,3.012,1.968,6.691l0,0c1.28,3.677,3.171,8.018,5.517,10.611l0,0c3.762,4.181,8.725,4.508,10.512,4.477l0,0
	c0.141-0.003,0.261-0.009,0.359-0.014l0,0c0.171-0.938,1.278-3.317,7.082-3.934l0,0c0.368-0.042,0.727-0.066,1.071-0.072l0,0
	C98.476,87.011,100.768,90.532,101.507,92.023L101.507,92.023z"/>
<path fill="#5A6D82" d="M37.042,92.841c-0.478,1.551-1.639,2.525-2.596,2.178c-0.957-0.346-1.345-1.885-0.868-3.436
	c0.477-1.55,1.64-2.525,2.596-2.179C37.132,89.752,37.52,91.289,37.042,92.841z"/>
<path fill="#231F20" d="M68.558,92.141c-0.581-5.226-3.612-14.221-3.612-14.221s-2.617,9.1-3.004,14.344
	c-0.365,4.947,1.556,1.841,2.887-0.187c0.158-0.238,0.292-0.432,0.407-0.588c0.121,0.152,0.262,0.341,0.429,0.571
	C67.071,94.039,69.105,97.072,68.558,92.141z"/>
<path fill="#5A6D82" d="M93.459,91.797c0.535,1.532,1.734,2.464,2.676,2.083c0.943-0.383,1.274-1.935,0.741-3.468
	c-0.535-1.531-1.732-2.463-2.676-2.081C93.256,88.714,92.926,90.266,93.459,91.797z"/>
<path fill="#B0C2CC" d="M29.25,57.041c0,0-1.828,3.126-0.002,6.583l13.164,0.005c-0.313-0.87-1.285-3.4-3.024-6.584L29.25,57.041z"
	/>
<path fill="#B0C2CC" d="M67.745,57.057l-28.356-0.012c1.739,3.184,2.711,5.714,3.024,6.584l25.33,0.01L67.745,57.057z"/>
<path fill="#B0C2CC" d="M67.745,57.43v-0.747l-28.559-0.012c0.142,0.255,0.272,0.5,0.405,0.747L67.745,57.43z"/>
<path fill="#B0C2CC" d="M28.811,60.379c0-0.923,0.193-1.718,0.385-2.279c0.106-0.31,0.21-0.54,0.282-0.687l10.112,0.004
	c-0.133-0.247-0.263-0.492-0.405-0.747l-10.149-0.004l-0.108,0.185c-0.017,0.032-0.86,1.471-0.863,3.527
	c0,1.026,0.213,2.207,0.853,3.418l0.105,0.199l13.502,0.006l0.003-0.041c0,0-0.084-0.255-0.254-0.706L29.477,63.25
	C28.978,62.227,28.811,61.246,28.811,60.379z"/>
<path fill="#B0C2CC" d="M42.524,64.002l25.217,0.011v-0.747l-25.468-0.011c0.17,0.451,0.254,0.706,0.254,0.706L42.524,64.002z"/>
<path fill="#B0C2CC" d="M61.58,57.054l38.494,0.017c0,0,1.824,3.127-0.002,6.583l-38.495-0.016"/>
<path fill="#B0C2CC" d="M61.578,64.01l0-0.747l38.264,0.016c0.498-1.022,0.667-2.002,0.667-2.87l0,0c0-0.923-0.192-1.719-0.385-2.28
	l0,0c-0.105-0.308-0.207-0.54-0.278-0.687l0,0l-38.266-0.016l0-0.746l38.706,0.017l0.109,0.184c0.016,0.033,0.857,1.474,0.859,3.528
	l0,0c0.001,1.026-0.215,2.206-0.854,3.417l0,0l-0.107,0.199L61.578,64.01L61.578,64.01z"/>
<linearGradient id="SVGID_1_" gradientUnits="userSpaceOnUse" x1="64.1885" y1="-4.7886" x2="64.7493" y2="68.1216">
	<stop  offset="0" style="stop-color:#FFFFFF"/>
	<stop  offset="0.2684" style="stop-color:#F9FBFC"/>
	<stop  offset="0.6133" style="stop-color:#E9EFF2"/>
	<stop  offset="0.9988" style="stop-color:#CFDBE2"/>
	<stop  offset="1" style="stop-color:#CFDBE2"/>
</linearGradient>
<polyline fill="url(#SVGID_1_)" points="62.694,62.998 64.675,70.768 64.761,72.012 64.867,71.521 64.991,72.007 65.031,70.762 
	66.724,62.923 "/>
<polygon fill="#4A5D75" points="64.886,72.636 64.64,72.662 64.628,72.616 64.397,72.601 64.314,71.387 62.344,63.652 
	62.344,63.652 63.065,63.467 64.847,70.452 66.369,63.406 67.099,63.564 65.413,71.368 65.375,72.583 65.145,72.607 65.135,72.653 
	64.886,72.636 "/>
<path fill="#4A5D75" d="M27.35,30.143l2.787,2.407c-0.268-2.471-0.399-4.54-0.459-5.743C28.076,28.764,27.35,30.143,27.35,30.143z"
	/>
<path fill="#4A5D75" d="M70.704,14.621c-23.974-4.396-36.31,6.419-41.026,12.185c0.061,1.203,0.192,3.272,0.459,5.743l8.988,7.763
	l56.199-14.986C95.324,25.326,102.817,20.508,70.704,14.621z"/>
<path fill="#B0C2CC" d="M29.867,60.073c-0.046-0.53-0.459-1.795-1.024-3.029l0,0c-0.56-1.252-1.253-2.546-1.794-3.474l0,0
	c-0.263-0.453-0.513-0.843-0.643-1.034l0,0c-1.329-1.061-8.363-7.337-13.737-23.942l0,0c-0.608-1.928-2.365-4.91-4.31-7.69l0,0
	c-1.946-2.8-4.074-5.477-5.457-7.16l0,0C1.98,12.624,1.4,11.958,1.399,11.957l0,0L0,10.347l1.536-1.479
	c0.057-0.052,2.263-2.181,5.428-4.354l0,0C10.148,2.366,14.212,0.049,18.55,0l0,0c2.031-0.013,4.185,0.612,5.924,2.126l0,0
	c2.859,2.451,4.561,5.176,5.458,7.881l0,0c0.904,2.703,1.042,5.331,1.044,7.709l0,0c-0.001,1.339-0.044,2.606-0.044,3.781l0,0
	c-0.003,1.658,0.095,3.116,0.436,4.326l0,0c0.349,1.213,0.878,2.191,1.918,3.165l0,0c1.755,1.594,3.473,2.148,5.51,2.168l0,0
	c4.73,0.084,11.047-3.842,16.378-7.331l0,0c2.978-1.902,7.933-3.911,14.045-5.544l0,0c6.097-1.62,13.289-2.807,20.511-2.808l0,0
	c6.638,0.003,13.319,1.001,19.175,3.71l0,0c7.767,3.605,12.432,7.181,15.218,10.516l0,0c2.788,3.321,3.623,6.46,3.61,8.739l0,0
	c-0.001,2.114-0.661,3.429-0.785,3.658l0,0l-0.802,1.492l-1.653-0.363c-0.001,0.001-0.028-0.006-0.155-0.03l0,0
	c-0.128-0.021-0.329-0.053-0.591-0.088l0,0c-0.523-0.065-1.292-0.133-2.209-0.133l0,0c-2.665-0.003-6.483,0.576-9.616,3.154l0,0
	c-1.673,1.369-3.252,2.84-4.475,4.122l0,0c-1.215,1.252-2.105,2.444-2.237,2.756l0,0l-0.149,0.3l-5.768,6.118l-0.076,0.056
	c-0.024,0.037-0.062,0.102-0.104,0.189l0,0c-0.117,0.236-0.259,0.625-0.379,1.061l0,0c-0.248,0.875-0.425,1.928-0.516,2.602l0,0
	c-0.062,0.452-0.086,0.714-0.086,0.714l0,0v0.002l-4.467-0.423c0.024-0.101,0.243-2.96,1.151-5.322l0,0
	c0.312-0.728,0.624-1.476,1.425-2.183l0,0l5.131-5.441c0.631-1.095,1.58-2.198,2.827-3.525l0,0c1.367-1.433,3.062-3.009,4.881-4.497
	l0,0c4.29-3.499,9.203-4.166,12.458-4.168l0,0c0.632,0,1.205,0.025,1.707,0.062l0,0c0.001-0.036,0.001-0.074,0.001-0.111l0,0
	c-0.014-1.25-0.376-3.214-2.571-5.865l0,0c-2.195-2.638-6.293-5.907-13.657-9.317l0,0c-5.036-2.341-11.099-3.299-17.288-3.295l0,0
	c-6.727-0.002-13.584,1.122-19.358,2.659l0,0C64.61,24.14,59.87,26.127,57.6,27.601l0,0c-5.378,3.393-11.911,7.957-18.804,8.042l0,0
	c-2.969,0.02-6.027-1-8.552-3.357l0,0c-1.68-1.538-2.688-3.396-3.198-5.257l0,0c-0.517-1.867-0.597-3.724-0.6-5.531l0,0
	c0-1.281,0.044-2.543,0.042-3.781l0,0c0.001-2.202-0.143-4.299-0.811-6.285l0,0c-0.674-1.985-1.834-3.915-4.131-5.906l0,0
	c-0.875-0.738-1.784-1.025-2.997-1.04l0,0c-2.239-0.034-5.337,1.319-7.951,3.003l0,0c-1.75,1.108-3.301,2.321-4.381,3.225l0,0
	c0.967,1.17,2.324,2.856,3.759,4.772l0,0c2.73,3.672,5.731,8.021,6.959,11.723l0,0c5.104,15.722,11.516,21.204,12.261,21.811l0,0
	c0.097,0.07,0.155,0.132,0.225,0.172l0,0c0.146,0.126,0.218,0.208,0.284,0.282l0,0c0.125,0.143,0.205,0.251,0.294,0.377l0,0
	c0.174,0.239,0.354,0.519,0.561,0.854l0,0c0.412,0.669,0.914,1.548,1.423,2.532l0,0c1.01,2.002,2.065,4.223,2.34,6.325l0,0
	c0.477,4.167,0.477,4.167,0.477,4.167l0,0l-4.459,0.509C30.342,64.238,30.342,64.238,29.867,60.073L29.867,60.073z"/>
<linearGradient id="SVGID_2_" gradientUnits="userSpaceOnUse" x1="77.6147" y1="35.854" x2="77.6147" y2="63.6719">
	<stop  offset="0" style="stop-color:#FFFFFF"/>
	<stop  offset="0.2684" style="stop-color:#F9FBFC"/>
	<stop  offset="0.6133" style="stop-color:#E9EFF2"/>
	<stop  offset="0.9988" style="stop-color:#CFDBE2"/>
	<stop  offset="1" style="stop-color:#CFDBE2"/>
</linearGradient>
<path fill="url(#SVGID_2_)" d="M107.962,21.22c-17.289-8.016-43.915-0.431-51.574,4.494c-7.661,4.924-17.509,11.49-24.623,4.924
	c-0.922-0.85-1.57-1.777-2.027-2.764c0.314,5.043,1.479,17.436,5.501,22.732c5.11,6.73,7.289,13.355,7.289,13.355l53.371-0.126
	c0,0,0.477-5.059,1.905-6.1l5.397-5.724c0.754-1.522,3.809-4.762,7.301-7.619c6.295-5.151,14.473-3.359,14.473-3.359
	S130.114,31.491,107.962,21.22z"/>
<linearGradient id="SVGID_3_" gradientUnits="userSpaceOnUse" x1="8.6704" y1="1.8369" x2="39.3353" y2="51.9479">
	<stop  offset="0" style="stop-color:#FFFFFF"/>
	<stop  offset="0.1755" style="stop-color:#F9FBFB"/>
	<stop  offset="0.4012" style="stop-color:#E9EFF1"/>
	<stop  offset="0.6543" style="stop-color:#CFDBE0"/>
	<stop  offset="0.9256" style="stop-color:#AAC0C8"/>
	<stop  offset="1" style="stop-color:#9FB7C1"/>
</linearGradient>
<path fill="url(#SVGID_3_)" d="M29.738,27.874c-0.005-0.01-0.011-0.02-0.015-0.029c-3.039-6.628,2.585-16.007-6.712-24.018
	c-6.864-5.913-19.918,6.658-19.918,6.658s9.67,11.122,11.711,17.418c5.691,17.558,13.131,22.98,13.131,22.98
	c0.269,0.036,3.827,6.017,4.161,8.936c0.476,4.167,0.476,4.167,0.476,4.167l9.956-0.023c0,0-2.179-6.625-7.289-13.355
	C31.218,45.309,30.052,32.917,29.738,27.874z"/>
<path fill="#B0C2CC" d="M20.083,12.089c2.604-1.567,5.629-2.912,8.621-2.933l0,0c0.027,0,0.079,0,0.152,0.003l0,0l-0.09,2.241
	c0,0-0.021,0-0.062,0l0,0c-2.342-0.036-5.137,1.206-7.604,2.698"/>
<path fill="#B0C2CC" d="M31.365,15.805l0.097-2.335c-0.076-0.002-0.129-0.002-0.156-0.002c-3.791,0.026-7.62,2.147-10.61,4.178
	c-2.979,2.046-5.077,4.068-5.107,4.096l0.862,2.252l0.759-0.57c0.002,0,0.485-0.466,1.339-1.191
	c2.53-2.201,8.429-6.497,12.757-6.427C31.35,15.805,31.365,15.805,31.365,15.805z"/>
<path fill="#B0C2CC" d="M32.309,21.432l0.099-2.612c-0.078-0.003-0.129-0.001-0.15-0.001c-3.576,0.028-7.119,2.005-9.887,3.883
	c-2.754,1.892-4.692,3.757-4.724,3.789l0.746,2.738c0.001,0,1.506-1.279,2.287-1.942c2.305-2.016,7.732-5.93,11.579-5.854
	C32.301,21.432,32.309,21.432,32.309,21.432z"/>
<path fill="#B0C2CC" d="M29.759,24.643c-1.937,0.755-3.759,1.854-5.332,2.92c-2.755,1.892-4.692,3.758-4.724,3.79l1.014,2.363
	c0.002,0,1.237-0.905,2.019-1.567c1.466-1.282,4.198-3.325,6.981-4.627c-0.068-1.154-0.087-1.846-0.087-1.846L29.759,24.643z"/>
<path fill="#B0C2CC" d="M30.593,24.342c-0.28,0.093-0.559,0.193-0.834,0.301l-0.129,1.033c0,0,0.02,0.691,0.087,1.846
	c0.521-0.244,1.042-0.47,1.558-0.652L30.593,24.342z"/>
<path fill="#B0C2CC" d="M29.138,33.726c0.311-0.186,0.641-0.376,0.991-0.571L29.91,30.63c-0.755,0.382-1.191,0.607-1.633,0.87
	L29.138,33.726z"/>
<path fill="#B0C2CC" d="M30.574,36c0.11,0.748,0.231,1.509,0.367,2.276l-0.27-2.339C30.637,35.958,30.608,35.979,30.574,36z"/>
<path fill="#ABBCC4" d="M29.483,36.716c-2.979,2.046-5.465,4.45-5.494,4.479l1.25,1.87l0.758-0.57c0.002,0,0.485-0.466,1.34-1.191
	c0.875-0.762,2.156-1.775,3.634-2.771l-0.029-0.257c-0.136-0.767-0.299-1.475-0.408-2.222C30.16,36.291,29.835,36.477,29.483,36.716
	z"/>
<path fill="#A2B4BC" d="M31.158,41.773c-2.754,1.892-4.333,3.41-4.364,3.441l1.682,2.056c0.001,0,0.21-0.25,0.991-0.913
	c0.665-0.581,1.647-1.417,2.718-2.172l-0.609-2.691C31.435,41.587,31.295,41.681,31.158,41.773z"/>
<path fill="#B0C2CC" d="M30.454,49.022l1.294,2.176c0.002,0,0.958-0.717,1.739-1.38c0.163-0.143,0.593-0.61,0.786-0.77l-1.277-2.204
	C31.452,48.061,30.477,49,30.454,49.022z"/>
<polygon fill="#8E9FA5" points="34.241,56.963 34.74,59.332 40.443,58.91 39.026,56.601 "/>
<polygon fill="#8E9FA5" points="35.363,61.575 35.363,63.694 43.092,63.694 41.721,61.451 "/>
<path fill="#C6D4DB" d="M111.801,37.955c-2.449-2.241-5.957-4.609-10.965-7.003c-5.055-2.412-10.883-3.319-16.71-3.322
	c-12.694,0.024-25.328,4.252-30.313,7.524c-4.761,3.186-10.446,7.177-15.092,6.882c-2.952-0.187-6.094-2.116-7.814-3.74l0.748,3.086
	c0,0,3.085,2.617,7.027,2.899c0.013,0.001,0.026,0,0.039,0c5.706-0.042,11.485-4.102,16.271-7.241
	c4.37-2.926,16.957-7.192,29.135-7.166c5.607-0.001,11.139,0.886,15.794,3.112c4.863,2.325,7.49,3.91,9.734,5.965l2.148-0.994
	L111.801,37.955z"/>
<path fill="#C6D4DB" d="M96.023,36.033c-4.582-2.188-9.86-3.007-15.131-3.01c-11.487,0.026-22.898,3.839-27.429,6.812
	c-4.299,2.879-9.418,6.16-13.571,6.197c-2.722,0.024-6.141-0.679-7.676-2.126l0.842,2.524c0,0,2.618,1.496,6.795,1.846
	c0.013,0,0.026,0,0.039,0c5.202-0.042,10.426-3.722,14.748-6.554c3.917-2.626,15.281-6.48,26.252-6.454
	c5.052-0.001,10.031,0.798,14.216,2.802c4.386,2.094,7.085,3.895,9.103,5.743l1.74-1.438
	C103.729,40.342,100.555,38.198,96.023,36.033z"/>
<path fill="#C6D4DB" d="M91.559,41.466c-4.109-1.829-8.834-2.513-13.55-2.515c-10.279,0.023-20.465,3.197-24.54,5.688
	c-3.836,2.399-8.399,5.182-12.052,5.144c-1.574-0.009-6.26-0.14-7.612-1.328l1.683,2.442c0,0,2.523,1.314,5.883,0.966
	c0.015,0,0.03,0,0.046,0c4.695-0.04,9.363-3.119,13.222-5.475c3.464-2.17,13.604-5.381,23.37-5.358
	c4.499-0.001,8.928,0.665,12.641,2.324c3.907,1.741,7.004,4.121,8.793,5.649l1.487-1.734v-0.346
	C98.936,45.221,95.61,43.274,91.559,41.466z"/>
<path fill="#C6D4DB" d="M38.228,55.028c-0.436-0.723-0.906-1.462-1.415-2.216C36.813,52.812,37.742,54.822,38.228,55.028z"/>
<path fill="#C6D4DB" d="M53.767,49.143c-3.512,2.169-7.69,4.686-11.036,4.65c-1.441-0.008-5.071-0.217-6.309-1.291l0.391,0.54
	c0.509,0.694,0.95,1.379,1.385,2.044c0.884,0.345,2.507,0.792,4.492,0.589c0.014,0,0.027,0,0.041,0
	c4.3-0.035,8.574-2.819,12.106-4.95c3.173-1.961,12.457-4.866,21.399-4.845v-1.88C66.825,44.02,57.498,46.89,53.767,49.143z"/>
<path fill="#C6D4DB" d="M40.331,58.843c-0.38-0.763-0.818-1.588-1.304-2.451C39.026,56.392,39.988,58.688,40.331,58.843z"/>
<path fill="#BFCCD1" d="M86.65,50.783c-3.444-1.534-7.405-2.108-11.358-2.109c-8.617,0.018-17.156,2.681-20.57,4.771
	c-3.216,2.014-7.04,4.347-10.103,4.315c-1.319-0.008-4.518-0.311-5.651-1.308l0.058,0.148c0.486,0.806,1.037,1.597,1.417,2.309
	c0.766,0.324,2.192,0.797,4.139,0.595c0.012,0,0.024,0,0.038,0c3.936-0.033,7.827-2.498,11.062-4.474
	c2.904-1.82,11.539-4.32,19.726-4.301c3.771-0.001,7.452,0.572,10.564,1.963c3.275,1.461,6.101,4.088,7.601,5.371l0.814-2.278
	C92.714,54.358,90.046,52.3,86.65,50.783z"/>
<path fill="#ABBCC4" d="M85.076,55.702c-3.152-1.259-6.778-1.73-10.395-1.73c-7.886,0.016-15.701,2.2-18.826,3.914
	c-2.942,1.652-6.443,3.566-9.247,3.539c-1.207-0.006-4.349-0.095-5.386-0.912l1.122,1.935c0,0,1.536,0.862,4.113,0.623
	c0.012,0,0.487,0,0.499,0c3.602-0.027,7.013-1.994,9.972-3.615c2.658-1.493,10.458-3.381,17.95-3.366
	c3.451-0.001,6.749,0.354,9.598,1.496c2.997,1.199,5.801,3.447,7.105,4.737l0.998-2.005C91.049,59.146,88.184,56.945,85.076,55.702z
	"/>
<path fill="#A1B1B7" d="M52.909,63.981c1.333-0.5,2.668-1.114,3.898-1.686c2.916-1.326,10.207-3.015,17.564-3.026
	c3.375,0,6.758,0.365,9.699,1.338c2.618,0.868,5.05,2.338,6.548,3.282l-3.836,0.055c-1.309-0.836-2.294-1.225-3.864-1.746
	c-2.659-0.882-5.381-1.123-8.601-1.122c-6.991-0.012-13.039,1.338-15.52,2.493c-0.495,0.225-0.53,0.198-1.06,0.436L52.909,63.981z"
	/>
<circle fill="#C6D4DB" cx="77.932" cy="45.496" r="0.684"/>
<path fill="#4A5D75" d="M24.837,59.507l0,0.823l16.208,0.007c-0.123-0.265-0.25-0.538-0.388-0.824L24.837,59.507z"/>
<path fill="#4A5D75" d="M109.734,59.543l-69.077-0.03c0.137,0.286,0.265,0.559,0.388,0.824l68.689,0.029V59.543z"/>
<rect x="53.593" y="58.204" fill="#4A5D75" width="6.542" height="3.292"/>
<rect x="69.186" y="58.21" fill="#4A5D75" width="6.543" height="3.292"/>
<path fill="#4A5D75" d="M33.942,108.545c-0.24-0.396-0.33-0.841-0.329-1.225l0,0c0.044-1.214,0.612-2.073,1.332-3.057l0,0
	c0.741-0.959,1.73-1.947,2.863-2.869l0,0c1-0.854,1.981-1.572,2.884-2.104l0,0c0.926-0.519,1.676-0.909,2.689-0.942l0,0
	c0.502-0.033,1.359,0.228,1.783,0.936l0,0c0.273,0.431,0.339,0.867,0.339,1.225l0,0c-0.035,1.097-0.484,1.966-1.109,3.006l0,0
	c-0.638,1.016-1.512,2.098-2.575,3.131l0,0l-1.042-1.073l1.014,1.098c-1.99,1.775-3.863,2.896-5.722,2.966l0,0
	c-0.019,0.001-0.037,0.001-0.056,0.001l0,0C35.359,109.637,34.478,109.372,33.942,108.545L33.942,108.545z M39.726,103.69
	c-0.948,0.77-1.751,1.572-2.304,2.263l0,0c-0.098,0.118-0.186,0.234-0.267,0.345l0,0c0.726-0.347,1.694-0.949,2.581-1.799l0,0
	l0-0.001c0.793-0.763,1.464-1.584,1.946-2.299l0,0C41.093,102.587,40.424,103.093,39.726,103.69L39.726,103.69z"/>
<path fill="#4A5D75" d="M36.396,110.279h-0.008c-0.035,0-0.055-0.001-0.061-0.001l0,0l0,0c-0.632-0.005-1.335-0.166-1.927-0.696l0,0
	l0.715-0.785c-0.002-0.001-0.004-0.003-0.005-0.005l0,0l-0.73,0.772c-0.581-0.535-0.821-1.323-0.809-1.952l0,0
	c0.006-0.703,0.205-1.312,0.465-1.9l0,0c0.611-1.348,1.667-2.75,3.011-4.13l0,0c0.974-1.011,1.938-1.911,2.891-2.608l0,0
	c0.958-0.683,1.877-1.223,3.025-1.325l0,0v-0.001c0.021-0.002,0.068-0.005,0.143-0.005l0,0c0.539,0,1.16,0.165,1.664,0.667l0,0
	c0.568,0.577,0.731,1.335,0.724,1.914l0,0c-0.004,0.69-0.17,1.295-0.375,1.928l0,0c-0.29,0.833-0.727,1.721-1.297,2.621l0,0
	l0.147,0.062l-1.291,1.542l-0.681,0.851l-0.065-0.027c-1.651,1.723-3.461,2.942-5.474,3.078l0,0l-0.026,0.001H36.396L36.396,110.279
	z M39.094,104.8c0.185-0.188,0.369-0.392,0.548-0.606l0,0l0.009-0.012c0.001-0.001,0.002-0.002,0.003-0.004l0,0
	C39.457,104.387,39.27,104.594,39.094,104.8L39.094,104.8z M39.791,104.009c0.009-0.012,0.018-0.023,0.027-0.035l0,0l-0.488-0.446
	c-0.006,0.006-0.011,0.011-0.017,0.016l0,0L39.791,104.009L39.791,104.009z"/>
<path fill="#4A5D75" d="M40.222,113.013c-0.979-0.548-1.372-1.665-1.342-2.525l0,0c0.04-1.738,0.944-3.479,2.312-5.256l0,0
	c0.867-1.151,1.792-2.139,2.704-2.883l0,0c0.935-0.722,1.756-1.307,2.98-1.358l0,0c0.347-0.001,0.772,0.077,1.121,0.284l0,0
	c1.111,0.657,1.287,1.748,1.294,2.589l0,0c-0.019,1.545-0.632,3.315-1.716,5.161l0,0l-1.285-0.764l1.268,0.794
	c-0.778,1.239-1.71,2.265-2.692,3.022l0,0c-0.992,0.742-2.012,1.274-3.213,1.296l0,0c-0.004,0-0.007,0-0.011,0l0,0
	C41.184,113.373,40.695,113.273,40.222,113.013L40.222,113.013z M45.784,104.667c-0.669,0.543-1.463,1.378-2.222,2.39l0,0
	c-1.068,1.31-1.634,2.693-1.689,3.29l0,0c0.263-0.078,0.707-0.276,1.171-0.645l0,0c0.662-0.505,1.386-1.287,1.978-2.236l0,0h0
	c0.716-1.188,1.125-2.394,1.241-3.157l0,0C46.117,104.407,45.955,104.527,45.784,104.667L45.784,104.667z"/>
<path fill="#4A5D75" d="M41.546,113.78c-0.034,0-0.059-0.001-0.076-0.001l0,0c-0.537-0.006-1.088-0.119-1.6-0.403l0,0l0.483-0.872
	c-0.004-0.003-0.008-0.005-0.012-0.008l0,0l-0.509,0.858c-1.034-0.582-1.5-1.782-1.463-2.722l0,0
	c0.001-0.678,0.154-1.321,0.379-1.954l0,0c0.427-1.184,1.144-2.407,2.086-3.607l0,0c0.894-1.149,1.824-2.173,2.796-2.972l0,0
	c0.975-0.784,1.99-1.407,3.228-1.509l0,0c0.085-0.008,0.133-0.006,0.143-0.006l0,0c0.423,0.001,0.879,0.084,1.359,0.361l0,0
	c1.094,0.673,1.4,1.893,1.38,2.806l0,0c-0.001,0.651-0.114,1.288-0.275,1.961l0,0c-0.282,1.084-0.773,2.252-1.491,3.451l0,0
	c-1.558,2.41-3.631,4.351-6.198,4.599l0,0l-0.101,0.018H41.546L41.546,113.78z M43.94,107.19c-0.683,0.87-1.165,1.75-1.401,2.409
	l0,0c0.085-0.059,0.173-0.123,0.264-0.194l0,0c0.586-0.455,1.26-1.167,1.794-2.029l0,0c0.43-0.707,0.75-1.407,0.959-2.019l0,0
	c-0.513,0.477-1.077,1.093-1.587,1.794l0,0l-0.612-0.445c-0.005,0.006-0.01,0.012-0.015,0.018l0,0L43.94,107.19L43.94,107.19z"/>
<path fill="#4A5D75" d="M47.404,116.058c-0.733-0.232-1.354-0.785-1.687-1.416l0,0c-0.341-0.632-0.459-1.311-0.461-1.99l0,0
	c0.009-1.416,0.502-2.929,1.354-4.419l0,0c0.725-1.32,1.573-2.464,2.471-3.331l0,0c0.916-0.843,1.819-1.538,3.142-1.587l0,0
	c0.242,0,0.518,0.032,0.77,0.118l0,0c0.855,0.265,1.41,0.952,1.682,1.598l0,0c0.283,0.663,0.379,1.364,0.383,2.112l0,0
	c-0.001,1.192-0.269,2.521-0.794,3.9l0,0l-1.397-0.535l1.387,0.561c-0.578,1.423-1.412,2.644-2.384,3.56l0,0
	c-0.977,0.899-2.098,1.568-3.444,1.588l0,0c-0.005,0-0.01,0-0.015,0l0,0C48.078,116.216,47.745,116.166,47.404,116.058
	L47.404,116.058z M48.425,113.225c0.178,0.021,0.782-0.187,1.397-0.78l0,0c0.618-0.576,1.242-1.464,1.658-2.499l0,0l0,0
	c0.407-1.064,0.587-2.078,0.586-2.803l0,0c0.002-0.309-0.035-0.562-0.076-0.732l0,0c-0.008,0.004-0.016,0.008-0.023,0.013l0,0
	c-0.209,0.117-0.499,0.332-0.81,0.634l0,0c-0.625,0.6-1.332,1.526-1.937,2.639l0,0c-0.677,1.159-0.98,2.293-0.973,2.956l0,0
	c0,0.319,0.066,0.507,0.095,0.555l0,0c0,0,0.002,0.009-0.011,0.006l0,0C48.354,113.22,48.384,113.225,48.425,113.225L48.425,113.225
	z"/>
<path fill="#4A5D75" d="M48.372,116.622c-0.032,0-0.052,0-0.059-0.001l0,0l0,0c-0.388-0.002-0.782-0.054-1.17-0.176l0,0l0.273-0.868
	l-0.273,0.868l-0.04-0.014l-0.017-0.006c-0.78-0.27-1.452-0.832-1.83-1.512l0,0c-0.386-0.678-0.513-1.412-0.513-2.118l0,0
	c0-0.599,0.09-1.195,0.243-1.8l0,0c0.244-0.943,0.651-1.923,1.207-2.886l0,0c0.751-1.312,1.596-2.497,2.554-3.431l0,0
	c0.958-0.918,2.056-1.657,3.466-1.77l0,0c0.018,0,0.058-0.001,0.116-0.001l0,0c0.29,0,0.596,0.04,0.908,0.143l0,0l0.042,0.015
	l0.009,0.004c0.856,0.307,1.502,1.014,1.812,1.741l0,0c0.322,0.733,0.414,1.492,0.417,2.267l0,0c0,0.513-0.046,1.032-0.124,1.59l0,0
	c-0.035,0.223-0.079,0.448-0.129,0.674l0,0l0.179,0.026l-0.728,1.774c-0.002,0.005-0.004,0.011-0.007,0.016l0,0l-0.402,1.063
	l-0.093-0.014c-1.229,2.329-3.152,4.215-5.763,4.413l0,0l-0.034,0.001H48.372L48.372,116.622z M49.659,109.78
	c-0.389,0.689-0.653,1.366-0.793,1.943l0,0c-0.082,0.319-0.113,0.594-0.113,0.806l0,0c0,0.077,0.003,0.146,0.009,0.202l0,0
	c0.004-0.002,0.009-0.005,0.013-0.008l0,0c0.189-0.103,0.454-0.293,0.727-0.556l0,0c0.55-0.523,1.137-1.332,1.508-2.276l0,0
	c0.238-0.604,0.4-1.185,0.493-1.72l0,0c0.067-0.351,0.093-0.67,0.093-0.939l0,0c0-0.017,0-0.031,0-0.046l0,0
	c-0.057,0.054-0.116,0.109-0.176,0.167l0,0c-0.567,0.556-1.226,1.402-1.741,2.388l0,0l-0.748-0.39
	c-0.003,0.005-0.006,0.011-0.01,0.016l0,0L49.659,109.78L49.659,109.78z"/>
<path fill="#4A5D75" d="M56.043,117.998c-1.072-0.14-1.984-0.836-2.469-1.679l0,0c-0.503-0.847-0.695-1.813-0.698-2.831l0,0
	c0-0.971,0.183-1.998,0.538-3.014l0,0c0.497-1.493,1.198-2.804,2.034-3.821l0,0c0.844-0.979,1.804-1.826,3.246-1.876l0,0
	c0.106,0,0.25,0.005,0.37,0.025l0,0c1.252,0.183,2.039,1.108,2.456,2.021l0,0c0.434,0.945,0.624,2.043,0.628,3.254l0,0
	c0,0.606-0.052,1.239-0.156,1.89l0,0l-1.477-0.239l1.474,0.257c-0.281,1.593-0.927,3.016-1.828,4.112l0,0
	c-0.896,1.076-2.108,1.919-3.606,1.936l0,0C56.382,118.033,56.22,118.021,56.043,117.998L56.043,117.998z M58.473,107.883
	c-0.188,0.12-0.45,0.351-0.718,0.679l0,0c-0.544,0.653-1.114,1.679-1.508,2.877l0,0c-0.264,0.749-0.38,1.463-0.378,2.05l0,0
	c-0.005,0.614,0.135,1.073,0.271,1.292l0,0c0.152,0.22,0.183,0.221,0.306,0.254l0,0c0.046,0.007,0.084,0.008,0.11,0.008l0,0
	c0.231,0.017,0.766-0.197,1.299-0.851l0,0c0.525-0.63,0.993-1.605,1.184-2.704l0,0l0,0c0.081-0.498,0.118-0.974,0.118-1.409l0,0
	c0.031-1.188-0.344-2.078-0.515-2.286l0,0C58.6,107.81,58.542,107.837,58.473,107.883L58.473,107.883z"/>
<path fill="#4A5D75" d="M56.548,118.441c-0.035,0-0.055-0.002-0.061-0.002l0,0l0,0c-0.208-0.001-0.397-0.018-0.563-0.037l0,0
	l0.102-0.825l-0.102,0.825l-0.046-0.006l-0.032-0.007c-1.167-0.189-2.177-0.896-2.727-1.811l0,0
	c-0.562-0.911-0.75-1.939-0.753-2.971l0,0c0-0.408,0.031-0.821,0.092-1.251l0,0c0.096-0.644,0.26-1.302,0.497-1.97l0,0
	c0.525-1.478,1.211-2.835,2.1-3.926l0,0c0.881-1.071,2.043-1.964,3.58-2.088l0,0c0.017,0,0.056-0.003,0.118-0.003l0,0
	c0.123,0,0.277,0.005,0.517,0.044l0,0c1.321,0.246,2.279,1.25,2.727,2.303l0,0c0.473,1.065,0.625,2.253,0.63,3.505l0,0
	c0,0.04,0,0.079,0,0.119l0,0l0.157,0.009l-0.301,1.648l-0.207,1.314l-0.112-0.006c-0.339,1.095-0.849,2.109-1.542,2.966l0,0
	c-0.945,1.179-2.333,2.072-3.983,2.165l0,0l-0.039,0.003H56.548L56.548,118.441z M56.73,111.475l-0.006,0.019
	c-0.15,0.438-0.25,0.866-0.308,1.29l0,0c-0.032,0.225-0.048,0.432-0.048,0.624l0,0c0,0.422,0.073,0.761,0.16,0.98l0,0
	c0.048,0.123,0.094,0.2,0.127,0.245l0,0c0.034-0.013,0.091-0.042,0.162-0.087l0,0c0.169-0.108,0.409-0.318,0.644-0.607l0,0
	c0.475-0.581,0.923-1.474,1.089-2.503l0,0c0.052-0.292,0.085-0.581,0.105-0.89l0,0c0.016-0.18,0.022-0.354,0.023-0.525l0,0
	c0.004-0.652-0.115-1.209-0.246-1.573l0,0c-0.108,0.108-0.228,0.239-0.348,0.39l0,0c-0.492,0.608-1.021,1.539-1.344,2.604l0,0
	L56.73,111.475L56.73,111.475z"/>
<path fill="#4A5D75" d="M62.156,116.634c-0.694-1.086-1.025-2.423-1.029-3.868l0,0c0-0.356,0.021-0.722,0.064-1.075l0,0
	c0.178-1.626,0.644-3.089,1.342-4.254l0,0c0.676-1.096,1.615-2.112,3.101-2.235l0,0V105.2c0.009,0,0.059-0.008,0.166-0.008l0,0
	c1.553,0.041,2.544,1.098,3.184,2.22l0,0c0.651,1.163,1.044,2.618,1.143,4.236l0,0l-1.492,0.09l-1.494,0.089
	c-0.062-1.071-0.312-2.024-0.627-2.682l0,0c-0.268-0.592-0.604-0.895-0.708-0.953l0,0c-0.028,0.012-0.076,0.038-0.14,0.089l0,0
	c-0.146,0.112-0.363,0.352-0.569,0.697l0,0c-0.422,0.695-0.8,1.798-0.932,3.052l0,0c-0.031,0.249-0.045,0.496-0.045,0.735l0,0
	c-0.003,0.969,0.245,1.784,0.551,2.246l0,0c0.328,0.472,0.546,0.55,0.793,0.561l0,0c0.003,0,0.007,0,0.011,0l0,0
	c0.267-0.003,0.618-0.157,1.016-0.759l0,0c0.378-0.586,0.667-1.536,0.663-2.602l0,0c0-0.129-0.004-0.256-0.011-0.385l0,0
	l1.494-0.089l1.492-0.09c0.011,0.19,0.017,0.379,0.017,0.563l0,0c-0.005,1.575-0.389,3.035-1.133,4.211l0,0
	c-0.726,1.158-1.947,2.112-3.508,2.142l0,0c-0.016,0-0.029,0-0.04,0l0,0c-0.008,0-0.016,0-0.023,0l0,0
	C64.016,118.564,62.824,117.703,62.156,116.634L62.156,116.634z"/>
<path fill="#4A5D75" d="M65.468,118.969c-1.625-0.015-3.025-0.911-3.773-2.109l0,0c-0.771-1.198-1.064-2.626-1.069-4.089l0,0
	c0-0.07,0-0.153,0.003-0.251l0,0c0.011-0.285,0.033-0.576,0.068-0.859l0,0c0.199-1.677,0.702-3.192,1.44-4.402l0,0
	c0.681-1.141,1.801-2.379,3.574-2.468l0,0l0,0.002c0.019-0.001,0.04-0.004,0.061-0.005l0,0c1.805,0.017,2.965,1.287,3.597,2.422l0,0
	c0.501,0.866,0.864,1.881,1.074,2.995l0,0l0.08-0.002l0.094,1.34l0,0.005l0.002,0.043l0.002,0.034c0,0.005,0,0.01,0,0.015l0,0
	l0.102,1.547l-0.136,0.003c-0.095,0.992-0.336,1.943-0.757,2.81l0,0c-0.208,0.43-0.468,0.842-0.782,1.215l0,0l2.314,1.65
	l-5.833,0.105l-0.029,0.001L65.468,118.969L65.468,118.969z M65.489,115.164l-0.001-0.003c0.021-0.008,0.068-0.028,0.13-0.071l0,0
	c0.124-0.084,0.307-0.264,0.476-0.546l0,0c0.308-0.517,0.56-1.399,0.556-2.372l0,0c0-0.098-0.003-0.201-0.007-0.304l0,0
	c-0.008-0.06-0.006-0.085-0.002-0.098l0,0c0-0.003,0-0.008,0-0.011l0,0c-0.064-1.14-0.379-2.147-0.719-2.732l0,0
	c-0.05-0.091-0.099-0.169-0.145-0.233l0,0c-0.071,0.09-0.15,0.202-0.229,0.339l0,0l-0.774-0.448
	c-0.002,0.003-0.004,0.006-0.006,0.01l0,0l0.767,0.463c-0.385,0.628-0.756,1.688-0.874,2.871l0,0
	c-0.02,0.191-0.032,0.381-0.037,0.567l0,0c-0.001,0.047-0.003,0.092-0.003,0.125l0,0c-0.005,0.91,0.232,1.685,0.476,2.06l0,0
	c0.18,0.279,0.323,0.365,0.366,0.384l0,0H65.489L65.489,115.164z M70.626,111.69L70.626,111.69L70.626,111.69L70.626,111.69z
	 M65.539,108.529L65.539,108.529C65.54,108.528,65.54,108.528,65.539,108.529L65.539,108.529z"/>
<path fill="#4A5D75" d="M74.396,117.709c-1.477-0.009-2.674-0.854-3.502-1.932l0,0c-0.838-1.093-1.389-2.501-1.578-4.077l0,0
	c-0.054-0.463-0.079-0.92-0.079-1.363l0,0c0.003-1.328,0.22-2.538,0.68-3.565l0,0c0.453-0.995,1.215-1.979,2.519-2.229l0,0
	c0.16-0.029,0.324-0.045,0.487-0.045l0,0c1.419,0.044,2.381,0.885,3.177,1.856l0,0c0.793,1,1.427,2.291,1.849,3.765l0,0l0,0
	c0.257,0.879,0.385,1.75,0.385,2.583l0,0c-0.003,1.113-0.222,2.167-0.74,3.077l0,0c-0.504,0.904-1.413,1.677-2.566,1.877l0,0
	c-0.206,0.036-0.409,0.054-0.607,0.054l0,0C74.413,117.709,74.404,117.709,74.396,117.709L74.396,117.709z M72.95,107.519
	c-0.069,0.066-0.193,0.229-0.307,0.485l0,0c-0.234,0.508-0.419,1.355-0.416,2.333l0,0c0,0.327,0.021,0.668,0.059,1.016l0,0
	c0.124,1.077,0.521,2.012,0.978,2.601l0,0c0.467,0.603,0.911,0.776,1.132,0.766l0,0c0.041,0,0.079-0.003,0.106-0.008l0,0
	c0.173-0.042,0.297-0.101,0.498-0.424l0,0c0.187-0.315,0.344-0.883,0.341-1.586l0,0c0-0.531-0.082-1.132-0.267-1.75l0,0l1.435-0.424
	l-1.439,0.408c-0.279-0.994-0.7-1.864-1.13-2.478l0,0c-0.395-0.58-0.823-0.896-0.975-0.953l0,0
	C72.96,107.509,72.955,107.514,72.95,107.519L72.95,107.519z"/>
<path fill="#4A5D75" d="M74.47,118.114h-0.019c-1.668-0.03-3.088-0.921-3.989-2.112l0,0c-0.919-1.196-1.44-2.688-1.64-4.269l0,0
	l0.978-0.123c0-0.004,0-0.007-0.001-0.009l0,0l-0.981,0.101c-0.009-0.099-0.02-0.202-0.031-0.306l0,0l-0.003-0.032l-0.002-0.027
	c-0.019-0.297-0.028-0.594-0.028-0.887l0,0c0.004-1.369,0.189-2.661,0.69-3.8l0,0c0.48-1.117,1.42-2.172,2.788-2.487l0,0
	l0.026-0.007l0.022-0.004c0.175-0.037,0.358-0.058,0.544-0.06l0,0l0.052-0.001l0.036,0.001c1.511,0.073,2.704,0.962,3.554,2.03l0,0
	c0.63,0.795,1.136,1.729,1.541,2.75l0,0l0.06-0.006l0.355,1.184c0.002,0.006,0.003,0.011,0.005,0.018l0,0l0.532,1.715l-0.181,0.019
	c0.038,0.344,0.057,0.686,0.057,1.024l0,0c-0.001,1.125-0.21,2.23-0.787,3.204l0,0c-0.565,0.974-1.581,1.757-2.806,2.008l0,0
	l-0.028,0.005l-0.034,0.008c-0.218,0.037-0.439,0.06-0.67,0.063l0,0H74.47L74.47,118.114z M74.343,114.311l-0.001,0.003h0.001
	c0.003,0,0.006,0,0.01,0l0,0c0.036-0.035,0.1-0.108,0.166-0.228l0,0c0.164-0.287,0.324-0.824,0.321-1.479l0,0
	c0-0.261-0.023-0.541-0.077-0.856l0,0c-0.037-0.221-0.087-0.449-0.151-0.683l0,0l-0.025-0.089l-0.048-0.169
	c-0.301-1.015-0.771-1.888-1.202-2.421l0,0c-0.079-0.102-0.155-0.188-0.225-0.259l0,0c-0.003,0.008-0.007,0.016-0.01,0.022l0,0
	c-0.209,0.453-0.398,1.229-0.396,2.122l0,0c0,0.254,0.014,0.512,0.047,0.807l0,0c0.008,0.083,0.019,0.177,0.025,0.246l0,0
	c0.123,1.036,0.515,1.936,0.911,2.438l0,0C73.99,114.149,74.272,114.294,74.343,114.311L74.343,114.311L74.343,114.311
	L74.343,114.311z"/>
<path fill="#4A5D75" d="M79.254,114.013c-0.919-0.905-1.676-2.104-2.177-3.521l0,0c-0.417-1.235-0.623-2.438-0.625-3.534l0,0
	c0.002-0.825,0.11-1.59,0.401-2.301l0,0c0.284-0.69,0.827-1.415,1.708-1.725l0,0c0.288-0.103,0.588-0.149,0.875-0.149l0,0
	c1.294,0.042,2.2,0.72,3.075,1.545l0,0c0.862,0.848,1.653,1.959,2.311,3.252l0,0H84.82c0.727,1.394,1.126,2.799,1.131,4.117l0,0
	c-0.001,0.739-0.127,1.466-0.475,2.141l0,0c-0.339,0.669-0.959,1.271-1.748,1.552l0,0c-0.375,0.135-0.761,0.193-1.127,0.193l0,0
	C81.277,115.563,80.172,114.902,79.254,114.013L79.254,114.013z M79.443,106.958c-0.002,0.71,0.144,1.624,0.46,2.556l0,0
	c0.348,0.99,0.895,1.826,1.443,2.363l0,0c0.551,0.55,1.078,0.73,1.254,0.713l0,0c0.062,0,0.095-0.009,0.107-0.012l0,0
	c0.048-0.026,0.043-0.006,0.113-0.123l0,0c0.062-0.112,0.139-0.375,0.138-0.758l0,0c0.005-0.686-0.245-1.707-0.796-2.741l0,0
	l1.322-0.699l-1.333,0.676c-0.782-1.642-2.027-2.849-2.546-3.1l0,0C79.523,106.038,79.44,106.443,79.443,106.958L79.443,106.958z"/>
<path fill="#4A5D75" d="M82.705,115.984c-1.5-0.026-2.818-0.738-3.817-1.723l0,0c-1.01-0.99-1.766-2.271-2.281-3.707l0,0
	c-0.187-0.542-0.323-1.077-0.425-1.615l0,0c-0.124-0.703-0.195-1.394-0.197-2.061l0,0c0.003-0.848,0.108-1.666,0.44-2.441l0,0
	c0.321-0.766,0.958-1.509,1.845-1.859l0,0l0.04-0.018l0.018-0.006c0.318-0.112,0.648-0.17,0.991-0.17l0,0h0.029h0.021
	c1.383,0.06,2.508,0.784,3.442,1.689l0,0c0.941,0.92,1.743,2.094,2.438,3.394l0,0l1.926,3.613l-0.794-0.318
	c0.055,0.358,0.084,0.716,0.085,1.073l0,0c0.055,1.486-0.691,3.255-2.4,3.905l0,0l-0.019,0.006l-0.036,0.016
	c-0.375,0.131-0.767,0.205-1.168,0.219l0,0l-0.052,0.005L82.705,115.984L82.705,115.984z M79.915,107.044
	c0,0.379,0.043,0.817,0.155,1.317l0,0c0.071,0.353,0.172,0.721,0.308,1.104l0,0c0.448,1.44,1.569,2.478,1.997,2.688l0,0
	c0.039-0.121,0.08-0.323,0.078-0.583l0,0c0-0.298-0.048-0.669-0.172-1.104l0,0c-0.086-0.317-0.208-0.662-0.366-1.016l0,0
	l-0.22-0.456c0-0.002-0.001-0.004-0.002-0.006l0,0l-0.314-0.611c-0.452-0.778-1.02-1.417-1.439-1.809l0,0
	C79.923,106.712,79.914,106.872,79.915,107.044L79.915,107.044z"/>
<path fill="#4A5D75" d="M89.481,112.464c-1.177-0.019-2.182-0.539-3.125-1.267l0,0c-0.936-0.739-1.801-1.738-2.52-2.965l0,0
	c-0.958-1.737-1.488-3.428-1.5-4.91l0,0c0.014-0.919,0.184-2.042,1.298-2.734l0,0c0.391-0.234,0.833-0.328,1.218-0.326l0,0
	c1.186,0.041,2.018,0.6,2.915,1.298l0,0c0.873,0.71,1.74,1.65,2.542,2.754l0,0l0,0c1.258,1.699,2.049,3.396,2.077,5.062l0,0
	c0.023,0.926-0.361,2.071-1.395,2.693l0,0c-0.476,0.279-1.008,0.396-1.501,0.396l0,0C89.487,112.464,89.484,112.464,89.481,112.464
	L89.481,112.464z M86.434,106.747c0.522,0.897,1.173,1.63,1.772,2.099l0,0c0.501,0.407,0.973,0.586,1.186,0.62l0,0
	c0.002-0.025,0.003-0.056,0.002-0.091l0,0c0.03-0.562-0.455-1.946-1.471-3.256l0,0l1.194-0.901l-1.214,0.875
	c-0.628-0.872-1.308-1.611-1.903-2.113l0,0c-0.239-0.212-0.473-0.375-0.667-0.492l0,0C85.371,104.229,85.731,105.51,86.434,106.747
	L86.434,106.747z"/>
<path fill="#4A5D75" d="M83.42,108.352l0.729-0.426c-0.001-0.004-0.003-0.008-0.005-0.011l0,0l-0.737,0.414
	c-0.5-0.893-0.875-1.783-1.135-2.658l0,0c-0.232-0.836-0.39-1.648-0.394-2.459l0,0c-0.014-0.991,0.291-2.24,1.456-2.984l0,0
	c0.418-0.246,0.882-0.36,1.339-0.369l0,0h0.031l0.043,0.002c1.26,0.058,2.294,0.661,3.253,1.426l0,0
	c0.958,0.775,1.854,1.778,2.698,2.902l0,0c0.733,0.978,1.31,1.978,1.7,2.968l0,0c0.296,0.768,0.496,1.543,0.498,2.351l0,0
	c0.033,1.008-0.431,2.23-1.509,2.894l0,0c-0.546,0.327-1.133,0.456-1.749,0.467l0,0C86.953,112.768,84.875,110.779,83.42,108.352
	L83.42,108.352z M86.048,104.806c0.173,0.564,0.45,1.208,0.82,1.852l0,0c0.446,0.778,1.001,1.406,1.501,1.825l0,0
	c0.164,0.145,0.327,0.26,0.473,0.35l0,0c-0.037-0.169-0.093-0.367-0.179-0.587l0,0c-0.172-0.454-0.443-0.983-0.8-1.527l0,0
	l-0.334-0.477c-0.001-0.001-0.002-0.003-0.003-0.004l0,0l-0.526-0.708c-0.353-0.428-0.727-0.804-1.064-1.105l0,0
	C85.967,104.546,86.005,104.673,86.048,104.806L86.048,104.806z"/>
<path fill="#4A5D75" d="M95.177,108.57c-1.849-0.068-3.643-1.182-5.521-2.944l0,0c-0.975-1-1.773-2.045-2.353-3.034l0,0
	c-0.569-1.009-0.968-1.887-0.995-2.926l0,0c0.001-0.387,0.068-0.86,0.38-1.323l0,0h0c0.44-0.691,1.27-0.945,1.801-0.92l0,0
	c0.989,0.03,1.741,0.409,2.631,0.912l0,0c0.872,0.513,1.805,1.209,2.748,2.041l0,0h0c1.064,0.902,1.964,1.851,2.635,2.786l0,0
	c0.663,0.957,1.169,1.842,1.202,2.991l0,0c0.001,0.421-0.103,0.905-0.368,1.326l0,0l-0.02,0.031l-0.019,0.026
	c-0.514,0.756-1.388,1.033-2.057,1.033l0,0C95.221,108.57,95.2,108.57,95.177,108.57L95.177,108.57z M91.769,103.508
	c0.896,0.91,1.9,1.525,2.594,1.838l0,0c-0.082-0.138-0.179-0.285-0.29-0.439l0,0c-0.491-0.688-1.249-1.499-2.162-2.268l0,0
	l0.965-1.143l-0.992,1.119c-0.685-0.622-1.393-1.144-1.991-1.521l0,0C90.327,101.835,90.987,102.71,91.769,103.508L91.769,103.508z"
	/>
<path fill="#4A5D75" d="M94.936,109.144c-2.348-0.08-4.369-1.661-6.123-3.779l0,0c-0.907-1.172-1.59-2.371-2.033-3.509l0,0
	c-0.289-0.783-0.518-1.538-0.525-2.375l0,0c-0.008-0.622,0.164-1.412,0.782-2.023l0,0c0.48-0.467,1.095-0.648,1.642-0.656l0,0h0.047
	l0.029,0.001c1.155,0.057,2.095,0.574,3.042,1.229l0,0c0.942,0.668,1.877,1.533,2.805,2.503l0,0
	c1.129,1.175,2.021,2.377,2.599,3.554l0,0c0.336,0.707,0.594,1.426,0.601,2.255l0,0c0.014,0.666-0.233,1.474-0.861,2.074l0,0
	c-0.546,0.491-1.213,0.695-1.85,0.724l0,0l-0.043,0.006L94.936,109.144L94.936,109.144z M91.908,103.244
	c0.355,0.446,0.732,0.831,1.094,1.146l0,0c-0.185-0.266-0.398-0.544-0.635-0.828l0,0l-0.589-0.652
	c-0.011-0.012-0.023-0.025-0.035-0.038l0,0l-0.424-0.446C91.498,102.697,91.695,102.973,91.908,103.244L91.908,103.244z"/>
<path fill="#4A5D75" d="M29.305,119.286c-0.737-0.58-1.113-1.533-1.092-2.367l0,0c0.062-1.924,1.263-3.581,2.98-5.142l0,0
	c0.956-0.879,1.972-1.617,2.968-2.16l0,0c1.005-0.533,1.963-0.909,3.012-0.923l0,0c0.514,0,1.108,0.108,1.608,0.46l0,0
	c0.904,0.596,1.208,1.626,1.193,2.448l0,0c-0.036,1.733-0.936,3.521-2.423,5.27l0,0l-1.129-0.981l1.107,1.005
	c-1.767,1.91-3.898,3.081-5.968,3.118l0,0c-0.003,0-0.006,0-0.009,0l0,0C30.8,120.014,30.005,119.825,29.305,119.286L29.305,119.286
	z M31.562,117.021c0.776,0.038,2.491-0.703,3.752-2.136l0,0l0,0c1.093-1.23,1.637-2.602,1.668-3.184l0,0
	c-0.297,0.054-0.822,0.225-1.394,0.544l0,0c-0.738,0.399-1.583,1.007-2.395,1.755l0,0c-1.418,1.197-2.054,2.581-1.992,2.918l0,0
	c0,0.02,0.001,0.035,0.002,0.045l0,0C31.258,116.987,31.369,117.021,31.562,117.021L31.562,117.021z"/>
<path fill="#4A5D75" d="M31.369,120.42C31.368,120.42,31.368,120.42,31.369,120.42L31.369,120.42
	c-0.884-0.001-1.773-0.214-2.517-0.789l0,0l0.691-0.884c-0.001-0.001-0.003-0.003-0.004-0.004l0,0l-0.707,0.872
	c-0.798-0.626-1.208-1.642-1.186-2.54l0,0c0.001-0.739,0.205-1.432,0.514-2.087l0,0c0.569-1.193,1.497-2.344,2.692-3.41l0,0
	c2.002-1.766,4.139-3.159,6.365-3.291l0,0c0.065-0.003,0.105-0.001,0.12-0.001l0,0c0.601,0.003,1.26,0.117,1.864,0.541l0,0
	c0.941,0.639,1.308,1.756,1.285,2.653l0,0c-0.001,0.717-0.164,1.4-0.406,2.09l0,0c-0.204,0.565-0.479,1.136-0.823,1.703l0,0
	l0.223,0.076l-1.521,1.688c-0.014,0.017-0.028,0.032-0.043,0.048l0,0l-0.596,0.683l-0.061-0.021
	c-1.684,1.577-3.713,2.599-5.772,2.674l0,0l-0.085,0.003L31.369,120.42L31.369,120.42z M31.861,116.615
	c0.512-0.025,1.943-0.627,3.029-1.874l0,0l0.038-0.042c0.661-0.759,1.119-1.546,1.345-2.152l0,0
	c0.037-0.096,0.067-0.187,0.092-0.271l0,0c-0.193,0.078-0.417,0.181-0.648,0.314l0,0c-0.659,0.362-1.436,0.909-2.146,1.57l0,0
	l-0.509-0.547c-0.004,0.003-0.007,0.006-0.01,0.009l0,0l0.5,0.558c-0.829,0.738-1.398,1.511-1.64,2.049l0,0
	c-0.073,0.157-0.113,0.289-0.135,0.384l0,0C31.799,116.612,31.827,116.612,31.861,116.615L31.861,116.615z M36.456,111.646
	L36.456,111.646C36.457,111.646,36.457,111.646,36.456,111.646L36.456,111.646C36.457,111.646,36.457,111.646,36.456,111.646
	L36.456,111.646z"/>
<path fill="#4A5D75" d="M37.057,123.942c-1.306-0.601-2.011-2.014-1.969-3.279l0,0c0.018-1.619,0.78-3.213,2.004-4.676l0,0
	c0.896-1.107,1.919-2.037,2.974-2.724l0,0c1.061-0.677,2.137-1.151,3.326-1.166l0,0c0.408,0,0.852,0.064,1.261,0.24l0,0
	c0.711,0.284,1.269,0.854,1.574,1.479l0,0c0.315,0.625,0.43,1.3,0.433,1.986l0,0c-0.007,1.396-0.483,2.903-1.369,4.396l0,0
	l-1.284-0.766l1.269,0.792c-1.564,2.432-3.942,4.055-6.413,4.105l0,0C38.262,124.332,37.648,124.219,37.057,123.942L37.057,123.942z
	 M41.695,115.772c-0.751,0.485-1.573,1.223-2.298,2.12l0,0c-0.938,1.089-1.335,2.205-1.317,2.771l0,0
	c0.044,0.461,0.067,0.444,0.266,0.578l0,0c0.122,0.06,0.29,0.1,0.517,0.1l0,0c0.952,0.054,2.823-0.971,3.862-2.678l0,0
	c0.667-1.104,0.95-2.184,0.944-2.859l0,0c0.001-0.332-0.065-0.553-0.112-0.64l0,0c-0.025-0.078-0.035-0.05-0.058-0.065l0,0
	c-0.003,0.004-0.011-0.01-0.107-0.01l0,0c-0.009,0-0.019,0-0.029,0l0,0C43.083,115.089,42.412,115.295,41.695,115.772
	L41.695,115.772z"/>
<path fill="#4A5D75" d="M38.795,124.742c-0.023,0-0.045,0-0.067,0l0,0c-0.715-0.002-1.415-0.136-2.058-0.433l0,0l0.428-0.92
	c-0.003-0.002-0.006-0.005-0.01-0.008l0,0l-0.451,0.913c-1.403-0.651-2.175-2.146-2.128-3.491l0,0c0-0.674,0.139-1.338,0.374-1.981
	l0,0c0.37-1.021,0.976-2.032,1.773-2.981l0,0c1.873-2.212,4.16-3.988,6.755-4.148l0,0c0.019-0.002,0.056-0.003,0.113-0.003l0,0
	c0.484,0.001,0.983,0.081,1.485,0.293l0,0c1.585,0.674,2.222,2.346,2.179,3.736l0,0c-0.002,0.61-0.089,1.222-0.24,1.85l0,0
	c-0.071,0.285-0.159,0.571-0.262,0.858l0,0l0.242,0.047l-1.151,1.847c0,0,0,0.001,0,0.001l0,0l-0.523,0.869l-0.077-0.015
	c-1.573,2.034-3.838,3.459-6.336,3.564l0,0l-0.024,0.002H38.795L38.795,124.742z M39.149,120.936c0.57-0.032,2.21-0.891,3.087-2.389
	l0,0l0.041-0.065c0.348-0.585,0.582-1.15,0.714-1.654l0,0c0.099-0.36,0.138-0.677,0.138-0.925l0,0
	c0.001-0.161-0.017-0.29-0.038-0.384l0,0c-0.207,0.057-0.682,0.232-1.173,0.573l0,0c-0.664,0.438-1.417,1.104-2.046,1.898l0,0
	l-0.67-0.532c-0.003,0.004-0.007,0.007-0.01,0.011l0,0l0.659,0.548c-0.525,0.629-0.881,1.268-1.061,1.79l0,0
	c-0.107,0.303-0.146,0.555-0.145,0.729l0,0c0.037,0.39,0.061,0.306,0.106,0.353l0,0c0.05,0.023,0.112,0.043,0.263,0.045l0,0
	c0.009,0,0.02-0.001,0.032-0.001l0,0C39.073,120.932,39.108,120.934,39.149,120.936L39.149,120.936z M43.526,114.683
	C43.526,114.683,43.526,114.683,43.526,114.683L43.526,114.683c-0.001,0-0.001,0-0.001,0l0,0
	C43.525,114.683,43.525,114.683,43.526,114.683L43.526,114.683z"/>
<path fill="#4A5D75" d="M47.18,127.438c-2.046-0.471-3.214-2.436-3.147-4.299l0,0c0.001-1.207,0.365-2.456,1.027-3.633l0,0
	c0.733-1.367,1.695-2.53,2.767-3.396l0,0c1.075-0.852,2.263-1.459,3.607-1.475l0,0c0.252,0,0.523,0.023,0.787,0.085l0,0
	c1.065,0.224,1.917,0.952,2.404,1.814l0,0c0.498,0.868,0.712,1.875,0.713,2.945l0,0c0,0.902-0.158,1.856-0.479,2.826l0,0l-1.42-0.47
	l1.412,0.493c-1.072,2.97-3.604,5.182-6.516,5.246l0,0c-0.006,0-0.012,0-0.018,0l0,0C47.938,127.577,47.563,127.53,47.18,127.438
	L47.18,127.438z M49.701,118.443c-0.722,0.577-1.461,1.456-2.019,2.503l0,0c-0.466,0.821-0.66,1.606-0.657,2.193l0,0
	c0.064,0.948,0.273,1.198,0.868,1.394l0,0c0.145,0.034,0.292,0.052,0.443,0.052l0,0c1.156,0.064,3.037-1.277,3.685-3.219l0,0
	c0.228-0.688,0.327-1.336,0.327-1.885l0,0c0.001-0.654-0.146-1.164-0.313-1.448l0,0c-0.179-0.29-0.296-0.348-0.468-0.393l0,0
	c-0.02-0.005-0.062-0.013-0.132-0.013l0,0c-0.009,0-0.019,0-0.029,0l0,0C51.079,117.628,50.399,117.872,49.701,118.443
	L49.701,118.443z"/>
<path fill="#4A5D75" d="M48.32,127.985c-0.026,0-0.053,0-0.08,0l0,0c-0.458,0-0.904-0.055-1.329-0.157l0,0l0.209-0.872
	c-0.005-0.001-0.01-0.003-0.015-0.005l0,0l-0.232,0.866c-2.242-0.53-3.507-2.614-3.428-4.553l0,0c0-0.522,0.067-1.047,0.193-1.574
	l0,0c0.185-0.767,0.493-1.539,0.916-2.286l0,0c1.53-2.7,3.867-4.974,6.83-5.172l0,0c0.065-0.003,0.106-0.003,0.12-0.003l0,0
	c0.294,0,0.614,0.024,0.974,0.109l0,0c1.168,0.278,2.124,1.061,2.655,2.012l0,0c0.544,0.952,0.747,2.03,0.749,3.139l0,0
	c0,0.364-0.023,0.731-0.068,1.123l0,0c-0.075,0.571-0.208,1.154-0.412,1.763l0,0c-1.049,3.006-3.676,5.453-7.022,5.609l0,0
	l-0.022,0.001H48.32L48.32,127.985z M48.206,121.018c-0.26,0.47-0.431,0.927-0.525,1.345l0,0c-0.06,0.251-0.084,0.479-0.083,0.676
	l0,0c0.04,0.854,0.316,1.04,0.579,1.111l0,0c0.08,0.019,0.16,0.028,0.257,0.03l0,0v-0.002c0.015,0,0.034,0,0.057,0l0,0
	c0.005,0,0.01,0,0.016,0l0,0c0.218,0.021,0.878-0.194,1.48-0.718l0,0c0.614-0.512,1.186-1.275,1.487-2.156l0,0
	c0.13-0.38,0.217-0.743,0.267-1.098l0,0c0.039-0.241,0.056-0.472,0.056-0.686l0,0c0.014-0.833-0.301-1.381-0.41-1.478l0,0
	l-0.025,0.004l-0.098-0.009c-0.039,0.007-0.183,0.032-0.384,0.132l0,0c-0.239,0.114-0.545,0.307-0.864,0.57l0,0
	c-0.638,0.523-1.316,1.315-1.792,2.243l0,0l-0.872-0.45c-0.002,0.003-0.004,0.007-0.007,0.011l0,0L48.206,121.018L48.206,121.018z"
	/>
<path fill="#4A5D75" d="M59.057,129.23c-2.86-0.173-4.645-2.742-4.576-5.376l0,0c0-0.663,0.093-1.347,0.282-2.011l0,0
	c0.434-1.607,1.222-3.017,2.236-4.082l0,0c1.014-1.053,2.292-1.831,3.795-1.845l0,0c0.039,0,0.119-0.001,0.233,0.007l0,0
	c1.457,0.088,2.649,0.979,3.381,2.111l0,0c0.75,1.146,1.139,2.584,1.143,4.153l0,0c0,0.203-0.006,0.404-0.019,0.604l0,0l-1.493-0.09
	l1.492,0.102c-0.249,3.415-2.745,6.375-6.126,6.437l0,0C59.289,129.241,59.18,129.236,59.057,129.23L59.057,129.23z M62.546,122.613
	L62.546,122.613c0.009-0.151,0.014-0.291,0.014-0.425l0,0c0.003-1.056-0.282-1.955-0.651-2.511l0,0
	c-0.383-0.567-0.751-0.749-1.067-0.768l0,0l-0.042-0.003l-0.005-0.001v0.002c-0.351-0.014-0.998,0.247-1.632,0.918l0,0
	c-0.63,0.658-1.209,1.657-1.515,2.812l0,0c-0.122,0.427-0.176,0.837-0.176,1.216l0,0c0.068,1.557,0.712,2.293,1.768,2.389l0,0
	c0.064,0.003,0.119,0.006,0.165,0.005l0,0C60.77,126.311,62.405,124.733,62.546,122.613L62.546,122.613z"/>
<path fill="#4A5D75" d="M59.364,129.644c-0.174,0-0.295-0.009-0.361-0.01l0,0l0.029-0.821l-0.029,0.821l-0.05-0.003l-0.028-0.002
	c-1.573-0.128-2.93-0.844-3.786-1.924l0,0c-0.864-1.076-1.24-2.419-1.238-3.773l0,0c0-0.262,0.012-0.523,0.042-0.795l0,0
	c0.05-0.45,0.14-0.9,0.27-1.355l0,0c0.463-1.603,1.243-3.069,2.321-4.214l0,0c1.07-1.138,2.502-1.969,4.172-2.056l0,0
	c0.019,0,0.058-0.002,0.117-0.002l0,0c0.081,0,0.177,0.002,0.311,0.012l0,0c1.641,0.137,3.001,1.1,3.792,2.35l0,0
	c0.636,0.984,0.997,2.135,1.132,3.363l0,0l0.159,0.003l-0.114,1.582c-0.003,0.044-0.006,0.087-0.009,0.128l0,0l-0.083,1.269
	l-0.126-0.001c-0.716,2.854-3.041,5.279-6.395,5.429l0,0c-0.017,0.002-0.034,0.002-0.049,0.002l0,0
	C59.408,129.646,59.383,129.644,59.364,129.644L59.364,129.644z M60.603,119.329c-0.059,0.018-0.15,0.055-0.257,0.116l0,0
	c-0.218,0.122-0.499,0.341-0.775,0.64l0,0c-0.56,0.6-1.096,1.505-1.348,2.541l0,0l-0.001,0.007l-0.011,0.042
	c-0.072,0.255-0.116,0.502-0.143,0.767l0,0c-0.014,0.128-0.02,0.251-0.02,0.37l0,0c-0.001,0.692,0.215,1.231,0.479,1.563l0,0
	c0.272,0.336,0.542,0.452,0.775,0.462l0,0c0.079,0.002,0.132,0.005,0.149,0.005l0,0c0,0,0.009-0.002,0.061-0.001l0,0l0.003-0.001
	c0.004,0.001,0.008,0.001,0.012,0.001l0,0c0.004,0,0.008,0,0.012,0.001l0,0c0.283,0.003,0.905-0.253,1.422-0.84l0,0
	c0.537-0.59,0.952-1.446,1.011-2.4l0,0l1.138,0.073c0-0.001,0-0.004,0-0.006l0,0l-1.137-0.094c0.009-0.116,0.014-0.215,0.015-0.339
	l0,0c0-0.051,0-0.103,0-0.154l0,0c0.002-0.839-0.209-1.549-0.482-2.039l0,0c-0.243-0.451-0.553-0.682-0.649-0.722l0,0l-0.026,0.006
	l-0.169-0.013C60.655,119.315,60.638,119.317,60.603,119.329L60.603,119.329z"/>
<path fill="#4A5D75" d="M67.013,127.081c-0.987-1.176-1.551-2.733-1.551-4.424l0,0l0,0l0,0c0-0.007,0-0.012,0-0.018l0,0
	c0.003-1.702,0.449-3.271,1.246-4.521l0,0c0.79-1.235,1.999-2.228,3.539-2.388l0,0c0.125-0.013,0.253-0.02,0.387-0.021l0,0
	c1.469,0.009,2.729,0.773,3.672,1.821l0,0c0.947,1.056,1.636,2.447,1.962,4.034l0,0h0c0.109,0.515,0.16,1.03,0.16,1.533l0,0
	c0.036,2.847-1.802,5.593-4.823,5.914l0,0c-0.181,0.018-0.355,0.023-0.519,0.025l0,0c-0.003,0-0.006,0-0.009,0l0,0
	C69.446,129.038,67.989,128.249,67.013,127.081L67.013,127.081z M69.3,125.151c0.508,0.594,1.112,0.89,1.786,0.894l0,0
	c0.081,0,0.156-0.004,0.219-0.01l0,0c1.184-0.112,2.096-1.204,2.132-2.937l0,0c0-0.297-0.032-0.604-0.096-0.919l0,0l1.464-0.308
	l-1.467,0.297c-0.219-1.098-0.708-2.033-1.255-2.637l0,0c-0.552-0.616-1.104-0.839-1.448-0.831l0,0
	c-0.021,0-0.048,0.002-0.087,0.006l0,0c-0.349,0.026-0.861,0.311-1.319,1.023l0,0c-0.438,0.681-0.76,1.694-0.773,2.821l0,0
	l0.036,0.276l-0.029,0.079C68.51,123.82,68.841,124.608,69.3,125.151L69.3,125.151z"/>
<path fill="#4A5D75" d="M66.589,127.402c-1.085-1.234-1.649-2.841-1.698-4.519l0,0l1.146-0.033c0-0.002,0-0.005,0-0.007l0,0
	l-1.147,0.011c0-0.03,0-0.073,0-0.128l0,0c0-0.021-0.001-0.056,0.001-0.116l0,0c0.04-1.708,0.462-3.334,1.314-4.669l0,0
	c0.84-1.332,2.207-2.385,3.908-2.607l0,0l0.047-0.006l0.018-0.002c0.098-0.008,0.211-0.017,0.339-0.02l0,0l0.014-0.002l0.051,0.002
	c1.665,0.021,3.12,0.835,4.15,1.975l0,0c0.768,0.846,1.348,1.87,1.743,2.993l0,0l0.1-0.006l0.26,1.271
	c0.002,0.012,0.004,0.023,0.006,0.035l0,0l0.367,1.652l-0.202,0.012c0.033,2.872-1.881,5.785-5.298,6.174l0,0
	c-0.177,0.016-0.34,0.023-0.533,0.027l0,0C69.302,129.438,67.663,128.636,66.589,127.402L66.589,127.402z M69.025,122.712
	l0.001,0.027l0.001,0.029c0.029,0.94,0.379,1.753,0.796,2.218l0,0c0.46,0.503,0.897,0.654,1.245,0.655l0,0c0,0,0.001,0,0.004,0l0,0
	c0.076-0.003,0.099-0.004,0.099-0.004l0,0l0.045-0.006l0.039-0.002c0.264-0.013,0.658-0.197,1.007-0.658l0,0
	c0.347-0.45,0.603-1.131,0.601-1.905l0,0c0-0.154-0.009-0.316-0.033-0.489l0,0c-0.009-0.085-0.022-0.171-0.037-0.258l0,0
	l-0.025-0.125c-0.199-1.042-0.678-1.935-1.178-2.473l0,0c-0.405-0.46-0.772-0.596-0.89-0.616l0,0l-0.055,0.002v0.001l-0.043,0.004
	l-0.053,0.002c-0.005,0.003-0.015,0.006-0.03,0.011l0,0c-0.038,0.014-0.103,0.046-0.183,0.105l0,0
	c-0.164,0.117-0.381,0.339-0.583,0.647l0,0c-0.407,0.618-0.733,1.56-0.73,2.616l0,0c0,0.053,0,0.083,0,0.099l0,0l0.003,0.053
	l-0.001,0.052C69.025,122.705,69.025,122.709,69.025,122.712L69.025,122.712z"/>
<path fill="#4A5D75" d="M76.139,121.756c-0.216-0.801-0.322-1.593-0.322-2.354l0,0c0.003-1.175,0.244-2.278,0.761-3.221l0,0
	c0.511-0.934,1.367-1.738,2.487-2.025l0,0c0.311-0.082,0.63-0.121,0.947-0.121l0,0c2.597,0.098,4.696,2.118,6.011,4.762l0,0h0.001
	c0.533,1.083,0.807,2.206,0.809,3.292l0,0c0.047,2.022-1.118,4.106-3.292,4.714l0,0c-0.435,0.122-0.877,0.18-1.311,0.18l0,0
	C79.366,126.929,76.983,124.706,76.139,121.756L76.139,121.756z M80.013,117.025c-0.07,0-0.129,0.009-0.193,0.026l0,0
	c-0.185,0.05-0.396,0.181-0.625,0.579l0,0c-0.218,0.391-0.388,1.018-0.387,1.771l0,0c0,0.483,0.068,1.021,0.214,1.563l0,0
	c0.499,1.87,2.11,3.076,3.208,3.024l0,0c0.174-0.001,0.338-0.022,0.488-0.064l0,0c0.71-0.229,1.077-0.725,1.123-1.837l0,0
	c0.001-0.572-0.15-1.263-0.5-1.969l0,0l1.342-0.662l-1.353,0.641c-0.853-1.915-2.541-3.078-3.239-3.078l0,0
	C80.064,117.02,80.038,117.021,80.013,117.025L80.013,117.025z"/>
<path fill="#4A5D75" d="M75.582,121.811l1.062-0.294c0-0.002-0.001-0.003-0.001-0.006l0,0l-1.065,0.281
	c-0.087-0.327-0.157-0.656-0.208-1.002l0,0c-0.065-0.463-0.098-0.925-0.098-1.379l0,0c0.001-1.212,0.23-2.38,0.792-3.403l0,0
	c0.553-1.02,1.514-1.879,2.773-2.235l0,0c0.338-0.089,0.68-0.133,1.062-0.141l0,0c3.006,0.09,5.295,2.377,6.653,5.088l0,0
	c0.27,0.547,0.477,1.103,0.626,1.667l0,0c0.154,0.604,0.236,1.212,0.236,1.816l0,0c0.064,2.09-1.197,4.296-3.591,4.974l0,0
	c-0.455,0.128-0.931,0.197-1.448,0.207l0,0C78.975,127.362,76.409,124.835,75.582,121.811L75.582,121.811z M79.961,117.477
	c-0.058,0.049-0.154,0.159-0.247,0.332l0,0c-0.191,0.343-0.356,0.922-0.354,1.612l0,0c0,0.275,0.025,0.566,0.086,0.897l0,0
	c0.032,0.198,0.076,0.395,0.138,0.607l0,0c0.231,0.848,0.711,1.552,1.234,2.018l0,0c0.518,0.479,1.085,0.659,1.275,0.645l0,0
	c0.001,0,0.032,0,0.096-0.002l0,0c0.089-0.001,0.162-0.013,0.275-0.046l0,0c0.327-0.068,0.785-0.521,0.802-1.549l0,0
	c0-0.257-0.034-0.54-0.115-0.853l0,0c-0.062-0.247-0.146-0.501-0.253-0.754l0,0l-0.101-0.218l-0.163-0.338
	c-0.617-1.178-1.577-2.03-2.169-2.293l0,0c-0.151-0.074-0.255-0.099-0.3-0.106l0,0l0,0l-0.083,0.001
	c-0.032,0.002-0.021,0.002-0.028,0.003l0,0l-0.05,0.012l-0.008,0.003C79.991,117.453,79.978,117.462,79.961,117.477L79.961,117.477z
	"/>
<path fill="#4A5D75" d="M91.823,123.367c-2.423-0.046-4.679-1.656-6.068-4.076l0,0c-0.743-1.384-1.127-2.791-1.13-4.099l0,0
	c-0.013-1.448,0.525-3.045,2.048-3.749l0,0c0.455-0.211,0.942-0.3,1.414-0.3l0,0c2.264,0.079,4.297,1.624,5.962,3.753l0,0h0
	c1.098,1.411,1.739,2.949,1.75,4.479l0,0c0.033,1.363-0.66,2.848-2.052,3.551l0,0c-0.608,0.307-1.27,0.441-1.913,0.441l0,0
	C91.831,123.367,91.827,123.367,91.823,123.367L91.823,123.367z M88.086,114.135c-0.103,0-0.146,0.018-0.18,0.033l0,0
	c-0.025,0.016-0.058,0.019-0.14,0.177l0,0c-0.074,0.151-0.152,0.447-0.15,0.848l0,0c-0.005,0.698,0.231,1.682,0.76,2.658l0,0
	c0.879,1.627,2.542,2.572,3.446,2.525l0,0c0.244-0.002,0.427-0.046,0.558-0.112l0,0c0.285-0.177,0.393-0.306,0.427-0.889l0,0
	c0.01-0.622-0.328-1.644-1.113-2.633l0,0l1.178-0.922l-1.197,0.896c-1.154-1.619-2.887-2.586-3.519-2.586l0,0
	C88.131,114.131,88.107,114.132,88.086,114.135L88.086,114.135z"/>
<path fill="#4A5D75" d="M92.002,123.77c-2.874-0.028-5.359-1.882-6.758-4.379l0,0l0.866-0.481c-0.001-0.002-0.001-0.003-0.002-0.004
	l0,0l-0.87,0.473c-0.37-0.677-0.645-1.367-0.836-2.057l0,0c-0.198-0.74-0.313-1.479-0.313-2.207l0,0
	c-0.031-1.518,0.598-3.245,2.25-4.033l0,0c0.492-0.225,1.019-0.332,1.574-0.339l0,0c2.623,0.066,4.871,1.836,6.608,4.043l0,0
	l0.694,0.9l-0.037,0.048c0.298,0.483,0.546,0.979,0.741,1.479l0,0c0.286,0.748,0.455,1.516,0.455,2.29l0,0
	c0.039,1.437-0.722,2.998-2.214,3.766l0,0c-0.665,0.335-1.388,0.486-2.142,0.502l0,0C92.019,123.77,92.002,123.769,92.002,123.77
	L92.002,123.77z M88.156,115.278c0,0.337,0.054,0.748,0.196,1.216l0,0c0.117,0.399,0.298,0.838,0.535,1.27l0,0
	c0.793,1.511,2.369,2.274,2.765,2.209l0,0c0,0,0.02-0.003,0.081-0.003l0,0c0.124-0.004,0.183-0.022,0.255-0.057l0,0
	c0.102-0.062,0.227-0.135,0.25-0.655l0,0c0-0.252-0.054-0.586-0.201-0.968l0,0c-0.15-0.404-0.381-0.841-0.696-1.278l0,0
	l-0.089-0.119c-0.01-0.013-0.019-0.025-0.029-0.038l0,0l-0.243-0.316c-0.509-0.627-1.086-1.138-1.604-1.483l0,0
	c-0.502-0.353-0.97-0.497-1.097-0.519l0,0C88.223,114.652,88.153,114.922,88.156,115.278L88.156,115.278z"/>
<path fill="#4A5D75" d="M99.251,118.721c-2.027-0.034-4.05-1.187-5.685-3.075l0,0c-1.341-1.67-2.126-3.417-2.15-5.08l0,0
	c-0.009-0.885,0.284-1.946,1.183-2.574l0,0c0.549-0.402,1.184-0.538,1.752-0.536l0,0c1.973,0.063,3.863,1.256,5.665,2.928l0,0
	l0-0.001c1.602,1.518,2.677,3.188,2.721,5.034l0,0c0.016,0.884-0.354,1.87-1.147,2.532l0,0c-0.689,0.555-1.529,0.772-2.322,0.772
	l0,0C99.263,118.721,99.257,118.721,99.251,118.721L99.251,118.721z M94.409,110.565c-0.025,0.587,0.448,1.959,1.457,3.165l0,0
	c1.113,1.35,2.652,2.033,3.386,1.998l0,0c0.293-0.003,0.412-0.069,0.426-0.08l0,0c0.042-0.054,0.052-0.017,0.068-0.232l0,0
	c0.043-0.44-0.512-1.722-1.758-2.836l0,0l1.014-1.099l-1.038,1.076c-1.316-1.326-3.004-2.113-3.55-2.116l0,0
	C94.41,110.475,94.408,110.518,94.409,110.565L94.409,110.565z"/>
<path fill="#4A5D75" d="M99.449,119.122L99.449,119.122c-2.373-0.026-4.64-1.354-6.317-3.327l0,0l0.66-0.554
	c-0.002-0.003-0.004-0.005-0.006-0.007l0,0l-0.667,0.545c-0.751-0.921-1.321-1.883-1.702-2.85l0,0
	c-0.312-0.817-0.517-1.637-0.52-2.479l0,0c-0.019-0.953,0.338-2.101,1.296-2.791l0,0c0.58-0.421,1.239-0.584,1.864-0.603l0,0
	c0.025-0.002,0.051-0.002,0.077-0.002l0,0c2.084,0.046,4.03,1.204,5.81,2.758l0,0h0.016l0.432,0.398
	c0.987,0.919,1.761,1.91,2.279,2.938l0,0c0.38,0.762,0.628,1.562,0.63,2.409l0,0c0.019,0.947-0.386,1.992-1.226,2.695l0,0
	c-0.74,0.601-1.646,0.854-2.584,0.87l0,0C99.474,119.123,99.46,119.123,99.449,119.122L99.449,119.122z M95.209,111.812
	c0.22,0.545,0.599,1.186,1.099,1.786l0,0c1.017,1.249,2.384,1.771,2.747,1.729l0,0l0.011-0.002c0.013,0,0.034,0,0.061,0.001l0,0
	c0.023-0.002,0.042-0.004,0.056-0.006l0,0c0.001-0.014,0.002-0.029,0.002-0.051l0,0c0.002-0.132-0.049-0.413-0.228-0.773l0,0
	c-0.211-0.437-0.578-0.961-1.073-1.474l0,0l-0.303-0.295c-0.019-0.019-0.038-0.037-0.057-0.055l0,0l-0.155-0.146
	c-0.58-0.532-1.194-0.964-1.725-1.255l0,0c-0.256-0.146-0.5-0.251-0.692-0.319l0,0C94.988,111.18,95.067,111.477,95.209,111.812
	L95.209,111.812z M94.521,110.848L94.521,110.848C94.52,110.848,94.52,110.848,94.521,110.848L94.521,110.848z"/>
<path fill="#FFFFFF" d="M40.779,105.573c-2.408,2.224-4.941,3.145-5.555,2.199c-0.568-0.942,1.047-3.196,3.558-5.241
	c2.391-2.046,4.649-3.217,5.12-2.447C44.412,100.851,43.063,103.358,40.779,105.573z"/>
<path fill="#FFFFFF" d="M35.406,108.477c-0.493-0.464-0.404-1.258-0.005-2.15l0,0c0.493-1.099,1.459-2.413,2.726-3.707l0,0
	c1.871-1.947,3.663-3.39,4.947-3.479l0,0c0.25-0.007,0.479,0.068,0.629,0.22l0,0c0.451,0.458,0.336,1.301,0.001,2.305l0,0
	c-0.379,1.103-1.13,2.443-2.177,3.756l0,0l-0.358-0.146l0.356,0.151c-1.663,1.982-3.595,3.298-5.13,3.36l0,0
	c-0.003,0-0.006,0-0.008,0l0,0C35.989,108.793,35.641,108.692,35.406,108.477L35.406,108.477z M38.732,102.98
	c-1.163,1.2-2.025,2.407-2.423,3.327l0,0c-0.331,0.761-0.315,1.285-0.059,1.512l0,0c0.124,0.107,0.276,0.157,0.485,0.151l0,0
	c0.777,0.023,2.558-1.004,4.079-2.846l0,0h0c0.986-1.215,1.698-2.474,2.048-3.446l0,0c0.333-0.895,0.307-1.516,0.12-1.654l0,0
	c-0.055-0.049-0.111-0.068-0.21-0.07l0,0c-0.014-0.001-0.028-0.003-0.044-0.003l0,0C42.163,99.964,40.384,101.172,38.732,102.98
	L38.732,102.98z"/>
<path fill="#FFFFFF" d="M46.291,108.262c-1.633,2.607-4.079,4.139-5.323,3.455c-1.198-0.687-0.503-3.147,1.421-5.588
	c1.836-2.441,3.974-4.065,4.892-3.542C48.232,103.107,47.843,105.658,46.291,108.262z"/>
<path fill="#FFFFFF" d="M40.597,112.069c-0.874-0.519-0.888-1.621-0.44-2.883l0,0c0.353-0.983,0.992-2.094,1.86-3.197l0,0
	c1.69-2.175,3.491-3.808,4.957-3.908l0,0c0.22-0.004,0.433,0.042,0.605,0.142l0,0c0.8,0.49,0.79,1.684,0.438,3.115l0,0
	c-0.239,0.925-0.676,1.975-1.308,3.029l0,0c-1.409,2.239-3.365,3.835-5.151,3.915l0,0c-0.005,0.002-0.009,0.002-0.013,0.002l0,0
	C41.191,112.29,40.865,112.22,40.597,112.069L40.597,112.069z M42.76,106.271c-0.788,1.012-1.356,2.03-1.653,2.895l0,0
	c-0.396,1.129-0.26,1.938,0.226,2.193l0,0c0.146,0.081,0.303,0.113,0.488,0.111l0,0c0.885,0.034,2.758-1.225,4.053-3.316l0,0l0,0
	c0.597-0.985,1.018-1.958,1.245-2.799l0,0c0.381-1.317,0.211-2.264-0.145-2.404l0,0c-0.069-0.041-0.141-0.056-0.236-0.054l0,0
	c-0.015-0.002-0.033-0.005-0.051-0.003l0,0C46.024,102.906,44.229,104.258,42.76,106.271L42.76,106.271z"/>
<path fill="#FFFFFF" d="M52.867,110.508c-1.118,2.766-3.41,4.642-4.991,4.131c-1.544-0.511-1.461-3.062,0.048-5.688
	c1.437-2.631,3.455-4.463,4.622-4.091C53.738,105.235,53.928,107.744,52.867,110.508z"/>
<path fill="#FFFFFF" d="M47.592,115.019c-1.365-0.489-1.583-1.951-1.158-3.647l0,0c0.205-0.794,0.561-1.656,1.058-2.519l0,0
	c1.397-2.449,3.134-4.331,4.786-4.446l0,0c0.166-0.006,0.332,0.016,0.485,0.064l0,0c1.212,0.455,1.425,2.049,1.152,3.962l0,0
	c-0.107,0.676-0.302,1.399-0.584,2.142l0,0l-0.464-0.066l0.464,0.066c-1.03,2.512-2.899,4.446-4.958,4.553l0,0
	C48.101,115.132,47.836,115.097,47.592,115.019L47.592,115.019z M48.354,109.05c-0.446,0.796-0.763,1.586-0.936,2.304l0,0
	c-0.397,1.56-0.013,2.692,0.734,2.902l0,0c0.128,0.044,0.259,0.062,0.398,0.06l0,0c1.002,0.052,2.915-1.508,3.851-3.874l0,0l0,0
	c0.274-0.694,0.462-1.368,0.57-1.991l0,0c0.342-1.8-0.1-3.106-0.649-3.204l0,0c-0.063-0.021-0.129-0.03-0.204-0.028l0,0
	c-0.019,0-0.039-0.002-0.06-0.002l0,0C51.314,105.229,49.54,106.782,48.354,109.05L48.354,109.05z"/>
<path fill="#FFFFFF" d="M60.515,111.729c-0.497,2.854-2.434,5.052-4.258,4.791c-1.8-0.261-2.392-2.794-1.422-5.574
	c0.92-2.781,2.688-4.843,4.03-4.659C60.22,106.47,60.984,108.873,60.515,111.729z"/>
<path fill="#FFFFFF" d="M56.107,116.919c-1.903-0.337-2.465-2.196-2.17-4.338l0,0c0.082-0.547,0.222-1.114,0.427-1.692l0,0
	c0.963-2.714,2.517-4.882,4.343-5.021l0,0c0.087-0.002,0.182,0.002,0.271,0.015l0,0c1.639,0.327,2.228,2.344,2.147,4.767l0,0
	c-0.018,0.359-0.059,0.726-0.118,1.104l0,0l-0.492-0.024l0.492,0.025c-0.502,2.753-2.136,5.055-4.458,5.191l0,0
	C56.398,116.947,56.251,116.938,56.107,116.919L56.107,116.919z M55.31,111.006c-0.183,0.53-0.305,1.056-0.373,1.557l0,0
	c-0.298,2.012,0.487,3.479,1.466,3.558l0,0c0.079,0.01,0.156,0.016,0.231,0.015l0,0c1.137,0.056,2.959-1.823,3.387-4.436l0,0
	c0.063-0.354,0.103-0.698,0.125-1.031l0,0c0.193-2.308-0.674-3.981-1.403-3.981l0,0c-0.034-0.008-0.069-0.008-0.112-0.008l0,0
	c-0.021-0.005-0.045-0.003-0.067-0.005l0,0C57.748,106.691,56.077,108.485,55.31,111.006L55.31,111.006z"/>
<path fill="#FFFFFF" d="M68.634,111.738c0.172,2.85-1.225,5.298-3.133,5.331c-1.908,0.034-3.157-2.359-2.823-5.217
	c0.311-2.862,1.687-5.133,3.099-5.163C67.191,106.664,68.465,108.882,68.634,111.738z"/>
<path fill="#FFFFFF" d="M65.504,117.474c-2.367-0.056-3.438-2.307-3.38-4.897l0,0c0.009-0.242,0.028-0.493,0.059-0.741l0,0
	c0.173-1.481,0.626-2.809,1.234-3.804l0,0c0.592-0.978,1.348-1.705,2.352-1.745l0,0c1.01-0.003,1.761,0.716,2.308,1.676l0,0
	c0.566,0.976,0.956,2.289,1.053,3.766l0,0l-0.498,0.011l0.498-0.01c0.001,0.021,0.001,0.034,0.002,0.038l0,0
	c0.115,2.486-0.753,4.776-2.602,5.488l0,0l0.275,0.195L65.504,117.474L65.504,117.474z M64.254,108.384
	c-0.524,0.867-0.939,2.103-1.082,3.488l0,0c-0.024,0.23-0.04,0.459-0.045,0.685l0,0c-0.028,1.215,0.248,2.298,0.711,3.033l0,0
	c0.467,0.728,1.052,1.068,1.606,1.074l0,0c0.018,0,0.035-0.002,0.052-0.003l0,0c0.621,0.001,1.347-0.453,1.889-1.36l0,0
	c0.522-0.891,0.821-2.156,0.751-3.517l0,0c-0.001-0.021,0.002-0.032,0.001-0.037l0,0c-0.071-1.38-0.429-2.602-0.908-3.441l0,0
	c-0.474-0.858-1.046-1.239-1.446-1.213l0,0c-0.009,0-0.018,0.002-0.026,0.002l0,0C65.353,107.102,64.751,107.524,64.254,108.384
	L64.254,108.384z"/>
<path fill="#FFFFFF" d="M76.509,110.527c0.813,2.753,0.072,5.329-1.74,5.655c-1.833,0.328-3.631-1.81-3.967-4.653
	c-0.328-2.844,0.54-5.275,1.901-5.515C74.052,105.779,75.728,107.772,76.509,110.527z"/>
<path fill="#FFFFFF" d="M70.307,111.548c-0.01-0.099-0.021-0.2-0.031-0.301l0,0c-0.168-2.792,0.525-5.207,2.299-5.629l0,0
	c0.087-0.018,0.179-0.027,0.273-0.029l0,0c1.842,0.081,3.311,2.21,4.141,4.89l0,0l-0.48,0.049l-0.481,0.05
	c-0.353-1.268-0.914-2.361-1.51-3.106l0,0c-0.591-0.757-1.193-1.094-1.566-1.07l0,0c-0.04,0-0.078,0.003-0.121,0.012l0,0
	c-0.854,0.036-1.867,2.17-1.566,4.815l0,0c0.009,0.092,0.019,0.188,0.029,0.283l0,0c0.158,1.283,0.621,2.408,1.222,3.181l0,0
	c0.617,0.781,1.316,1.141,1.869,1.12l0,0c0.073-0.001,0.149-0.008,0.224-0.021l0,0c1.124-0.13,2.037-1.994,1.63-4.277l0,0
	c-0.05-0.309-0.12-0.619-0.211-0.937l0,0l0.481-0.05l0.48-0.049c0.103,0.343,0.181,0.684,0.239,1.015l0,0
	c0.401,2.436-0.229,4.636-2.304,5.085l0,0c-0.143,0.024-0.291,0.039-0.436,0.041l0,0C72.143,116.562,70.649,114.284,70.307,111.548
	L70.307,111.548z"/>
<path fill="#FFFFFF" d="M83.486,108.258c1.362,2.576,1.303,5.152-0.261,5.726c-1.6,0.572-3.768-1.237-4.731-3.971
	c-0.926-2.731-0.631-5.251,0.571-5.67C80.244,103.926,82.178,105.674,83.486,108.258z"/>
<path fill="#FFFFFF" d="M82.734,114.49c-2.072-0.04-3.827-1.944-4.712-4.421l0,0c-0.161-0.47-0.282-0.937-0.368-1.389l0,0
	c-0.394-2.243-0.156-4.17,1.179-4.717l0,0c0.151-0.055,0.317-0.084,0.485-0.084l0,0c1.664,0.057,3.332,1.888,4.61,4.292l0,0
	l-0.001-0.002c0.341,0.639,0.596,1.277,0.774,1.889l0,0c0.545,1.95,0.322,3.694-1.188,4.294l0,0
	c-0.239,0.084-0.498,0.131-0.762,0.137l0,0C82.746,114.49,82.741,114.49,82.734,114.49L82.734,114.49z M79.504,104.684
	c-0.07,0.003-0.138,0.014-0.209,0.038l0,0c-0.665,0.146-1.16,1.836-0.69,3.94l0,0c0.086,0.42,0.205,0.854,0.36,1.293l0,0
	c0.807,2.342,2.605,3.823,3.571,3.729l0,0c0.136-0.004,0.269-0.023,0.402-0.072l0,0c0.878-0.276,1.305-1.729,0.787-3.535l0,0
	c-0.152-0.558-0.38-1.145-0.683-1.732l0,0l0.442-0.087l-0.442,0.087c-1.073-2.225-2.755-3.68-3.477-3.666l0,0
	C79.543,104.678,79.523,104.681,79.504,104.684L79.504,104.684z"/>
<path fill="#FFFFFF" d="M89.117,105.218c1.788,2.363,2.342,4.821,1.123,5.559c-1.268,0.74-3.608-0.723-5.096-3.275
	c-1.426-2.548-1.709-5.075-0.742-5.629C85.34,101.319,87.404,102.845,89.117,105.218z"/>
<path fill="#FFFFFF" d="M84.71,107.599c-0.447-0.799-0.779-1.591-0.999-2.332l0,0c-0.481-1.715-0.524-3.173,0.379-3.75l0,0
	c0.172-0.102,0.38-0.157,0.606-0.161l0,0c1.472,0.049,3.222,1.621,4.805,3.731l0,0l0,0c0.664,0.885,1.175,1.78,1.502,2.611l0,0
	c0.576,1.481,0.593,2.797-0.392,3.423l0,0c-0.268,0.161-0.6,0.244-0.956,0.25l0,0C87.859,111.35,85.994,109.79,84.71,107.599
	L84.71,107.599z M84.963,102.161c-0.094,0.004-0.172,0.021-0.251,0.068l0,0c-0.448,0.191-0.61,1.432-0.093,3.019l0,0
	c0.209,0.681,0.53,1.419,0.954,2.155l0,0c1.182,2.056,2.953,3.234,3.799,3.162l0,0c0.182-0.003,0.34-0.043,0.494-0.131l0,0
	c0.583-0.329,0.717-1.377,0.197-2.72l0,0c-0.282-0.742-0.734-1.562-1.335-2.371l0,0l0.39-0.13l-0.39,0.13
	c-1.366-1.949-3.071-3.198-3.713-3.188l0,0C84.996,102.156,84.979,102.158,84.963,102.161L84.963,102.161z"/>
<path fill="#FFFFFF" d="M92.877,101.496c2.354,1.987,3.806,4.231,3.192,5.193c-0.665,0.965-3.103,0.071-5.343-2.11
	c-2.134-2.18-3.336-4.646-2.788-5.413C88.447,98.396,90.628,99.506,92.877,101.496z"/>
<path fill="#FFFFFF" d="M94.949,107.649c-1.538-0.012-3.404-1.278-4.953-3.201l0,0c-0.825-1.065-1.443-2.156-1.816-3.118l0,0
	c-0.46-1.227-0.633-2.266-0.102-2.798l0,0c0.154-0.151,0.375-0.231,0.627-0.236l0,0c1.292,0.045,3.044,1.414,4.819,3.276l0,0l0,0
	c1.045,1.084,1.854,2.189,2.332,3.168l0,0c0.514,1.062,0.652,2.013,0.081,2.569l0,0c-0.239,0.215-0.583,0.333-0.978,0.339l0,0
	C94.956,107.649,94.953,107.65,94.949,107.649L94.949,107.649z M89.042,99.1c-0.099,0.004-0.166,0.028-0.233,0.092l0,0
	c-0.248,0.175-0.24,1.011,0.223,2.122l0,0c0.348,0.864,0.933,1.879,1.706,2.864l0,0c1.417,1.774,3.103,2.723,3.847,2.669l0,0
	c0.203-0.005,0.363-0.057,0.498-0.175l0,0c0.325-0.295,0.312-0.986-0.129-1.915l0,0c-0.4-0.845-1.121-1.857-2.065-2.849l0,0
	l0.317-0.168l-0.319,0.168c-1.554-1.72-3.249-2.822-3.802-2.812l0,0C89.071,99.097,89.055,99.098,89.042,99.1L89.042,99.1z"/>
<path fill="#FFFFFF" d="M36.423,115.892c-2.066,2.28-4.89,3.229-6.172,2.236c-1.216-0.992-0.31-3.249,1.956-5.25
	c2.177-2.003,4.719-3.193,5.75-2.476C39.037,111.117,38.402,113.621,36.423,115.892z"/>
<path fill="#FFFFFF" d="M29.774,118.453c-0.788-0.638-0.796-1.69-0.261-2.824l0,0c0.448-0.947,1.256-1.975,2.343-2.939l0,0
	c1.831-1.656,3.876-2.851,5.439-2.906l0,0c0.405-0.007,0.779,0.078,1.052,0.272l0,0c0.8,0.556,0.787,1.705,0.327,3.009l0,0
	c-0.339,0.938-0.953,1.972-1.825,2.969l0,0l-0.427-0.142l0.427,0.145c-1.569,1.741-3.635,2.844-5.401,2.89l0,0
	c-0.002-0.001-0.005-0.001-0.008-0.001l0,0C30.773,118.938,30.189,118.779,29.774,118.453L29.774,118.453z M32.553,113.067
	c-0.949,0.85-1.638,1.745-2.003,2.543l0,0c-0.435,0.958-0.377,1.746,0.175,2.188l0,0c0.286,0.225,0.645,0.316,1.072,0.312l0,0
	c1.097-0.009,2.797-0.811,4.203-2.365l0,0h0.001c0.793-0.898,1.361-1.839,1.67-2.663l0,0c0.446-1.164,0.343-2.061-0.115-2.334l0,0
	c-0.154-0.107-0.341-0.152-0.584-0.148l0,0c-0.014,0-0.027-0.002-0.042,0l0,0C36.004,110.617,34.162,111.571,32.553,113.067
	L32.553,113.067z"/>
<path fill="#FFFFFF" d="M44.007,119.435c-1.613,2.576-4.509,4.004-6.295,3.164c-1.724-0.841-1.413-3.354,0.544-5.67
	c1.879-2.326,4.436-3.789,5.833-3.205C45.524,114.31,45.549,116.863,44.007,119.435z"/>
<path fill="#FFFFFF" d="M37.302,122.953c-1.343-0.664-1.57-2.073-1.013-3.622l0,0c0.297-0.821,0.811-1.694,1.521-2.538l0,0
	c1.685-2.036,3.827-3.532,5.657-3.606l0,0c0.336-0.007,0.662,0.049,0.942,0.165l0,0c1.279,0.562,1.515,2.095,1.089,3.855l0,0
	c-0.185,0.741-0.515,1.529-0.989,2.32l0,0l-0.502-0.095l0.501,0.097c-1.333,2.14-3.549,3.648-5.713,3.718l0,0
	C38.248,123.256,37.734,123.156,37.302,122.953L37.302,122.953z M38.702,117.061c-0.625,0.752-1.071,1.529-1.323,2.249l0,0
	c-0.482,1.373-0.186,2.497,0.738,2.934l0,0c0.29,0.137,0.601,0.19,0.934,0.187l0,0c1.276,0.005,3.231-1.132,4.455-3.091l0,0l0,0.002
	c0.443-0.726,0.75-1.447,0.927-2.114l0,0c0.446-1.614,0.073-2.867-0.671-3.133l0,0c-0.164-0.067-0.336-0.093-0.535-0.091l0,0
	c-0.016,0-0.035,0-0.052,0.002l0,0C42.125,114.021,40.17,115.21,38.702,117.061L38.702,117.061z"/>
<path fill="#FFFFFF" d="M53.44,121.839c-0.969,2.785-3.669,4.701-5.894,4.151c-2.178-0.55-2.632-3.171-1.167-5.778
	c1.401-2.614,3.819-4.399,5.524-4.028C53.634,116.561,54.367,119.052,53.44,121.839z"/>
<path fill="#FFFFFF" d="M47.261,126.375c-2.025-0.541-2.637-2.337-2.167-4.332l0,0c0.15-0.622,0.405-1.27,0.77-1.913l0,0
	c1.353-2.441,3.484-4.306,5.598-4.402l0,0c0.22-0.003,0.442,0.015,0.656,0.064l0,0c1.82,0.452,2.48,2.376,2.215,4.626l0,0
	c-0.062,0.474-0.174,0.965-0.342,1.466l0,0c-0.878,2.528-3.084,4.505-5.669,4.607l0,0C47.957,126.498,47.6,126.458,47.261,126.375
	L47.261,126.375z M46.896,120.296c-0.321,0.584-0.545,1.168-0.671,1.727l0,0c-0.424,1.818,0.295,3.278,1.603,3.582l0,0
	c0.216,0.053,0.431,0.074,0.649,0.071l0,0c1.48,0.021,3.602-1.535,4.412-3.886l0,0c0.159-0.463,0.269-0.916,0.332-1.353l0,0
	c0.329-2.1-0.499-3.694-1.539-3.862l0,0c-0.118-0.025-0.239-0.037-0.365-0.033l0,0c-0.022-0.002-0.044,0-0.067,0l0,0
	C50.074,116.562,48.056,118.055,46.896,120.296L46.896,120.296z"/>
<path fill="#FFFFFF" d="M64.04,122.703c-0.199,2.866-2.404,5.198-4.879,5.034c-2.458-0.167-3.739-2.701-2.952-5.506
	c0.751-2.806,2.83-4.916,4.719-4.813C62.822,117.525,64.229,119.835,64.04,122.703z"/>
<path fill="#FFFFFF" d="M59.056,128.14c-2.693-0.238-3.876-2.403-3.626-4.837l0,0c0.04-0.362,0.114-0.733,0.22-1.108l0,0
	c0.805-2.799,2.745-5.065,5.118-5.188l0,0c0.072-0.002,0.153,0,0.23,0.004l0,0c2.328,0.216,3.595,2.504,3.627,5.241l0,0
	c0,0.151-0.005,0.306-0.015,0.457l0,0l-0.57-0.006l0.57,0.009c-0.208,2.83-2.172,5.307-5.157,5.438l0,0
	C59.319,128.154,59.188,128.146,59.056,128.14L59.056,128.14z M63.465,122.698c0.012-0.146,0.019-0.286,0.019-0.427l0,0
	c0.073-2.584-1.37-4.459-2.639-4.45l0,0c-0.033-0.002-0.073-0.005-0.119-0.002l0,0c-1.289-0.053-3.308,1.81-3.957,4.451l0,0
	c-0.096,0.344-0.156,0.68-0.189,1.009l0,0c-0.243,2.269,1.082,3.999,2.672,4.053l0,0c0.086,0.004,0.17,0.008,0.249,0.005l0,0
	C61.221,127.349,63.296,125.351,63.465,122.698L63.465,122.698z"/>
<path fill="#FFFFFF" d="M74.805,121.873c0.586,2.795-0.879,5.399-3.346,5.65c-2.482,0.249-4.504-2.013-4.5-4.874
	c-0.002-2.867,1.546-5.242,3.442-5.43C72.289,117.039,74.238,119.07,74.805,121.873z"/>
<path fill="#FFFFFF" d="M66.385,122.841c0-0.066-0.002-0.132,0-0.19l0,0c0.061-2.955,1.507-5.508,3.927-5.833l0,0
	c0.081-0.008,0.161-0.014,0.243-0.016l0,0c2.388,0.04,4.196,2.254,4.811,5.037l0,0l-0.564,0.033l-0.564,0.036
	c-0.255-1.303-0.834-2.423-1.534-3.185l0,0c-0.69-0.77-1.452-1.129-2.086-1.11l0,0c-0.043,0-0.086,0.003-0.133,0.008l0,0
	c-1.367,0.051-3.02,2.243-2.956,5.031l0,0c-0.001,0.054,0,0.108,0.004,0.165l0,0c0.042,1.271,0.499,2.399,1.181,3.173l0,0
	c0.707,0.782,1.57,1.165,2.406,1.148l0,0c0.079-0.005,0.153-0.007,0.231-0.017l0,0c1.752-0.114,3.291-2.229,2.964-4.728l0,0
	c-0.02-0.161-0.046-0.323-0.078-0.486l0,0l0.564-0.036l0.564-0.033c0.036,0.179,0.067,0.357,0.093,0.535l0,0
	c0.322,2.686-1.013,5.19-3.897,5.551l0,0c-0.128,0.012-0.255,0.018-0.381,0.021l0,0C68.239,127.927,66.466,125.58,66.385,122.841
	L66.385,122.841z"/>
<path fill="#FFFFFF" d="M84.683,119.458c1.277,2.59,0.651,5.271-1.547,5.903c-2.243,0.634-4.78-1.218-5.554-3.993
	c-0.747-2.774,0.127-5.313,1.865-5.765C81.156,115.158,83.451,116.86,84.683,119.458z"/>
<path fill="#FFFFFF" d="M77.023,121.411c-0.074-0.28-0.131-0.555-0.172-0.827l0,0c-0.353-2.537,0.408-4.792,2.369-5.364l0,0
	c0.214-0.057,0.437-0.087,0.666-0.091l0,0c2.111,0.021,4.135,1.832,5.326,4.251l0,0l0,0c0.226,0.461,0.397,0.924,0.518,1.377l0,0
	c0.565,2.22-0.11,4.312-2.305,4.979l0,0c-0.337,0.094-0.687,0.146-1.044,0.152l0,0C79.782,125.882,77.722,123.924,77.023,121.411
	L77.023,121.411z M80.051,115.936c-0.129,0.003-0.251,0.02-0.378,0.052l0,0c-1.173,0.239-2.132,2.211-1.703,4.575l0,0
	c0.041,0.25,0.097,0.506,0.172,0.762l0,0c0.648,2.348,2.641,3.842,4.069,3.757l0,0c0.212-0.003,0.423-0.032,0.636-0.094l0,0
	c1.458-0.383,2.286-2.178,1.757-4.21l0,0c-0.102-0.41-0.25-0.829-0.451-1.244l0,0l0.53-0.076l-0.53,0.076
	c-1.019-2.226-2.904-3.621-4.036-3.601l0,0C80.094,115.933,80.073,115.933,80.051,115.936L80.051,115.936z"/>
<path fill="#FFFFFF" d="M92.873,115.82c1.792,2.286,1.948,4.861,0.201,5.77c-1.809,0.913-4.57-0.454-6.002-3.008
	c-1.378-2.554-1.22-5.131,0.227-5.78C88.704,112.155,91.149,113.523,92.873,115.82z"/>
<path fill="#FFFFFF" d="M86.552,118.665c-0.314-0.58-0.549-1.165-0.705-1.729l0,0c-0.539-2.013-0.281-3.819,1.117-4.494l0,0
	c0.281-0.13,0.604-0.199,0.943-0.204l0,0c1.826,0.007,3.884,1.454,5.428,3.461l0,0l-0.001,0.001
	c0.526,0.675,0.925,1.372,1.189,2.048l0,0c0.668,1.745,0.438,3.394-1.038,4.186l0,0c-0.431,0.218-0.936,0.331-1.468,0.341l0,0
	C89.846,122.28,87.732,120.789,86.552,118.665L86.552,118.665z M88.172,113.044c-0.196,0.004-0.369,0.039-0.541,0.116l0,0
	c-0.863,0.341-1.275,1.902-0.713,3.757l0,0c0.15,0.513,0.374,1.047,0.666,1.578l0,0c1.096,1.952,2.947,3.03,4.163,2.972l0,0
	c0.317-0.006,0.622-0.069,0.915-0.218l0,0c1.047-0.527,1.372-1.917,0.776-3.479l0,0c-0.225-0.605-0.568-1.226-1.03-1.826l0,0
	l0.465-0.124l-0.466,0.121c-1.345-1.821-3.178-2.918-4.185-2.899l0,0C88.206,113.044,88.187,113.044,88.172,113.044L88.172,113.044z
	"/>
<path fill="#FFFFFF" d="M99.002,111.481c2.112,1.952,2.886,4.25,1.648,5.303c-1.308,1.057-4.02,0.161-5.925-2.084
	c-1.828-2.239-2.334-4.738-1.24-5.503C94.527,108.433,96.968,109.522,99.002,111.481z"/>
<path fill="#FFFFFF" d="M94.277,114.834c-0.662-0.812-1.152-1.648-1.464-2.44l0,0c-0.579-1.508-0.623-2.875,0.267-3.527l0,0
	c0.28-0.206,0.645-0.309,1.054-0.315l0,0c1.547-0.001,3.522,1.135,5.238,2.757l0,0h0.001c0.876,0.813,1.542,1.681,1.96,2.513l0,0
	c0.65,1.295,0.673,2.523-0.206,3.276l0,0c-0.412,0.337-0.987,0.521-1.638,0.531l0,0C97.724,117.645,95.724,116.558,94.277,114.834
	L94.277,114.834z M94.483,109.353c-0.239,0.006-0.43,0.062-0.596,0.18l0,0c-0.547,0.345-0.634,1.48-0.064,2.843l0,0
	c0.288,0.708,0.743,1.468,1.344,2.19l0,0c1.307,1.54,2.918,2.293,3.958,2.258l0,0c0.401-0.008,0.755-0.111,1.044-0.349l0,0
	c0.636-0.536,0.683-1.517,0.133-2.635l0,0c-0.349-0.715-0.921-1.477-1.674-2.184l0,0L99,111.481l-0.375,0.175
	c-1.492-1.454-3.219-2.321-4.105-2.306l0,0C94.507,109.353,94.495,109.351,94.483,109.353L94.483,109.353z"/>
<path fill="#4A5D75" d="M112.976,68.374c0.029,1.612-1.432,2.946-3.262,2.981l0,0c-1.831,0.033-3.336-1.247-3.367-2.859
	l-0.33-17.892c-0.031-1.612,1.429-2.945,3.259-2.979l0,0c1.832-0.034,3.338,1.246,3.369,2.858L112.976,68.374z"/>
<path fill="#4A5D75" d="M24.542,51.542c0.007,1.765-1.02,3.2-2.294,3.204L4.526,54.812c-1.273,0.005-2.312-1.42-2.318-3.187l0,0
	c-0.007-1.764,1.021-3.198,2.294-3.203l17.721-0.066C23.497,48.352,24.535,49.777,24.542,51.542L24.542,51.542z"/>
<path fill="#4A5D75" d="M20.633,57.51c-0.646-1.65-0.669-3.121-0.671-3.438l0,0c0-0.038,0-0.063,0-0.077l0,0l2.008,0.077
	c-0.002,0.173,0.029,1.432,0.531,2.701l0,0c0.437,1.076,1.126,2.113,2.418,2.731c0.249,0.117,0.267,2.238,0.267,2.238
	C22.631,61.032,21.262,59.148,20.633,57.51L20.633,57.51z M21.97,54.073l-0.02,0L21.97,54.073L21.97,54.073L21.97,54.073z"/>
<path fill="#231F20" d="M33.678,74.234c0,7.005,5.679,12.686,12.684,12.686c7.006,0,12.685-5.681,12.685-12.686
	c0-2.312-0.621-4.476-1.702-6.341H35.378C34.299,69.759,33.678,71.923,33.678,74.234z"/>
<path fill="#231F20" d="M94.485,67.894H72.519c-1.081,1.865-1.702,4.029-1.702,6.341c0,7.005,5.679,12.686,12.685,12.686
	c7.006,0,12.685-5.681,12.685-12.686C96.186,74.234,95.869,71.234,94.485,67.894z"/>
</svg>
