<?xml version="1.0" encoding="utf-8"?>
<!-- Generator: Adobe Illustrator 13.0.2, SVG Export Plug-In  -->
<!DOCTYPE svg PUBLIC "-//W3C//DTD SVG 1.1//EN" "http://www.w3.org/Graphics/SVG/1.1/DTD/svg11.dtd" [
	<!ENTITY ns_flows "http://ns.adobe.com/Flows/1.0/">
]>
<svg version="1.1"
	 xmlns="http://www.w3.org/2000/svg" xmlns:xlink="http://www.w3.org/1999/xlink" xmlns:a="http://ns.adobe.com/AdobeSVGViewerExtensions/3.0/"
	 x="0px" y="0px" width="200px" height="60px" viewBox="-0.063 -0.454 200 60" enable-background="new -0.063 -0.454 200 60"
	 xml:space="preserve">
<defs>
</defs>
<path fill="#4A5D75" d="M54.577,28.434h6.675c3.304,0,4.859,0.518,6.187,1.393c1.781,1.2,2.981,3.241,2.981,5.766
	c0,2.527-1.201,4.568-2.981,5.767c-1.328,0.876-2.883,1.396-6.187,1.396h-4.276v9.651h-2.399V28.434z M56.976,40.583h3.465
	c2.561,0,3.435,0,4.796-0.615c1.878-0.876,2.786-2.56,2.786-4.375c0-1.812-0.908-3.498-2.786-4.375
	c-1.361-0.614-2.235-0.614-4.796-0.614h-3.465V40.583z"/>
<path fill="#4A5D75" d="M71.801,34.686h2.268v2.561h0.064c1.07-2.496,3.079-2.885,4.99-3.013v2.396
	c-1.589,0.129-2.948,0.715-3.824,1.751c-0.777,0.972-1.23,2.234-1.23,3.66v10.366h-2.268V34.686z"/>
<path fill="#4A5D75" d="M83.001,49.126c2.627,2.266,6.997,1.943,9.381-0.572c2.181-2.396,2.377-5.38,1.336-7.483l1.65-1.738
	c1.714,3.323,1.325,7.64-1.482,10.602c-3.411,3.597-9.269,3.936-13.078,0.326c-3.644-3.456-3.914-9.293-0.44-13.098
	c2.698-2.799,6.262-3.212,8.73-2.615c2.211,0.445,3.825,1.616,5.003,2.871L83.001,49.126z M91.038,37.681
	c-3.521-2.356-7.228-1.181-9.167,0.865c-1.916,2.02-2.938,5.83-0.351,9.175L91.038,37.681z"/>
<path fill="#4A5D75" d="M99.348,47.158c0.062,3.37,2.364,3.628,3.176,3.628c2.136,0,3.303-1.263,3.303-3.173
	c0-2.432-2.202-2.981-3.531-3.532c-1.815-0.616-4.698-1.588-4.698-4.925c0-2.494,1.782-4.923,5.054-4.923
	c2.655,0,4.857,2.041,4.825,4.825h-2.268c-0.161-2.17-1.651-2.784-2.655-2.784c-1.813,0-2.688,1.457-2.688,2.653
	c0,1.881,1.877,2.529,3.173,2.95c2.071,0.682,5.053,1.813,5.053,5.474c0.034,3.046-1.814,5.476-5.568,5.476
	c-2.466,0-5.542-1.684-5.445-5.669H99.348z"/>
<path fill="#4A5D75" d="M110.898,47.158c0.065,3.37,2.363,3.628,3.174,3.628c2.138,0,3.305-1.263,3.305-3.173
	c0-2.432-2.204-2.981-3.531-3.532c-1.814-0.616-4.696-1.588-4.696-4.925c0-2.494,1.78-4.923,5.051-4.923
	c2.658,0,4.861,2.041,4.827,4.825h-2.265c-0.164-2.17-1.654-2.784-2.658-2.784c-1.813,0-2.688,1.457-2.688,2.653
	c0,1.881,1.879,2.529,3.176,2.95c2.071,0.682,5.052,1.813,5.052,5.474c0.031,3.046-1.815,5.476-5.572,5.476
	c-2.462,0-5.54-1.684-5.444-5.669H110.898z"/>
<path fill="#231F20" d="M143.784,31.944c4.728,5.362,3.483,12.826-0.624,17.055c-4.989,5.136-13.121,5.183-17.861,0.577
	c-4.462-4.334-5.312-12.338,0.042-17.847c4.422-4.555,10.381-4.412,12.778-3.393l-1.942,1.997c-2.643-0.669-6.481,0.025-9.258,2.886
	c-4.223,4.344-3.76,10.936,0.072,14.659c3.836,3.725,10.391,3.951,14.68-0.463c3.543-3.648,3.467-8.962,1.66-11.892l-9.323,9.597
	l-1.555-1.512L143.784,31.944z"/>
<path fill="#231F20" d="M164.833,52.408h-2.271v-3.109h-0.062c-1.947,2.914-5.058,3.53-6.903,3.53c-5.569,0-9.524-4.242-9.524-9.329
	c0-4.732,3.727-9.265,9.524-9.265c1.912,0,5.022,0.614,6.903,3.564h0.062v-3.112h2.271V52.408z M155.598,50.788
	c3.821,0,7.096-3.077,7.096-7.224c0-3.89-3.013-7.29-7.096-7.29c-3.889,0-7.257,2.819-7.257,7.321
	C148.341,47.549,151.257,50.788,155.598,50.788z"/>
<path fill="#231F20" d="M165.888,34.688h2.27v2.27h0.064c0.68-1.071,2.429-2.722,5.442-2.722c2.17,0,3.983,0.55,5.604,2.168
	c1.327,1.297,2.203,3.338,2.203,6.256v9.749h-2.268v-9.749c0-2.301-0.712-3.921-1.685-4.859c-1.231-1.202-2.851-1.525-3.855-1.525
	s-2.623,0.323-3.856,1.525c-0.971,0.938-1.683,2.559-1.65,4.859v9.749h-2.27V34.688z"/>
<path fill="#231F20" d="M197.49,34.758h2.281v14.118c0,2.488-0.202,4.307-0.604,5.458c-0.551,1.627-1.509,2.882-2.874,3.76
	c-1.366,0.88-3.008,1.319-4.927,1.319c-1.405,0-2.669-0.215-3.787-0.644c-1.119-0.432-2.029-1.007-2.733-1.733
	c-0.7-0.722-1.35-1.783-1.943-3.175h2.289c0.624,1.171,1.429,2.039,2.415,2.605c0.985,0.563,2.206,0.845,3.663,0.845
	c1.438,0,2.65-0.287,3.641-0.866c0.991-0.582,1.697-1.308,2.12-2.184c0.419-0.878,0.46-2.293,0.46-4.244v-0.913
	c-0.858,1.087-1.905,1.92-3.146,2.499c-1.239,0.584-2.555,0.87-3.944,0.87c-1.63,0-3.162-0.401-4.596-1.211
	c-1.438-0.809-2.544-1.897-3.326-3.265c-0.784-1.37-1.175-2.871-1.175-4.51c0-1.642,0.408-3.171,1.223-4.586
	c0.816-1.417,1.941-2.538,3.383-3.362c1.439-0.827,2.96-1.239,4.56-1.239c1.321,0,2.559,0.273,3.706,0.824
	c1.145,0.548,2.251,1.451,3.316,2.71V34.758z M190.764,36.5c-1.292,0-2.493,0.311-3.598,0.936c-1.108,0.626-1.976,1.486-2.606,2.589
	c-0.63,1.104-0.944,2.295-0.944,3.577c0,1.943,0.651,3.549,1.953,4.819c1.303,1.271,2.991,1.904,5.064,1.904
	c2.098,0,3.782-0.628,5.057-1.889c1.277-1.261,1.915-2.915,1.915-4.968c0-1.335-0.294-2.525-0.88-3.571
	c-0.587-1.05-1.417-1.877-2.492-2.485C193.159,36.805,192.003,36.5,190.764,36.5z"/>
<path fill="#B0C2CC" d="M44.174,8.726C29.22-2.279,11.514,6.461,11.514,6.461l0.635,6.95l1.184,0.447
	c-0.136-1.436-0.164-2.446-0.164-2.446l0.166-1.33l-0.166,1.33c0,0,0.028,1.01,0.164,2.446l4.53,1.71L44.174,8.726z"/>
<path fill="#5A6D82" d="M46.242,27.031c-0.115-2.559-1.731-4.849-1.742-9.676c-0.01-4.17-2.691-6.107-2.691-6.107
	c-5.383-2.131-13.255-1.803-13.255-1.803L28.249,9.45c0,0-7.88-0.037-13.18,2.293c0,0-0.991,0.781-1.713,2.36
	c0.263,2.633,0.881,6.513,2.306,8.389c2.271,2.991,3.239,5.936,3.239,5.936l-0.026,0.324l0.026-0.324c0,0-0.968-2.945-3.239-5.936
	c-1.424-1.876-2.043-5.755-2.306-8.389c-0.446,0.974-0.789,2.251-0.734,3.842c0.167,4.824-1.348,7.172-1.368,9.732
	c-0.02,2.561,0.371,5.407,1.611,6.627l32.013-0.593C46.071,32.447,46.356,29.589,46.242,27.031z"/>
<path fill="#4A5D75" d="M12.452,17.789c0.001,0.052,0.002,0.107,0.004,0.162c0.004,0.115,0.006,0.23,0.009,0.345
	c0.087,4.574-1.35,6.817-1.376,9.38c-0.001,0.206-0.001,0.413,0.002,0.622c0.05,2.405,0.452,4.924,1.658,6.126l0.232-0.237
	c-1.08-1.046-1.52-3.524-1.558-5.895c-0.004-0.205-0.004-0.41-0.002-0.613c0.01-2.435,1.46-4.744,1.376-9.389
	c-0.002-0.116-0.005-0.233-0.009-0.351c-0.002-0.052-0.003-0.104-0.004-0.156c-0.026-1.374,0.251-2.354,0.625-3.185
	c-0.032-0.284-0.059-0.556-0.083-0.815C12.831,14.771,12.421,16.1,12.452,17.789z"/>
<polygon fill="#4A5D75" points="44.998,33.827 44.999,33.825 44.998,33.825 "/>
<path fill="#4A5D75" d="M46.427,27.644c-0.004-0.208-0.012-0.416-0.02-0.62c-0.123-2.562-1.657-4.749-1.739-9.323
	c-0.002-0.116-0.004-0.231-0.004-0.345c0-0.055-0.001-0.109-0.002-0.162c-0.079-4.146-2.729-6.058-2.744-6.072l-0.022-0.019
	l-0.027-0.011c-4.671-1.847-11.142-1.857-12.88-1.826c-0.285,0.005-0.442,0.012-0.444,0.012l-0.299,0.005
	c0.003,0-0.155-0.001-0.439,0.004c-1.739,0.034-8.205,0.283-12.805,2.301l-0.026,0.012l-0.021,0.02
	c-0.009,0.009-0.91,0.723-1.63,2.161c0.024,0.259,0.052,0.531,0.083,0.815c0.17-0.378,0.36-0.726,0.551-1.067
	c0.549-0.977,1.1-1.542,1.206-1.649C19.672,9.909,26.098,9.65,27.812,9.62c0.282-0.005,0.436-0.004,0.436-0.004l0.309-0.005
	c0.004,0,0.157-0.007,0.438-0.013c1.714-0.033,8.147-0.012,12.725,1.793c0.048,0.045,0.185,0.175,0.375,0.39
	c0.723,0.821,2.182,2.42,2.236,5.42c0.002,0.051,0.002,0.104,0.003,0.156c-0.001,0.117,0.001,0.235,0.003,0.352
	c0.087,4.644,1.637,6.898,1.739,9.33c0.008,0.202,0.016,0.407,0.019,0.612c0.049,2.37-0.299,4.864-1.338,5.949l0.242,0.227
	C46.156,32.582,46.465,30.049,46.427,27.644z"/>
<path fill="#4A5D75" d="M43.623,28.067l-24.729,0.458l-0.018,0.226l0.018-0.226l-4.984,0.091c0,0-0.942,7.552-2.985,10.442
	l2.015,2.89c0,0,0.904,1.374,2.785,0.68c1.881-0.693,5.179-1.632,5.142,0.051c-0.015,0.673-1.104,1.826-2.236,3.169
	c-1.698,2.016-3.671,4.355-3.698,5.319c-0.043,1.605-0.19,1.688,0.056,2.968c0.246,1.278,7.447,3.554,13.974,3.433l0.704-0.014
	c6.526-0.121,13.639-2.66,13.837-3.946c0.2-1.287,0.05-1.365-0.054-2.97c-0.059-0.897-1.834-3.001-3.533-4.843
	c-1.335-1.448-2.68-2.678-2.723-3.419c-0.098-1.681,3.231-0.862,5.136-0.24c1.905,0.623,2.759-0.782,2.759-0.782l1.907-2.962
	C44.845,35.579,43.623,28.067,43.623,28.067z"/>
<path fill="#4A5D75" d="M47.125,38.292c-1.046-1.364-1.892-3.938-2.462-6.158c-0.571-2.223-0.875-4.089-0.875-4.093l-0.328,0.053
	c0.007,0.012,1.183,7.352,3.332,10.305l-1.844,2.866c-0.002,0.002-0.029,0.047-0.095,0.127c-0.199,0.238-0.698,0.72-1.547,0.735
	c-0.27,0.006-0.577-0.035-0.926-0.15c-1.099-0.358-2.659-0.782-3.813-0.763c-0.422,0.008-0.796,0.074-1.083,0.246
	c-0.288,0.172-0.471,0.479-0.459,0.868c0,0.02,0.001,0.041,0.004,0.066c0.074,0.95,2.216,2.681,3.552,4.326
	c1.34,1.613,2.668,3.267,2.687,3.928c0.063,0.979,0.143,1.397,0.151,1.838c0.004,0.285-0.019,0.592-0.096,1.091
	c-0.003,0.182-0.446,0.609-1.231,1.01c-2.351,1.244-7.569,2.696-12.429,2.784l-0.704,0.014c-3.242,0.061-6.661-0.479-9.292-1.187
	c-1.315-0.355-2.434-0.753-3.23-1.138c-0.802-0.371-1.26-0.782-1.271-0.962c-0.097-0.498-0.13-0.804-0.135-1.087
	c-0.01-0.441,0.055-0.86,0.083-1.84c-0.006-0.664,1.26-2.365,2.539-4.026c1.276-1.693,3.339-3.502,3.379-4.464
	c0-0.02,0-0.039,0-0.057c-0.002-0.389-0.196-0.691-0.491-0.852c-0.293-0.163-0.668-0.212-1.092-0.206
	c-1.155,0.023-2.698,0.505-3.782,0.905c-0.345,0.127-0.65,0.178-0.919,0.184c-0.568,0.01-0.982-0.191-1.262-0.396
	c-0.14-0.104-0.243-0.207-0.311-0.283c-0.068-0.078-0.096-0.123-0.097-0.121l-1.951-2.798c2.039-3.03,2.941-10.409,2.947-10.421
	l-0.328-0.041c-0.001,0.004-0.235,1.88-0.725,4.122c-0.486,2.24-1.239,4.843-2.233,6.244l-0.067,0.096l2.082,2.983
	c0.009,0.014,0.638,0.968,1.951,0.946c0.308-0.006,0.652-0.066,1.029-0.204c1.065-0.396,2.601-0.867,3.673-0.885
	c0.391-0.008,0.715,0.047,0.922,0.164c0.205,0.123,0.311,0.275,0.321,0.568c0,0.016,0,0.031,0,0.045
	c0.003,0.722-2.058,2.585-3.337,4.25c-1.274,1.693-2.562,3.29-2.613,4.232c-0.026,0.97-0.091,1.377-0.083,1.859
	c0.005,0.312,0.043,0.644,0.141,1.149c0.113,0.46,0.647,0.812,1.47,1.224c2.476,1.19,7.757,2.446,12.687,2.357l0.704-0.012
	c3.286-0.062,6.708-0.73,9.342-1.546c1.317-0.408,2.437-0.853,3.248-1.28c0.808-0.44,1.329-0.812,1.424-1.276
	c0.078-0.513,0.104-0.843,0.097-1.155c-0.008-0.483-0.089-0.888-0.15-1.854c-0.086-0.94-1.432-2.487-2.768-4.135
	c-1.339-1.615-3.48-3.401-3.503-4.123c-0.002-0.018-0.002-0.031-0.002-0.045c-0.001-0.293,0.099-0.449,0.3-0.579
	c0.203-0.125,0.524-0.191,0.915-0.197c1.073-0.021,2.625,0.392,3.706,0.745c0.381,0.125,0.726,0.176,1.034,0.17
	c1.312-0.029,1.907-1.005,1.917-1.022l1.968-3.056L47.125,38.292z"/>
<path fill="#8598A8" d="M26.757,28.415l-7.875-0.044c0.012,0.033,0.019,0.056,0.019,0.056l-0.026,0.324l0.026-0.324
	c0,0-0.007-0.023-0.019-0.056l-5.033-0.028c0,0-0.641,6.524-2.926,10.715l2.012,2.78c0,0,0.83-2.722,3.945-2.487
	c3.115,0.236,3.073,1.625,3.073,1.625s2.981,0.238,5.032-2.213c2.051-2.452,3.075-7.885,3.075-7.885S28.533,29.333,26.757,28.415z"
	/>
<path fill="#4A5D75" d="M26.833,28.268l-0.076,0.147l0.001-0.165v-0.001l-7.935-0.044c0.051,0.139,0.079,0.222,0.079,0.222
	l-0.01-0.011l7.871,0.021c1.046,0.561,1.174,1.453,1.188,1.94c0.006,0.277-0.053,0.451-0.048,0.453
	c-0.006,0.02-0.259,1.367-0.769,3.022c-0.508,1.654-1.277,3.614-2.275,4.804c-1.604,1.919-3.803,2.146-4.597,2.16
	c-0.062,0-0.116,0-0.16,0c-0.092-0.413-0.624-1.453-3.21-1.631c-0.165-0.012-0.323-0.018-0.476-0.014
	c-2.26,0.047-3.22,1.648-3.524,2.324l-1.774-2.449c2.065-3.865,2.775-9.639,2.886-10.631h4.844l0.052,0.011
	c0,0-0.027-0.083-0.079-0.222l-5.124-0.028l-0.014,0.15c-0.001,0.004-0.16,1.621-0.604,3.768c-0.443,2.146-1.173,4.813-2.303,6.886
	l-0.051,0.092l2.271,3.134l0.097-0.318c0-0.002,0.042-0.14,0.15-0.36c0.329-0.666,1.208-1.986,3.178-2.023
	c0.142-0.002,0.29,0.002,0.445,0.014c2.942,0.239,2.903,1.424,2.919,1.455c0,0.01,0,0.014,0.001,0.018l0.01,0.141l0.141,0.012
	c0.005,0,0.124,0.01,0.328,0.006c0.839-0.016,3.145-0.252,4.845-2.279c2.097-2.517,3.104-7.947,3.111-7.959
	c0,0.006,0.065-0.213,0.06-0.539C28.279,29.798,28.021,28.876,26.833,28.268z"/>
<path fill="#8598A8" d="M30.777,28.341l12.854-0.548c0,0,1.368,7.473,3.362,10.599l-1.909,2.853c0,0-0.929-2.689-4.034-2.34
	s-3.011,1.739-3.011,1.739s-2.97,0.347-5.11-2.028c-2.141-2.374-3.365-7.764-3.365-7.764S29.037,29.325,30.777,28.341"/>
<path fill="#4A5D75" d="M44.927,41.299c-0.001,0-0.047-0.139-0.163-0.354l0,0c-0.116-0.217-0.299-0.505-0.563-0.794l0,0
	c-0.53-0.571-1.371-1.136-2.688-1.112l0,0c-0.144,0.004-0.292,0.012-0.444,0.031l0,0c-2.896,0.346-2.85,1.503-2.865,1.562l0,0
	l0.022,0.157l-0.169,0.018c-0.003,0.002-0.122,0.014-0.327,0.018l0,0c-0.839,0.016-3.153-0.134-4.924-2.098l0,0
	c-2.188-2.438-3.396-7.828-3.398-7.822l0,0c-0.005-0.012-0.077-0.227-0.084-0.555l0,0c-0.016-0.569,0.207-1.501,1.373-2.153l0,0
	l0.081,0.144l-0.007-0.165l12.999-0.556l0.025,0.142c0.001,0.004,0.34,1.864,0.931,4.116l0,0c0.588,2.252,1.432,4.896,2.408,6.426
	l0,0l0.058,0.09l-2.154,3.22L44.927,41.299L44.927,41.299z M45.114,40.898l1.681-2.509c-1.831-2.975-3.102-9.391-3.301-10.425l0,0
	l-12.628,0.483c-1.023,0.6-1.214,1.411-1.211,1.898l0,0c0.006,0.277,0.067,0.451,0.071,0.469l0,0
	c0.001,0.002,0.303,1.338,0.875,2.974l0,0c0.569,1.635,1.41,3.563,2.452,4.717l0,0c1.672,1.857,3.877,2.004,4.672,1.988l0,0
	c0.062,0,0.116-0.002,0.159-0.004l0,0c0.076-0.418,0.568-1.476,3.147-1.751l0,0c0.164-0.018,0.323-0.029,0.476-0.031l0,0
	C43.768,38.67,44.786,40.237,45.114,40.898L45.114,40.898z"/>
<path fill="#5A6D82" d="M16.464,41.264c-0.213,0.688-0.729,1.122-1.154,0.968c-0.426-0.154-0.599-0.839-0.386-1.528
	c0.212-0.688,0.729-1.121,1.154-0.968C16.503,39.89,16.675,40.573,16.464,41.264z"/>
<path fill="#231F20" d="M30.47,40.951c-0.258-2.324-1.605-6.32-1.605-6.32s-1.163,4.045-1.335,6.375
	c-0.162,2.199,0.692,0.817,1.283-0.084c0.07-0.105,0.13-0.191,0.181-0.261c0.054,0.067,0.117,0.151,0.191,0.255
	C29.81,41.796,30.714,43.143,30.47,40.951z"/>
<path fill="#5A6D82" d="M41.538,40.799c0.237,0.68,0.771,1.095,1.189,0.926c0.419-0.17,0.566-0.859,0.329-1.542
	c-0.238-0.681-0.77-1.095-1.189-0.923C41.448,39.428,41.3,40.118,41.538,40.799z"/>
<path fill="#B0C2CC" d="M13,25.351c0,0-0.812,1.389-0.001,2.926l5.851,0.002c-0.14-0.386-0.571-1.51-1.344-2.926L13,25.351z"/>
<path fill="#B0C2CC" d="M30.109,25.359l-12.603-0.006c0.772,1.416,1.204,2.54,1.344,2.926l11.258,0.005L30.109,25.359z"/>
<path fill="#B0C2CC" d="M30.109,25.524v-0.332l-12.693-0.005c0.063,0.114,0.121,0.222,0.18,0.332L30.109,25.524z"/>
<path fill="#B0C2CC" d="M12.805,26.835c0-0.41,0.086-0.764,0.171-1.013c0.047-0.138,0.093-0.24,0.125-0.305l4.495,0.002
	c-0.059-0.11-0.117-0.218-0.18-0.332l-4.511-0.002l-0.048,0.083c-0.007,0.015-0.382,0.654-0.383,1.567
	c0,0.456,0.095,0.981,0.378,1.519l0.047,0.089l6,0.002l0.001-0.018c0,0-0.038-0.114-0.113-0.314l-5.687-0.002
	C12.879,27.656,12.805,27.22,12.805,26.835z"/>
<path fill="#B0C2CC" d="M18.9,28.445l11.208,0.005v-0.332l-11.32-0.005c0.076,0.2,0.113,0.314,0.113,0.314L18.9,28.445z"/>
<path fill="#B0C2CC" d="M27.369,25.357l17.108,0.007c0,0,0.811,1.39-0.001,2.925l-17.108-0.007"/>
<path fill="#B0C2CC" d="M27.368,28.449l0-0.332l17.006,0.006c0.221-0.454,0.297-0.889,0.297-1.275l0,0
	c0-0.41-0.085-0.764-0.171-1.013l0,0c-0.046-0.137-0.092-0.24-0.124-0.306l0,0l-17.007-0.007v-0.332l17.203,0.007l0.049,0.083
	c0.007,0.014,0.381,0.655,0.382,1.567l0,0c0,0.456-0.096,0.98-0.379,1.519l0,0l-0.048,0.088L27.368,28.449L27.368,28.449z"/>
<linearGradient id="SVGID_1_" gradientUnits="userSpaceOnUse" x1="28.5278" y1="-2.1255" x2="28.7771" y2="30.2764">
	<stop  offset="0" style="stop-color:#FFFFFF"/>
	<stop  offset="0.2684" style="stop-color:#F9FBFC"/>
	<stop  offset="0.6133" style="stop-color:#E9EFF2"/>
	<stop  offset="0.9988" style="stop-color:#CFDBE2"/>
	<stop  offset="1" style="stop-color:#CFDBE2"/>
</linearGradient>
<polyline fill="url(#SVGID_1_)" points="27.864,27.999 28.745,31.45 28.783,32.005 28.831,31.786 28.885,32.003 28.903,31.448 
	29.655,27.966 "/>
<polygon fill="#4A5D75" points="28.838,32.283 28.729,32.293 28.724,32.273 28.621,32.266 28.584,31.728 27.709,28.29 27.709,28.29 
	28.029,28.208 28.821,31.312 29.497,28.18 29.822,28.251 29.072,31.72 29.056,32.258 28.953,32.27 28.949,32.289 28.838,32.283 "/>
<path fill="#4A5D75" d="M12.156,13.397l1.239,1.069c-0.119-1.099-0.177-2.018-0.204-2.552
	C12.479,12.784,12.156,13.397,12.156,13.397z"/>
<path fill="#4A5D75" d="M31.424,6.498C20.77,4.545,15.287,9.351,13.19,11.914c0.027,0.535,0.085,1.454,0.204,2.552l3.995,3.45
	l24.977-6.661C42.366,11.256,45.696,9.115,31.424,6.498z"/>
<path fill="#B0C2CC" d="M13.274,26.699c-0.021-0.235-0.205-0.798-0.456-1.346l0,0c-0.248-0.556-0.557-1.132-0.797-1.543l0,0
	c-0.117-0.201-0.228-0.375-0.286-0.46l0,0c-0.59-0.472-3.717-3.26-6.105-10.641l0,0C5.36,11.852,4.58,10.526,3.715,9.291l0,0
	C2.851,8.046,1.905,6.856,1.29,6.109l0,0C0.881,5.611,0.623,5.314,0.622,5.314l0,0L0,4.599l0.683-0.657
	c0.025-0.023,1.006-0.97,2.413-1.935l0,0C4.511,1.052,6.317,0.022,8.245,0l0,0c0.902-0.005,1.86,0.272,2.633,0.945l0,0
	c1.271,1.089,2.026,2.3,2.426,3.503l0,0c0.402,1.201,0.463,2.369,0.464,3.426l0,0c0,0.595-0.02,1.158-0.02,1.681l0,0
	c-0.001,0.736,0.042,1.385,0.193,1.922l0,0c0.155,0.54,0.391,0.974,0.853,1.406l0,0c0.78,0.709,1.543,0.955,2.448,0.964l0,0
	c2.102,0.038,4.91-1.708,7.279-3.258l0,0c1.323-0.846,3.526-1.739,6.243-2.465l0,0c2.709-0.719,5.906-1.247,9.116-1.248l0,0
	c2.95,0.002,5.92,0.445,8.522,1.649l0,0c3.452,1.602,5.525,3.191,6.764,4.673l0,0c1.239,1.477,1.61,2.872,1.604,3.885l0,0
	c0,0.939-0.293,1.523-0.349,1.625l0,0l-0.356,0.663l-0.735-0.162c0,0.001-0.012-0.003-0.069-0.013l0,0
	c-0.057-0.01-0.146-0.023-0.263-0.039l0,0c-0.232-0.029-0.574-0.059-0.982-0.059l0,0c-1.184-0.001-2.881,0.256-4.274,1.402l0,0
	c-0.743,0.608-1.445,1.262-1.989,1.832l0,0c-0.54,0.556-0.935,1.085-0.994,1.225l0,0l-0.066,0.133l-2.563,2.72l-0.034,0.024
	c-0.011,0.017-0.027,0.045-0.046,0.083l0,0c-0.052,0.105-0.115,0.278-0.169,0.472l0,0c-0.109,0.389-0.188,0.857-0.228,1.156l0,0
	c-0.028,0.201-0.039,0.317-0.039,0.317l0,0v0.001l-1.985-0.188c0.011-0.044,0.108-1.315,0.512-2.365l0,0
	c0.139-0.324,0.277-0.657,0.633-0.971l0,0l2.28-2.418c0.281-0.487,0.703-0.977,1.257-1.566l0,0c0.607-0.637,1.36-1.337,2.169-1.999
	l0,0c1.907-1.555,4.09-1.852,5.537-1.853l0,0c0.281,0,0.535,0.011,0.759,0.028l0,0c0-0.017,0-0.033,0-0.049l0,0
	c-0.006-0.556-0.167-1.429-1.143-2.607l0,0c-0.976-1.173-2.797-2.625-6.07-4.141l0,0c-2.238-1.041-4.933-1.466-7.684-1.465l0,0
	c-2.99-0.001-6.038,0.499-8.604,1.182l0,0c-2.561,0.676-4.667,1.56-5.676,2.214l0,0c-2.391,1.508-5.294,3.537-8.357,3.574l0,0
	c-1.319,0.009-2.679-0.444-3.801-1.492l0,0c-0.746-0.683-1.194-1.51-1.421-2.336l0,0c-0.23-0.83-0.266-1.655-0.267-2.458l0,0
	c0-0.57,0.02-1.13,0.019-1.681l0,0c0-0.979-0.063-1.911-0.36-2.793l0,0c-0.3-0.883-0.814-1.74-1.836-2.625l0,0
	C9.188,2.128,8.784,2,8.245,1.994l0,0C7.25,1.979,5.872,2.58,4.711,3.329l0,0C3.933,3.821,3.244,4.36,2.764,4.762l0,0
	c0.429,0.521,1.033,1.27,1.671,2.122l0,0c1.213,1.631,2.547,3.565,3.093,5.21l0,0c2.269,6.987,5.119,9.424,5.45,9.693l0,0
	c0.043,0.031,0.069,0.059,0.1,0.076l0,0c0.065,0.056,0.097,0.093,0.126,0.125l0,0c0.056,0.064,0.091,0.112,0.131,0.167l0,0
	c0.077,0.106,0.157,0.231,0.25,0.38l0,0c0.183,0.297,0.406,0.688,0.632,1.125l0,0c0.449,0.89,0.918,1.876,1.04,2.811l0,0
	c0.212,1.852,0.212,1.852,0.212,1.852l0,0l-1.942,0.05C13.525,28.374,13.484,28.374,13.274,26.699L13.274,26.699z"/>
<linearGradient id="SVGID_2_" gradientUnits="userSpaceOnUse" x1="34.4956" y1="15.9468" x2="34.4956" y2="28.3289">
	<stop  offset="0" style="stop-color:#FFFFFF"/>
	<stop  offset="0.2684" style="stop-color:#F9FBFC"/>
	<stop  offset="0.6133" style="stop-color:#E9EFF2"/>
	<stop  offset="0.9988" style="stop-color:#CFDBE2"/>
	<stop  offset="1" style="stop-color:#CFDBE2"/>
</linearGradient>
<path fill="url(#SVGID_2_)" d="M47.983,9.431c-7.684-3.562-19.518-0.191-22.922,1.998c-3.405,2.188-7.782,5.106-10.943,2.188
	c-0.41-0.378-0.698-0.79-0.901-1.229c0.139,2.242,0.658,7.749,2.445,10.104c2.271,2.991,3.24,5.956,3.24,5.956l23.709,0.011
	c0,0,0.223-2.335,0.857-2.798l2.399-2.543c0.335-0.677,1.693-2.117,3.245-3.387c2.798-2.289,6.433-1.492,6.433-1.492
	S57.829,13.996,47.983,9.431z"/>
<linearGradient id="SVGID_3_" gradientUnits="userSpaceOnUse" x1="3.8545" y1="0.8179" x2="17.4832" y2="23.0892">
	<stop  offset="0" style="stop-color:#FFFFFF"/>
	<stop  offset="0.1755" style="stop-color:#F9FBFB"/>
	<stop  offset="0.4012" style="stop-color:#E9EFF1"/>
	<stop  offset="0.6543" style="stop-color:#CFDBE0"/>
	<stop  offset="0.9256" style="stop-color:#AAC0C8"/>
	<stop  offset="1" style="stop-color:#9FB7C1"/>
</linearGradient>
<path fill="url(#SVGID_3_)" d="M13.217,12.388c-0.002-0.004-0.004-0.009-0.006-0.013C11.86,9.429,14.36,5.261,10.227,1.701
	C7.177-0.927,1.375,4.66,1.375,4.66s4.298,4.943,5.205,7.742c2.529,7.803,5.836,10.213,5.836,10.213
	c0.12,0.016,1.701,2.674,1.85,3.971c0.211,1.852,0.211,1.852,0.211,1.852l4.425-0.01c0,0-0.968-2.945-3.239-5.936
	C13.875,20.137,13.356,14.63,13.217,12.388z"/>
<path fill="#B0C2CC" d="M8.926,5.373c1.157-0.696,2.501-1.294,3.832-1.303l0,0c0.012,0,0.035,0,0.067,0.001l0,0l-0.04,0.997
	c0,0-0.009,0-0.028,0l0,0c-1.041-0.016-2.283,0.536-3.379,1.198"/>
<path fill="#B0C2CC" d="M13.94,7.024l0.042-1.038c-0.034-0.001-0.058-0.001-0.069-0.001c-1.685,0.012-3.387,0.954-4.716,1.856
	c-1.324,0.909-2.257,1.808-2.27,1.82l0.383,1.001l0.337-0.252c0.001,0,0.216-0.208,0.595-0.53c1.125-0.979,3.746-2.888,5.67-2.857
	C13.934,7.024,13.94,7.024,13.94,7.024z"/>
<path fill="#B0C2CC" d="M14.36,9.525l0.044-1.161c-0.034-0.001-0.057,0-0.067,0c-1.589,0.012-3.164,0.891-4.394,1.726
	c-1.225,0.841-2.085,1.67-2.1,1.684l0.331,1.217c0.001,0,0.67-0.568,1.017-0.863c1.025-0.896,3.438-2.636,5.146-2.603
	C14.356,9.525,14.36,9.525,14.36,9.525z"/>
<path fill="#B0C2CC" d="M13.227,10.952c-0.861,0.335-1.671,0.824-2.37,1.298c-1.225,0.841-2.085,1.67-2.1,1.684l0.451,1.051
	c0,0,0.55-0.402,0.897-0.697c0.652-0.57,1.866-1.477,3.103-2.056c-0.03-0.513-0.039-0.82-0.039-0.82L13.227,10.952z"/>
<path fill="#B0C2CC" d="M13.597,10.818c-0.125,0.042-0.248,0.086-0.371,0.134l-0.058,0.459c0,0,0.009,0.307,0.039,0.82
	c0.231-0.109,0.463-0.209,0.693-0.29L13.597,10.818z"/>
<path fill="#B0C2CC" d="M12.95,14.989c0.138-0.083,0.315-0.188,0.47-0.275l-0.126-1.1c-0.336,0.169-0.529,0.269-0.726,0.387
	L12.95,14.989z"/>
<path fill="#ABBCC4" d="M13.104,16.318c-1.324,0.909-2.429,1.978-2.442,1.99l0.555,0.831l0.338-0.253
	c0.001,0,0.215-0.208,0.595-0.529c0.389-0.339,0.958-0.79,1.615-1.232l-0.013-0.114c-0.06-0.341-0.116-0.676-0.164-1.008
	C13.422,16.109,13.261,16.212,13.104,16.318z"/>
<path fill="#A2B4BC" d="M13.849,18.566c-1.225,0.841-1.926,1.516-1.94,1.529l0.748,0.915c0.001,0,0.093-0.111,0.44-0.406
	c0.295-0.258,0.777-0.653,1.253-0.989l-0.316-1.173C13.971,18.483,13.909,18.524,13.849,18.566z"/>
<path fill="#A2B4BC" d="M13.535,21.788l0.576,0.967c0,0,0.425-0.319,0.772-0.613c0.072-0.064,0.264-0.271,0.349-0.342l-0.204-0.35
	l-0.292-0.668C14.051,21.322,13.545,21.777,13.535,21.788z"/>
<polygon fill="#8E9FA5" points="15.218,25.317 15.44,26.369 17.975,26.182 17.388,25.154 "/>
<polygon fill="#8E9FA5" points="15.717,27.367 15.717,28.308 18.85,28.27 18.474,27.331 "/>
<path fill="#C6D4DB" d="M49.689,16.869c-1.088-0.997-2.648-2.049-4.874-3.113c-2.246-1.072-4.837-1.475-7.426-1.476
	c-5.642,0.011-11.256,1.89-13.473,3.344c-2.116,1.416-4.643,3.189-6.708,3.058c-1.312-0.083-2.708-0.94-3.473-1.662l0.284,1.338
	c0,0,1.419,1.197,3.171,1.323c0.006,0,0.012,0,0.018,0c2.535-0.019,5.104-1.823,7.231-3.218c1.942-1.3,7.537-3.196,12.949-3.185
	c2.492,0,4.95,0.394,7.019,1.384c2.162,1.033,3.33,1.737,4.327,2.651L49.689,16.869L49.689,16.869z"/>
<path fill="#C6D4DB" d="M42.677,16.015c-2.037-0.972-4.382-1.336-6.725-1.338c-5.105,0.012-10.177,1.707-12.19,3.027
	c-1.911,1.28-4.186,2.738-6.032,2.754c-1.209,0.011-2.729-0.301-3.412-0.944l0.183,0.608c0,0,0.191,0.514,0.191,0.514
	c0,0,1.164,0.665,3.02,0.821c0.006,0,0.012,0,0.018,0c2.312-0.019,4.634-1.654,6.555-2.913c1.741-1.167,6.791-2.88,11.667-2.869
	c2.245,0,4.458,0.355,6.318,1.245c1.949,0.931,3.149,1.731,4.045,2.553l0.773-0.639C46.102,17.93,44.691,16.977,42.677,16.015z"/>
<path fill="#C6D4DB" d="M40.693,18.43c-1.826-0.813-3.926-1.118-6.022-1.118c-4.569,0.01-9.096,1.421-10.907,2.528
	c-1.705,1.066-3.733,2.303-5.356,2.286c-0.7-0.004-2.736-0.082-3.337-0.61l0.309,0.564l0.375,0.542c0,0,1.14,0.583,2.633,0.428
	c0.006,0,0.013,0,0.02,0c2.087-0.018,4.161-1.386,5.876-2.433c1.54-0.965,6.047-2.392,10.387-2.382c2,0,3.968,0.295,5.618,1.033
	c1.737,0.774,3.113,1.832,3.909,2.511l0.661-0.771v-0.154C43.971,20.098,42.494,19.233,40.693,18.43z"/>
<path fill="#C6D4DB" d="M23.896,21.841c-1.561,0.964-3.417,2.083-4.904,2.067c-0.641-0.003-2.203-0.145-2.752-0.623l0.167,0.266
	c0.226,0.309,0.412,0.633,0.605,0.929c0.393,0.153,1.08,0.354,1.961,0.264c0.006,0,0.013,0,0.019,0
	c1.911-0.016,3.811-1.253,5.381-2.2c1.41-0.872,5.536-2.163,9.51-2.154v-0.836C29.7,19.564,25.555,20.84,23.896,21.841z"/>
<path fill="#BFCCD1" d="M38.511,22.57c-1.53-0.682-3.291-0.937-5.048-0.937c-3.829,0.008-7.624,1.191-9.142,2.12
	c-1.429,0.895-3.129,1.932-4.49,1.918c-0.586-0.004-1.976-0.164-2.479-0.606l0.042,0.088c0.216,0.358,0.384,0.712,0.553,1.028
	c0.34,0.144,1.003,0.354,1.867,0.265c0.006,0,0.012,0,0.017,0c1.749-0.014,3.479-1.11,4.917-1.989
	c1.291-0.808,5.129-1.919,8.767-1.911c1.676-0.001,3.312,0.254,4.695,0.872c1.455,0.65,2.711,1.817,3.378,2.388l0.361-1.013
	C41.206,24.159,40.021,23.244,38.511,22.57z"/>
<path fill="#ABBCC4" d="M37.812,24.756c-1.401-0.56-3.013-0.77-4.62-0.77c-3.505,0.007-6.979,0.978-8.367,1.74
	c-1.308,0.734-2.864,1.585-4.109,1.573c-0.537-0.002-1.979-0.06-2.44-0.423l0.361,0.846c0,0,0.813,0.36,2.012,0.31
	c0.005,0,0.216,0,0.221,0c1.601-0.012,3.117-0.887,4.432-1.607c1.182-0.664,4.648-1.503,7.978-1.496c1.534,0,3,0.158,4.266,0.665
	c1.333,0.533,2.578,1.532,3.158,2.105l0.443-0.892C40.466,26.287,39.193,25.309,37.812,24.756z"/>
<path fill="#A1B1B7" d="M23.485,28.447c0.592-0.222,1.215-0.506,1.762-0.76c1.296-0.589,4.537-1.34,7.807-1.345
	c1.5,0,3.003,0.163,4.311,0.595c1.163,0.385,2.283,1.102,2.949,1.521h-1.733c-0.582-0.371-1.031-0.583-1.728-0.814
	c-1.182-0.392-2.392-0.499-3.823-0.499c-3.107-0.005-5.795,0.595-6.897,1.108c-0.221,0.1-0.252,0.099-0.487,0.205L23.485,28.447z"/>
<circle fill="#C6D4DB" cx="34.636" cy="20.22" r="0.304"/>
<path fill="#4A5D75" d="M11.039,26.447v0.366l7.203,0.003c-0.054-0.117-0.111-0.239-0.172-0.365L11.039,26.447z"/>
<path fill="#4A5D75" d="M48.771,26.463L18.07,26.451c0.061,0.126,0.118,0.248,0.172,0.365l30.528,0.013L48.771,26.463z"/>
<rect x="23.819" y="25.868" fill="#4A5D75" width="2.908" height="1.463"/>
<rect x="30.75" y="25.871" fill="#4A5D75" width="2.908" height="1.463"/>
<path fill="#4A5D75" d="M15.085,48.241c-0.107-0.175-0.147-0.372-0.146-0.544l0,0c0.02-0.539,0.272-0.921,0.592-1.358l0,0
	c0.33-0.425,0.77-0.864,1.273-1.276l0,0c0.444-0.378,0.88-0.698,1.282-0.935l0,0c0.411-0.23,0.745-0.403,1.195-0.417l0,0
	c0.224-0.016,0.604,0.1,0.793,0.415l0,0c0.121,0.191,0.15,0.385,0.15,0.545l0,0c-0.016,0.487-0.215,0.874-0.493,1.335l0,0
	c-0.284,0.452-0.672,0.933-1.145,1.393l0,0l-0.463-0.478l0.45,0.487c-0.884,0.79-1.717,1.288-2.543,1.317l0,0
	c-0.008,0.002-0.017,0.002-0.025,0.002l0,0C15.715,48.728,15.324,48.61,15.085,48.241L15.085,48.241z M17.656,46.083
	c-0.421,0.344-0.778,0.701-1.024,1.008l0,0c-0.043,0.052-0.083,0.103-0.118,0.151l0,0c0.322-0.153,0.752-0.421,1.147-0.798l0,0l0,0
	c0.353-0.34,0.65-0.704,0.865-1.022l0,0C18.264,45.594,17.966,45.82,17.656,46.083L17.656,46.083z"/>
<path fill="#4A5D75" d="M16.176,49.013h-0.003c-0.015,0-0.024,0-0.027,0l0,0l0,0c-0.28-0.002-0.593-0.074-0.856-0.309l0,0
	l0.317-0.35c0-0.002-0.001-0.002-0.002-0.002l0,0l-0.324,0.342c-0.259-0.236-0.365-0.587-0.359-0.866l0,0
	c0.002-0.314,0.09-0.584,0.207-0.845l0,0c0.272-0.6,0.741-1.222,1.338-1.837l0,0c0.433-0.448,0.861-0.849,1.285-1.159l0,0
	c0.426-0.302,0.834-0.542,1.345-0.589l0,0l0,0c0.01,0,0.031-0.002,0.063-0.002l0,0c0.24,0,0.516,0.072,0.739,0.297l0,0
	c0.253,0.255,0.325,0.593,0.322,0.851l0,0c-0.002,0.307-0.076,0.575-0.167,0.856l0,0c-0.128,0.371-0.323,0.763-0.576,1.165l0,0
	l0.065,0.027l-0.574,0.685l-0.302,0.379l-0.029-0.012c-0.734,0.765-1.538,1.308-2.433,1.368l0,0h-0.012H16.176L16.176,49.013z
	 M17.375,46.577c0.082-0.084,0.164-0.174,0.243-0.27l0,0l0.004-0.006c0,0,0.001,0,0.001,0l0,0
	C17.537,46.394,17.454,46.485,17.375,46.577L17.375,46.577z M17.685,46.226c0.004-0.006,0.008-0.01,0.012-0.016l0,0l-0.217-0.196
	c-0.002,0.002-0.005,0.004-0.007,0.006l0,0L17.685,46.226L17.685,46.226z"/>
<path fill="#4A5D75" d="M39.77,49.984c-0.523-0.01-0.97-0.24-1.388-0.564l0,0c-0.417-0.327-0.801-0.772-1.121-1.316l0,0
	c-0.425-0.773-0.661-1.524-0.667-2.182l0,0c0.006-0.41,0.082-0.908,0.577-1.216l0,0c0.173-0.105,0.37-0.146,0.541-0.146l0,0
	c0.527,0.02,0.897,0.268,1.296,0.577l0,0c0.388,0.316,0.773,0.734,1.129,1.226l0,0l0,0c0.559,0.754,0.911,1.509,0.923,2.248l0,0
	c0.01,0.412-0.161,0.921-0.62,1.198l0,0c-0.212,0.123-0.448,0.176-0.667,0.176l0,0C39.772,49.984,39.771,49.984,39.77,49.984
	L39.77,49.984z M38.415,47.443c0.232,0.398,0.521,0.725,0.788,0.933l0,0c0.223,0.18,0.433,0.26,0.527,0.275l0,0
	c0.001-0.012,0.001-0.025,0.001-0.041l0,0c0.013-0.248-0.202-0.864-0.654-1.446l0,0l0.531-0.401l-0.54,0.39
	c-0.279-0.388-0.581-0.716-0.846-0.94l0,0c-0.106-0.094-0.21-0.166-0.296-0.218l0,0C37.942,46.323,38.103,46.894,38.415,47.443
	L38.415,47.443z"/>
<path fill="#4A5D75" d="M42.301,48.253c-0.821-0.031-1.619-0.524-2.453-1.309l0,0c-0.434-0.443-0.789-0.909-1.046-1.349l0,0
	c-0.253-0.447-0.43-0.839-0.442-1.3l0,0c0-0.172,0.031-0.383,0.168-0.587l0,0l0,0c0.196-0.309,0.564-0.42,0.801-0.41l0,0
	c0.44,0.014,0.773,0.182,1.169,0.404l0,0c0.388,0.228,0.802,0.538,1.221,0.909l0,0l0,0c0.473,0.399,0.873,0.821,1.171,1.237l0,0
	c0.295,0.425,0.52,0.819,0.534,1.328l0,0c0,0.188-0.045,0.404-0.163,0.592l0,0l-0.009,0.014l-0.008,0.012
	c-0.229,0.336-0.617,0.458-0.915,0.458l0,0C42.32,48.253,42.311,48.253,42.301,48.253L42.301,48.253z M40.786,46.004
	c0.398,0.403,0.845,0.679,1.153,0.815l0,0c-0.037-0.061-0.08-0.125-0.129-0.195l0,0c-0.218-0.305-0.555-0.665-0.96-1.007l0,0
	l0.429-0.51l-0.441,0.5c-0.304-0.277-0.619-0.51-0.884-0.677l0,0C40.146,45.26,40.439,45.648,40.786,46.004L40.786,46.004z"/>
<path fill="#4A5D75" d="M42.194,48.509c-1.044-0.037-1.942-0.739-2.722-1.68l0,0c-0.403-0.521-0.707-1.054-0.904-1.56l0,0
	c-0.127-0.349-0.23-0.685-0.233-1.058l0,0c-0.003-0.275,0.073-0.626,0.348-0.897l0,0c0.214-0.209,0.487-0.289,0.73-0.293l0,0h0.021
	l0.012,0.002c0.513,0.025,0.931,0.256,1.352,0.545l0,0c0.419,0.299,0.834,0.681,1.247,1.112l0,0c0.502,0.522,0.898,1.058,1.155,1.58
	l0,0c0.149,0.314,0.264,0.633,0.267,1.003l0,0c0.006,0.295-0.104,0.654-0.382,0.921l0,0c-0.243,0.219-0.539,0.309-0.823,0.32l0,0
	l-0.019,0.004H42.194L42.194,48.509z M40.848,45.885c0.158,0.198,0.325,0.37,0.486,0.511l0,0c-0.083-0.119-0.177-0.242-0.283-0.368
	l0,0l-0.262-0.289c-0.005-0.006-0.01-0.012-0.015-0.018l0,0l-0.188-0.199C40.666,45.643,40.753,45.766,40.848,45.885L40.848,45.885z
	"/>
<path fill="#4A5D75" d="M13.025,53.017c-0.328-0.26-0.494-0.681-0.485-1.054l0,0c0.028-0.854,0.561-1.591,1.324-2.283l0,0
	c0.425-0.393,0.877-0.72,1.319-0.96l0,0c0.447-0.238,0.872-0.406,1.339-0.412l0,0c0.228,0,0.492,0.049,0.714,0.205l0,0
	c0.401,0.266,0.537,0.723,0.53,1.089l0,0c-0.016,0.769-0.416,1.565-1.077,2.342l0,0l-0.502-0.438l0.492,0.447
	c-0.785,0.849-1.732,1.37-2.652,1.386l0,0c-0.001,0-0.002,0-0.004,0l0,0C13.689,53.339,13.335,53.255,13.025,53.017L13.025,53.017z
	 M14.028,52.01c0.345,0.018,1.107-0.314,1.668-0.95l0,0l0,0c0.486-0.547,0.728-1.155,0.741-1.415l0,0
	c-0.132,0.025-0.365,0.1-0.619,0.242l0,0c-0.329,0.178-0.704,0.446-1.064,0.78l0,0c-0.631,0.533-0.913,1.147-0.886,1.296l0,0
	c0,0.01,0,0.016,0.001,0.021l0,0C13.893,51.994,13.942,52.01,14.028,52.01L14.028,52.01z"/>
<path fill="#4A5D75" d="M13.942,53.521L13.942,53.521L13.942,53.521c-0.393,0-0.788-0.096-1.119-0.352l0,0l-0.009-0.006
	c-0.354-0.279-0.537-0.729-0.527-1.13l0,0c0-0.33,0.091-0.636,0.229-0.927l0,0c0.253-0.531,0.666-1.042,1.196-1.517l0,0
	c0.89-0.784,1.84-1.405,2.829-1.461l0,0c0.03-0.002,0.047-0.002,0.054-0.002l0,0c0.267,0.002,0.56,0.052,0.828,0.241l0,0
	c0.419,0.283,0.582,0.781,0.571,1.179l0,0c0,0.318-0.073,0.621-0.181,0.929l0,0c-0.09,0.25-0.212,0.506-0.365,0.756l0,0l0.099,0.035
	l-0.676,0.749c-0.006,0.008-0.013,0.016-0.019,0.021l0,0l-0.265,0.305l-0.027-0.01c-0.748,0.7-1.649,1.155-2.565,1.188l0,0
	l-0.038,0.002L13.942,53.521L13.942,53.521z M14.161,51.828c0.228-0.012,0.863-0.279,1.346-0.833l0,0l0.017-0.018
	c0.293-0.338,0.497-0.687,0.598-0.958l0,0c0.017-0.041,0.03-0.082,0.041-0.119l0,0c-0.086,0.033-0.185,0.08-0.288,0.141l0,0
	c-0.293,0.16-0.638,0.403-0.954,0.696l0,0l-0.226-0.244c-0.002,0.002-0.003,0.002-0.005,0.006l0,0l0.223,0.246
	c-0.369,0.328-0.622,0.673-0.729,0.911l0,0c-0.032,0.07-0.05,0.129-0.06,0.172l0,0C14.133,51.828,14.146,51.828,14.161,51.828
	L14.161,51.828z M16.203,49.621L16.203,49.621C16.203,49.621,16.203,49.621,16.203,49.621L16.203,49.621L16.203,49.621
	L16.203,49.621z"/>
<path fill="#4A5D75" d="M44.112,52.765c-0.901-0.016-1.8-0.526-2.526-1.366l0,0c-0.596-0.743-0.945-1.518-0.956-2.259l0,0
	c-0.004-0.393,0.126-0.865,0.526-1.144l0,0c0.244-0.18,0.527-0.24,0.779-0.238l0,0c0.876,0.027,1.717,0.558,2.518,1.302l0,0h0
	c0.712,0.673,1.19,1.416,1.209,2.236l0,0c0.007,0.394-0.157,0.831-0.51,1.126l0,0c-0.306,0.245-0.68,0.343-1.032,0.343l0,0
	C44.117,52.765,44.114,52.765,44.112,52.765L44.112,52.765z M41.959,49.14c-0.011,0.261,0.199,0.872,0.647,1.408l0,0
	c0.495,0.6,1.179,0.901,1.505,0.888l0,0c0.131-0.002,0.184-0.031,0.189-0.037l0,0c0.019-0.022,0.023-0.007,0.03-0.103l0,0
	c0.02-0.195-0.228-0.766-0.781-1.261l0,0l0.451-0.488l-0.461,0.479c-0.585-0.59-1.335-0.938-1.578-0.94l0,0
	C41.96,49.101,41.959,49.118,41.959,49.14L41.959,49.14z"/>
<path fill="#4A5D75" d="M44.2,52.942v0.002c-1.055-0.014-2.062-0.603-2.808-1.481l0,0l0.293-0.245c-0.001,0-0.001-0.002-0.002-0.002
	l0,0l-0.297,0.241c-0.334-0.409-0.587-0.837-0.757-1.266l0,0c-0.138-0.363-0.229-0.729-0.23-1.103l0,0
	c-0.008-0.424,0.15-0.935,0.576-1.239l0,0c0.258-0.188,0.551-0.262,0.829-0.27l0,0c0.011,0,0.022,0,0.034,0l0,0
	c0.926,0.02,1.791,0.535,2.582,1.226l0,0h0.007l0.192,0.178c0.439,0.407,0.783,0.849,1.013,1.306l0,0
	c0.169,0.337,0.279,0.692,0.28,1.071l0,0c0.009,0.419-0.171,0.884-0.544,1.195l0,0c-0.33,0.268-0.732,0.381-1.149,0.389l0,0
	C44.21,52.944,44.205,52.944,44.2,52.942L44.2,52.942z M42.315,49.693c0.098,0.242,0.267,0.527,0.488,0.794l0,0
	c0.453,0.555,1.06,0.787,1.222,0.77l0,0h0.004c0.006,0,0.015,0,0.027,0l0,0c0.011-0.002,0.019-0.002,0.025-0.004l0,0
	c0.001-0.006,0.001-0.012,0.001-0.021l0,0c0.001-0.059-0.022-0.184-0.101-0.346l0,0c-0.094-0.191-0.257-0.426-0.477-0.653l0,0
	l-0.135-0.131c-0.008-0.01-0.017-0.018-0.025-0.025l0,0l-0.068-0.064c-0.258-0.236-0.531-0.428-0.767-0.559l0,0
	c-0.114-0.064-0.222-0.109-0.308-0.141l0,0C42.217,49.412,42.252,49.545,42.315,49.693L42.315,49.693z M42.009,49.266L42.009,49.266
	C42.009,49.266,42.009,49.266,42.009,49.266L42.009,49.266z"/>
<path fill="#FFFFFF" d="M15.736,48.212c-0.219-0.206-0.179-0.56-0.002-0.956l0,0c0.219-0.487,0.649-1.073,1.212-1.648l0,0
	c0.832-0.864,1.627-1.505,2.199-1.546l0,0c0.11-0.002,0.212,0.031,0.279,0.098l0,0c0.2,0.203,0.149,0.578,0.001,1.024l0,0
	c-0.169,0.49-0.503,1.085-0.968,1.669l0,0l-0.159-0.064l0.158,0.066c-0.74,0.882-1.598,1.467-2.28,1.494l0,0
	c-0.001,0-0.002,0-0.003,0l0,0C15.996,48.353,15.841,48.306,15.736,48.212L15.736,48.212z"/>
<path fill="#FFFFFF" d="M18.043,49.809c-0.389-0.23-0.395-0.72-0.196-1.282l0,0c0.157-0.437,0.441-0.931,0.827-1.42l0,0
	c0.751-0.967,1.552-1.692,2.203-1.737l0,0c0.098-0.002,0.192,0.02,0.269,0.062l0,0c0.355,0.219,0.351,0.749,0.195,1.386l0,0
	c-0.106,0.411-0.3,0.878-0.582,1.347l0,0c-0.626,0.995-1.496,1.703-2.289,1.738l0,0c-0.002,0.002-0.004,0.002-0.005,0.002l0,0
	C18.308,49.906,18.162,49.875,18.043,49.809L18.043,49.809z"/>
<path fill="#FFFFFF" d="M21.152,51.118c-0.607-0.217-0.704-0.866-0.515-1.62l0,0c0.091-0.353,0.249-0.735,0.47-1.12l0,0
	c0.621-1.089,1.393-1.924,2.126-1.975l0,0c0.074-0.004,0.148,0.006,0.216,0.027l0,0c0.539,0.203,0.633,0.911,0.512,1.76l0,0
	c-0.048,0.301-0.134,0.623-0.26,0.953l0,0l-0.206-0.029l0.206,0.031c-0.458,1.114-1.288,1.975-2.204,2.023l0,0
	C21.378,51.171,21.261,51.153,21.152,51.118L21.152,51.118z"/>
<path fill="#FFFFFF" d="M24.937,51.963c-0.846-0.148-1.096-0.976-0.964-1.928l0,0c0.037-0.242,0.099-0.496,0.189-0.752l0,0
	c0.428-1.205,1.119-2.169,1.931-2.231l0,0c0.039,0,0.081,0.002,0.12,0.008l0,0c0.729,0.144,0.991,1.04,0.955,2.119l0,0
	c-0.008,0.159-0.026,0.321-0.053,0.489l0,0l-0.219-0.012l0.219,0.012c-0.223,1.224-0.949,2.246-1.981,2.307l0,0
	C25.066,51.977,25.001,51.973,24.937,51.963L24.937,51.963z"/>
<path fill="#FFFFFF" d="M29.114,52.211c-1.052-0.025-1.529-1.026-1.502-2.178l0,0c0.004-0.107,0.012-0.219,0.026-0.33l0,0
	c0.077-0.657,0.278-1.247,0.549-1.689l0,0c0.262-0.436,0.599-0.758,1.045-0.775l0,0c0.449-0.002,0.782,0.318,1.025,0.744l0,0
	c0.252,0.435,0.425,1.019,0.468,1.674l0,0l-0.221,0.006l0.221-0.006c0,0.01,0,0.016,0.001,0.016l0,0
	c0.051,1.106-0.334,2.125-1.156,2.441l0,0L29.114,52.211L29.114,52.211z"/>
<path fill="#FFFFFF" d="M33.119,47.764L33.119,47.764c-0.263-0.336-0.531-0.486-0.696-0.477l0,0c-0.018,0-0.035,0.002-0.054,0.006
	l0,0c-0.379,0.018-0.83,0.966-0.696,2.141l0,0c0.004,0.041,0.008,0.084,0.013,0.125l0,0c0.071,0.572,0.277,1.071,0.543,1.415l0,0
	c0.274,0.348,0.585,0.507,0.831,0.497l0,0c0.032,0,0.066-0.004,0.099-0.01l0,0"/>
<path fill="#FFFFFF" d="M34.217,49.103c0.045,0.152,0.081,0.302,0.106,0.45l0,0c0.178,1.083-0.102,2.059-1.024,2.26l0,0
	c-0.063,0.01-0.129,0.018-0.193,0.018l0,0c-1.043-0.025-1.707-1.038-1.859-2.254l0,0c-0.004-0.043-0.009-0.088-0.014-0.135l0,0
	c-0.075-1.239,0.233-2.314,1.022-2.501l0,0c0.039-0.006,0.08-0.012,0.122-0.012l0,0C33.196,46.964,33.849,47.91,34.217,49.103
	L34.217,49.103"/>
<path fill="#FFFFFF" d="M36.771,50.884c-0.921-0.018-1.701-0.864-2.094-1.965l0,0c-0.072-0.209-0.125-0.416-0.164-0.617l0,0
	c-0.175-0.997-0.07-1.854,0.524-2.096l0,0c0.067-0.025,0.141-0.037,0.215-0.037l0,0c0.74,0.025,1.481,0.84,2.049,1.907l0,0h-0.001
	c0.151,0.282,0.265,0.567,0.344,0.839l0,0c0.242,0.866,0.143,1.641-0.528,1.908l0,0c-0.106,0.037-0.222,0.059-0.339,0.061l0,0
	C36.776,50.884,36.774,50.884,36.771,50.884L36.771,50.884z"/>
<path fill="#FFFFFF" d="M37.649,47.82c-0.199-0.354-0.346-0.706-0.444-1.036l0,0c-0.214-0.761-0.233-1.409,0.169-1.665l0,0
	c0.076-0.045,0.169-0.07,0.269-0.072l0,0c0.654,0.021,1.432,0.721,2.135,1.657l0,0l0,0c0.295,0.395,0.522,0.792,0.667,1.161l0,0
	c0.255,0.659,0.264,1.243-0.174,1.521l0,0c-0.119,0.072-0.266,0.109-0.424,0.111l0,0C39.048,49.488,38.22,48.796,37.649,47.82
	L37.649,47.82z"/>
<path fill="#FFFFFF" d="M42.2,47.844c-0.684-0.006-1.513-0.568-2.201-1.423l0,0c-0.367-0.472-0.641-0.958-0.807-1.386l0,0
	c-0.204-0.544-0.281-1.007-0.045-1.242l0,0c0.068-0.068,0.167-0.104,0.279-0.105l0,0c0.574,0.02,1.353,0.628,2.142,1.455l0,0l0,0
	c0.464,0.482,0.823,0.974,1.036,1.407l0,0c0.229,0.473,0.29,0.896,0.036,1.144l0,0c-0.106,0.096-0.259,0.146-0.435,0.148l0,0
	C42.203,47.844,42.202,47.846,42.2,47.844L42.2,47.844z"/>
<path fill="#FFFFFF" d="M13.233,52.646c-0.35-0.282-0.354-0.751-0.116-1.256l0,0c0.199-0.42,0.558-0.877,1.041-1.306l0,0
	c0.813-0.736,1.723-1.267,2.417-1.292l0,0c0.18-0.002,0.346,0.035,0.468,0.121l0,0c0.355,0.248,0.35,0.759,0.145,1.337l0,0
	c-0.15,0.417-0.423,0.878-0.811,1.32l0,0l-0.19-0.064l0.19,0.064c-0.697,0.775-1.615,1.265-2.4,1.284l0,0c-0.001,0-0.002,0-0.004,0
	l0,0C13.677,52.86,13.417,52.79,13.233,52.646L13.233,52.646z"/>
<path fill="#FFFFFF" d="M16.579,54.646c-0.596-0.296-0.698-0.923-0.45-1.609l0,0c0.132-0.365,0.361-0.753,0.676-1.128l0,0
	c0.748-0.905,1.701-1.571,2.514-1.602l0,0c0.149-0.006,0.294,0.019,0.419,0.071l0,0c0.568,0.25,0.673,0.932,0.484,1.714l0,0
	c-0.082,0.33-0.229,0.679-0.44,1.032l0,0l-0.223-0.043l0.222,0.043c-0.592,0.95-1.578,1.621-2.539,1.652l0,0
	C17,54.78,16.771,54.735,16.579,54.646L16.579,54.646z"/>
<path fill="#FFFFFF" d="M21.005,56.166c-0.9-0.24-1.172-1.038-0.963-1.926l0,0c0.066-0.275,0.18-0.564,0.341-0.849l0,0
	c0.602-1.085,1.549-1.915,2.489-1.958l0,0c0.097-0.002,0.196,0.008,0.291,0.027l0,0c0.809,0.203,1.103,1.058,0.984,2.06l0,0
	c-0.028,0.208-0.078,0.427-0.151,0.649l0,0c-0.391,1.124-1.371,2.002-2.52,2.047l0,0C21.314,56.221,21.156,56.203,21.005,56.166
	L21.005,56.166z"/>
<path fill="#FFFFFF" d="M26.247,56.95c-1.197-0.105-1.723-1.069-1.612-2.15l0,0c0.018-0.16,0.051-0.325,0.098-0.491l0,0
	c0.358-1.245,1.22-2.252,2.275-2.307l0,0c0.032,0,0.067,0,0.102,0.002l0,0c1.035,0.096,1.598,1.114,1.612,2.33l0,0
	c0,0.068-0.003,0.137-0.007,0.203l0,0l-0.253-0.002l0.253,0.004c-0.093,1.256-0.965,2.356-2.292,2.415l0,0
	C26.364,56.956,26.306,56.954,26.247,56.95L26.247,56.95z"/>
<path fill="#FFFFFF" d="M33.497,54.15c0.016,0.08,0.03,0.158,0.042,0.238l0,0c0.143,1.194-0.45,2.307-1.732,2.466l0,0
	c-0.057,0.006-0.113,0.008-0.169,0.01l0,0c-1.308-0.01-2.096-1.052-2.132-2.269l0,0c0-0.029-0.001-0.059,0-0.084l0,0
	c0.027-1.313,0.669-2.447,1.746-2.594l0,0c0.036-0.002,0.072-0.006,0.108-0.006l0,0C32.42,51.93,33.223,52.913,33.497,54.15
	L33.497,54.15l-0.251,0.014"/>
<path fill="#FFFFFF" d="M34.232,53.959c-0.033-0.123-0.058-0.246-0.076-0.367l0,0c-0.157-1.126,0.181-2.131,1.053-2.384l0,0
	c0.095-0.025,0.194-0.037,0.296-0.039l0,0c0.938,0.008,1.838,0.813,2.367,1.889l0,0l0,0c0.101,0.205,0.176,0.41,0.23,0.612l0,0
	c0.251,0.985-0.049,1.917-1.024,2.211l0,0c-0.15,0.043-0.305,0.066-0.464,0.068l0,0C35.459,55.947,34.543,55.077,34.232,53.959
	L34.232,53.959z"/>
<path fill="#FFFFFF" d="M38.468,52.739c-0.14-0.258-0.245-0.517-0.314-0.769l0,0c-0.239-0.894-0.125-1.697,0.497-1.998l0,0
	c0.125-0.057,0.269-0.088,0.419-0.09l0,0c0.812,0.004,1.726,0.646,2.412,1.537l0,0l0,0.002c0.234,0.299,0.412,0.609,0.529,0.912l0,0
	c0.296,0.772,0.195,1.506-0.461,1.857l0,0c-0.191,0.098-0.416,0.148-0.653,0.152l0,0C39.932,54.346,38.993,53.684,38.468,52.739
	L38.468,52.739z"/>
<path fill="#FFFFFF" d="M41.901,51.036c-0.294-0.359-0.512-0.731-0.651-1.083l0,0c-0.258-0.672-0.277-1.278,0.119-1.569l0,0
	c0.124-0.092,0.287-0.137,0.468-0.141l0,0c0.688,0,1.565,0.506,2.328,1.226l0,0h0c0.39,0.363,0.686,0.748,0.872,1.118l0,0
	c0.289,0.576,0.299,1.122-0.092,1.456l0,0c-0.183,0.15-0.438,0.232-0.728,0.236l0,0C43.433,52.285,42.544,51.803,41.901,51.036
	L41.901,51.036z"/>
<path fill="#4A5D75" d="M50.212,30.389c0.013,0.716-0.637,1.31-1.45,1.325l0,0c-0.813,0.016-1.482-0.555-1.497-1.271l-0.147-7.953
	c-0.013-0.716,0.635-1.309,1.449-1.324l0,0c0.813-0.015,1.484,0.553,1.497,1.271L50.212,30.389z"/>
<path fill="#4A5D75" d="M10.907,22.908c0.004,0.784-0.453,1.422-1.019,1.424l-7.876,0.029c-0.566,0.002-1.027-0.632-1.03-1.417l0,0
	c-0.003-0.784,0.454-1.421,1.02-1.423l7.876-0.03C10.444,21.489,10.905,22.124,10.907,22.908L10.907,22.908z"/>
<path fill="#4A5D75" d="M9.17,25.56c-0.287-0.733-0.297-1.387-0.298-1.528l0,0c0-0.017,0-0.028,0-0.034l0,0l0.893,0.035
	c-0.001,0.077,0.013,0.636,0.236,1.2l0,0c0.194,0.479,0.501,0.939,1.075,1.214c0.11,0.053,0.118,0.995,0.118,0.995
	C10.059,27.125,9.45,26.288,9.17,25.56L9.17,25.56z M9.765,24.033l-0.009,0L9.765,24.033L9.765,24.033L9.765,24.033z"/>
<path fill="#231F20" d="M14.968,32.994c0,3.112,2.524,5.635,5.638,5.635c3.113,0,5.637-2.522,5.637-5.635
	c0-1.028-0.275-1.99-0.755-2.82h-9.763C15.245,31.004,14.968,31.966,14.968,32.994z"/>
<path fill="#231F20" d="M41.994,30.174H32.23c-0.48,0.83-0.755,1.792-0.755,2.82c0,3.112,2.523,5.635,5.637,5.635
	c3.114,0,5.638-2.522,5.638-5.635C42.75,32.994,42.608,31.659,41.994,30.174z"/>
</svg>
