<?xml version="1.0" encoding="utf-8"?>
<!-- Generator: Adobe Illustrator 13.0.2, SVG Export Plug-In  -->
<!DOCTYPE svg PUBLIC "-//W3C//DTD SVG 1.1//EN" "http://www.w3.org/Graphics/SVG/1.1/DTD/svg11.dtd" [
	<!ENTITY ns_flows "http://ns.adobe.com/Flows/1.0/">
]>
<svg version="1.1"
	 xmlns="http://www.w3.org/2000/svg" xmlns:xlink="http://www.w3.org/1999/xlink" xmlns:a="http://ns.adobe.com/AdobeSVGViewerExtensions/3.0/"
	 x="0px" y="0px" width="450px" height="99px" viewBox="-0.942 -0.244 450 99" enable-background="new -0.942 -0.244 450 99"
	 xml:space="preserve">
<defs>
</defs>
<path fill="#4A5D75" d="M0,2.129h20.781c10.29,0,15.132,1.614,19.268,4.337c5.548,3.733,9.28,10.087,9.28,17.956
	s-3.732,14.224-9.28,17.956c-4.136,2.724-8.978,4.338-19.268,4.338H7.465v30.062H0V2.129z M7.465,39.958h10.794
	c7.969,0,10.693,0,14.93-1.917c5.852-2.723,8.676-7.969,8.676-13.619c0-5.648-2.824-10.895-8.676-13.619
	c-4.237-1.917-6.96-1.917-14.93-1.917H7.465V39.958z"/>
<path fill="#4A5D75" d="M51.097,21.598h7.062v7.97h0.201c3.329-7.768,9.583-8.978,15.536-9.382v7.466
	c-4.943,0.403-9.18,2.219-11.903,5.447c-2.421,3.027-3.833,6.961-3.833,11.4v32.281h-7.062V21.598z"/>
<path fill="#4A5D75" d="M84.706,66.556c8.181,7.062,21.783,6.057,29.209-1.777c6.794-7.46,7.403-16.752,4.16-23.302l5.136-5.417
	c5.343,10.348,4.131,23.794-4.614,33.019c-10.619,11.201-28.858,12.258-40.718,1.014c-11.347-10.758-12.188-28.932-1.373-40.78
	c8.402-8.715,19.5-10.009,27.184-8.145c6.887,1.386,11.909,5.034,15.58,8.932L84.706,66.556z M109.73,30.924
	c-10.971-7.343-22.503-3.682-28.542,2.688c-5.968,6.295-9.149,18.155-1.093,28.572L109.73,30.924z"/>
<path fill="#4A5D75" d="M134.335,60.436c0.202,10.491,7.364,11.299,9.886,11.299c6.658,0,10.29-3.935,10.29-9.886
	c0-7.566-6.86-9.281-10.996-10.997c-5.649-1.916-14.627-4.943-14.627-15.333c0-7.768,5.548-15.334,15.737-15.334
	c8.272,0,15.132,6.356,15.031,15.032h-7.061c-0.504-6.759-5.145-8.675-8.272-8.675c-5.649,0-8.373,4.539-8.373,8.272
	c0,5.851,5.851,7.869,9.886,9.18c6.456,2.118,15.737,5.649,15.737,17.048c0.101,9.483-5.65,17.048-17.352,17.048
	c-7.667,0-17.25-5.245-16.948-17.653H134.335z"/>
<path fill="#4A5D75" d="M171.57,60.436c0.202,10.491,7.364,11.299,9.887,11.299c6.657,0,10.29-3.935,10.29-9.886
	c0-7.566-6.86-9.281-10.997-10.997c-5.649-1.916-14.627-4.943-14.627-15.333c0-7.768,5.549-15.334,15.737-15.334
	c8.272,0,15.131,6.356,15.031,15.032h-7.062c-0.503-6.759-5.145-8.675-8.272-8.675c-5.649,0-8.372,4.539-8.372,8.272
	c0,5.851,5.85,7.869,9.886,9.18c6.457,2.118,15.737,5.649,15.737,17.048c0.101,9.483-5.65,17.048-17.351,17.048
	c-7.667,0-17.25-5.245-16.948-17.653H171.57z"/>
<path fill="#231F20" d="M270.116,13.055c14.723,16.695,10.85,39.936-1.943,53.104c-15.535,15.991-40.858,16.143-55.618,1.803
	c-13.892-13.496-16.538-38.427,0.124-55.575c13.778-14.182,32.333-13.737,39.796-10.562l-6.043,6.222
	c-8.235-2.091-20.189,0.078-28.835,8.979c-13.145,13.529-11.706,34.056,0.232,45.654c11.938,11.598,32.353,12.303,45.708-1.446
	c11.036-11.359,10.796-27.906,5.172-37.029l-29.032,29.883l-4.848-4.709L270.116,13.055z"/>
<path fill="#231F20" d="M335.657,76.779h-7.061v-9.685h-0.203c-6.052,9.079-15.736,10.995-21.487,10.995
	c-17.351,0-29.657-13.214-29.657-29.053c0-14.728,11.601-28.852,29.657-28.852c5.953,0,15.637,1.917,21.487,11.097h0.203v-9.685
	h7.061V76.779z M306.906,71.735c11.904,0,22.094-9.584,22.094-22.497c0-12.105-9.382-22.697-22.094-22.697
	c-12.104,0-22.596,8.776-22.596,22.798C284.311,61.648,293.39,71.735,306.906,71.735z"/>
<path fill="#231F20" d="M338.951,21.598h7.061v7.062h0.202c2.119-3.33,7.566-8.475,16.948-8.475c6.759,0,12.407,1.716,17.452,6.76
	c4.136,4.036,6.859,10.39,6.859,19.469v30.365h-7.062V46.414c0-7.162-2.22-12.206-5.245-15.132
	c-3.834-3.732-8.878-4.741-12.005-4.741c-3.128,0-8.171,1.009-12.005,4.741c-3.026,2.926-5.246,7.97-5.146,15.132v30.365h-7.061
	V21.598z"/>
<path fill="#231F20" d="M441.158,21.816h7.1v43.967c0,7.742-0.625,13.404-1.876,16.987c-1.72,5.071-4.706,8.977-8.957,11.714
	c-4.253,2.739-9.364,4.108-15.334,4.108c-4.377,0-8.309-0.671-11.796-2.009c-3.485-1.34-6.323-3.136-8.511-5.392
	c-2.189-2.255-4.205-5.553-6.05-9.892h7.128c1.939,3.651,4.445,6.355,7.512,8.113c3.068,1.758,6.873,2.637,11.41,2.637
	c4.476,0,8.256-0.902,11.339-2.702c3.083-1.806,5.283-4.071,6.598-6.8c1.314-2.728,1.438-7.135,1.438-13.217v-2.841
	c-2.673,3.382-5.939,5.978-9.797,7.786c-3.859,1.809-7.954,2.712-12.284,2.712c-5.077,0-9.849-1.258-14.315-3.777
	c-4.468-2.519-7.919-5.907-10.355-10.167c-2.438-4.262-3.654-8.942-3.654-14.048c0-5.104,1.268-9.864,3.808-14.274
	c2.538-4.413,6.048-7.903,10.532-10.472c4.483-2.569,9.213-3.854,14.188-3.854c4.127,0,7.978,0.854,11.548,2.56
	c3.57,1.708,7.013,4.523,10.33,8.443V21.816z M420.215,27.241c-4.023,0-7.759,0.973-11.206,2.916
	c-3.45,1.945-6.156,4.632-8.114,8.063c-1.962,3.433-2.941,7.143-2.941,11.131c0,6.053,2.027,11.056,6.086,15.01
	c4.056,3.956,9.312,5.934,15.771,5.934c6.524,0,11.772-1.959,15.745-5.883c3.972-3.92,5.96-9.077,5.96-15.465
	c0-4.16-0.915-7.869-2.739-11.132c-1.826-3.263-4.412-5.84-7.76-7.734C427.67,28.188,424.069,27.241,420.215,27.241z"/>
</svg>
